<svg xmlns="http://www.w3.org/2000/svg" width="32" height="25.5" viewBox="0 0 32 25.5">
  <path id="Path_98976" data-name="Path 98976" d="M-527.148,215.2c.2-.209.312-.326.427-.437l6.036-5.793a1.721,1.721,0,0,0,.008-2.856c-.235-.226-.468-.454-.707-.676a1.815,1.815,0,0,0-2.694.016q-3.205,3.056-6.4,6.124l-4.8,4.6a1.7,1.7,0,0,0-.013,2.817q5.547,5.313,11.1,10.626a1.863,1.863,0,0,0,2.943.008c.237-.224.476-.446.708-.676a1.634,1.634,0,0,0-.043-2.606q-2.611-2.508-5.24-5c-.444-.421-.917-.812-1.377-1.217l.1-.143h20.918c1.5,0,2.15-.625,2.151-2.073,0-.351.007-.7,0-1.053a1.678,1.678,0,0,0-1.747-1.663c-.183-.005-.366,0-.549,0h-20.811Z" transform="translate(536.035 -204.85)" fill="#6ad114"/>
</svg>
