<svg xmlns="http://www.w3.org/2000/svg" width="18.273" height="16.251" viewBox="0 0 18.273 16.251">
  <g id="Group_27013" data-name="Group 27013" transform="translate(-5799.858 -4368.997)">
    <path id="Path_98571" data-name="Path 98571" d="M5803.429,4372.375h.362q5.2,0,10.406,0a1.705,1.705,0,0,1,.655.115.975.975,0,0,1,.545,1.063,1.016,1.016,0,0,1-.9.838,3.233,3.233,0,0,1-.371.007h-10.767c.1.117.16.191.226.258.413.416.827.829,1.24,1.244a1.03,1.03,0,1,1-1.424,1.444l-2.484-2.485c-.238-.238-.482-.474-.72-.713a1.015,1.015,0,0,1,0-1.524q1.625-1.625,3.252-3.246a1.021,1.021,0,1,1,1.425,1.442c-.493.494-.993.98-1.489,1.47Z" fill="#34a759"/>
    <path id="Path_98572" data-name="Path 98572" d="M5852,4512.263c-.529-.519-1.064-1.032-1.587-1.558a.954.954,0,0,1-.252-1.025.966.966,0,0,1,.763-.686.943.943,0,0,1,.9.266c1.144,1.134,2.288,2.267,3.419,3.414a.977.977,0,0,1-.017,1.4q-1.689,1.7-3.4,3.387a1.009,1.009,0,0,1-1.422-1.431c.518-.532,1.057-1.044,1.561-1.651h-.341q-5.221,0-10.442,0a1.708,1.708,0,0,1-.653-.114.974.974,0,0,1-.55-1.06,1.018,1.018,0,0,1,.892-.842,3.375,3.375,0,0,1,.372-.007h10.7Z" transform="translate(-37.404 -132.513)" fill="#34a759"/>
  </g>
</svg>
