<svg xmlns="http://www.w3.org/2000/svg" width="28.778" height="21.829" viewBox="0 0 28.778 21.829">
  <path id="Path_97956" data-name="Path 97956" d="M302.447,1851.605l2.439,1.192c-.5.784-.968,1.557-1.479,2.3-.06.088-.354.078-.511.028a23.5,23.5,0,0,1-5.77-2.772c-1.144-.755-1.143-.752-1.2-2.135a24.117,24.117,0,0,1,3.4-13.526c.964-1.642.955-1.677,2.783-2.276,1.248-.409,2.537-.692,3.8-1.044a.359.359,0,0,1,.494.232c.144.313.327.608.453.927a.4.4,0,0,0,.505.294,20.269,20.269,0,0,1,5.863,0,.407.407,0,0,0,.512-.284c.178-.408.325-.973.651-1.133s.869.048,1.29.181c1.439.453,2.869.935,4.295,1.43a1.093,1.093,0,0,1,.5.416,23.958,23.958,0,0,1,4.1,15.849.732.732,0,0,1-.263.471,23.016,23.016,0,0,1-6.743,3.406.476.476,0,0,1-.42-.077c-.5-.742-.963-1.5-1.459-2.291l2.363-1.141c-.239-.52-.41-.587-.868-.39a16.806,16.806,0,0,1-13.736.008C302.993,1851.076,302.761,1851.224,302.447,1851.605Zm3.171-3.34a2.238,2.238,0,0,0,1.518-.625,3.148,3.148,0,0,0,.588-3.79,2.427,2.427,0,0,0-3.487-.98,2.873,2.873,0,0,0-1.293,2.346A2.775,2.775,0,0,0,305.617,1848.266Zm12.06-2.962a5.367,5.367,0,0,0-.114-.743,2.593,2.593,0,0,0-1.962-2.01,2.315,2.315,0,0,0-2.432.887,3.149,3.149,0,0,0,.11,4.008,2.37,2.37,0,0,0,3.133.418A3.033,3.033,0,0,0,317.677,1845.3Z" transform="translate(-295.899 -1833.349)" fill="#fff"/>
</svg>
