<svg xmlns="http://www.w3.org/2000/svg" xmlns:xlink="http://www.w3.org/1999/xlink" width="31.124" height="63.999" viewBox="0 0 31.124 63.999">
  <defs>
    <linearGradient id="linear-gradient" x1="0.5" x2="0.5" y2="1" gradientUnits="objectBoundingBox">
      <stop offset="0" stop-color="#7ee2b1"/>
      <stop offset="0.131" stop-color="#eafaf2"/>
      <stop offset="0.489" stop-color="#fff"/>
      <stop offset="0.84" stop-color="#f1fbf5"/>
      <stop offset="1" stop-color="#6dd697"/>
    </linearGradient>
  </defs>
  <path id="Path_98787" data-name="Path 98787" d="M20.261,29.821h-3.5a1.143,1.143,0,0,1-1.294-1.294V22.363H14.173A11.438,11.438,0,0,1,5.65,19.2q-3.12-3.158-3.12-8.713V8.741A1.211,1.211,0,0,1,3.9,7.372H8.694q1.294,0,1.294,1.37V9.883q0,3.2,1.446,4.6t4.718,1.408h3.957q3.2,0,4.642-1.484T26.2,9.578V7.143q0-3.2-1.979-4.376A13.379,13.379,0,0,0,18.282,1.36,40.066,40.066,0,0,1,10.444.523a12.816,12.816,0,0,1-4.033-1.9Q2.53-4.043,2.53-11.2v-3.577q0-5.555,3.082-8.713t8.561-3.158h1.294v-6.24a1.143,1.143,0,0,1,1.294-1.294h3.5a1.143,1.143,0,0,1,1.294,1.294v6.24h.38a10.689,10.689,0,0,1,8.181,3.2q3.006,3.2,3.006,8.675V-13.1q0,1.37-1.294,1.37H27.034a1.211,1.211,0,0,1-1.37-1.37v-.989q0-3.2-1.408-4.6T19.576-20.1h-3.5q-3.348,0-4.718,1.484t-1.37,5.061v2.587a4.285,4.285,0,0,0,1.941,4.033A13.7,13.7,0,0,0,17.9-5.565l3.881.152a14.423,14.423,0,0,1,8.6,3.006q3.272,2.7,3.272,9.246v3.653q0,5.555-3.158,8.713a11.568,11.568,0,0,1-8.561,3.158h-.38v6.164A1.143,1.143,0,0,1,20.261,29.821Z" transform="translate(-2.53 34.178)" fill="url(#linear-gradient)"/>
</svg>
