<svg xmlns="http://www.w3.org/2000/svg" width="17.206" height="17.206" viewBox="0 0 17.206 17.206">
  <g id="Group_27405" data-name="Group 27405" transform="translate(2 5)">
    <g id="Group_27529" data-name="Group 27529" transform="translate(-2 -5)">
      <g id="Group_27527" data-name="Group 27527">
        <g id="Group_27528" data-name="Group 27528">
          <path id="Path_82202" data-name="Path 82202" d="M-522.8,162.626a8.618,8.618,0,0,1-8.647,8.576,8.618,8.618,0,0,1-8.559-8.63A8.618,8.618,0,0,1-531.358,154,8.618,8.618,0,0,1-522.8,162.626Zm-1.561-.012a7.083,7.083,0,0,0-7.019-7.058,7.083,7.083,0,0,0-7.066,7.01,7.084,7.084,0,0,0,7.036,7.075A7.083,7.083,0,0,0-524.359,162.615Z" transform="translate(540.004 -153.997)" fill="#57bf24"/>
        </g>
      </g>
      <path id="Path_82203" data-name="Path 82203" d="M-476.5,238.018l4.2-4.2a3.434,3.434,0,0,1,.267-.255.771.771,0,0,1,1.063.054.761.761,0,0,1,.035,1.038,2.41,2.41,0,0,1-.184.2q-2.35,2.351-4.7,4.7a.834.834,0,0,1-1.381,0q-1.177-1.174-2.352-2.35a.835.835,0,0,1-.3-.777.758.758,0,0,1,.522-.6.756.756,0,0,1,.827.214q.87.864,1.735,1.732C-476.7,237.838-476.616,237.913-476.5,238.018Z" transform="translate(483.916 -228.039)" fill="#57bf24"/>
    </g>
  </g>
</svg>
