<svg xmlns="http://www.w3.org/2000/svg" width="14.961" height="12.446" viewBox="0 0 14.961 12.446">
  <path id="Path_92622" data-name="Path 92622" d="M744.745,1336.242h-9.78c-.7,0-1-.3-1.005-1.012,0-.179,0-.358,0-.537a.8.8,0,0,1,.769-.786c.093-.005.187,0,.28,0h9.75c-.089-.1-.141-.157-.2-.213l-2.822-2.828a.861.861,0,0,1,0-1.394c.11-.11.219-.222.331-.33a.825.825,0,0,1,1.259.008q1.614,1.607,3.222,3.22l2.015,2.016a.85.85,0,0,1,.006,1.375q-2.594,2.594-5.187,5.187a.849.849,0,0,1-1.376,0c-.111-.109-.223-.218-.331-.33a.819.819,0,0,1,.02-1.272q1.221-1.224,2.45-2.439c.207-.205.429-.4.644-.594Z" transform="translate(-733.959 -1328.85)"/>
</svg>
