<svg xmlns="http://www.w3.org/2000/svg" width="86" height="86" viewBox="0 0 86 86">
  <g id="Group_27298" data-name="Group 27298" transform="translate(-0.35 -0.143)">
    <circle id="Ellipse_2436" data-name="Ellipse 2436" cx="43" cy="43" r="43" transform="translate(0.35 0.143)" fill="#34a759"/>
    <g id="Group_27176" data-name="Group 27176" transform="translate(21.071 24.138)">
      <path id="Path_97906" data-name="Path 97906" d="M120.3,272.667a39.147,39.147,0,0,1-6.274,3.908l-.009,0c-3.894,2.049-8.152,3.913-10.2,4.859a1.8,1.8,0,0,1-2.152-.464l-1.537-1.859,14.6-10.959.368,2.691a14.97,14.97,0,0,0,4.836-9.19A14.968,14.968,0,0,0,110,264.679l2.573.867L99.069,277.83l-1.537-1.86a1.8,1.8,0,0,1-.051-2.2c1.311-1.831,3.935-5.653,6.675-9.086a.1.1,0,0,1,.016-.018,39.136,39.136,0,0,1,5.022-5.437,19.429,19.429,0,0,1,3.088-2.069l0,0c4.808-2.623,11.105-3.746,15.892-2.312.508,4.971-1.777,10.945-5.258,15.174h0A19.439,19.439,0,0,1,120.3,272.667Z" transform="translate(-83.535 -254.219)" fill="#fff"/>
      <path id="Path_97907" data-name="Path 97907" d="M103.785,263.041c.665-.491,1.717-2.126,2.482-2.539l1-.779-7.156-.54L87.122,276.87l4.995-1.024C93.072,274.92,99.687,266.064,103.785,263.041Z" transform="translate(-79.075 -256.431)" fill="#fff"/>
      <path id="Path_97908" data-name="Path 97908" d="M122.34,286.38c.607-.561,2.411-1.287,2.96-1.96l.954-.84-.814,7.13-19.813,9.439,1.944-4.713C108.659,294.671,118.6,289.838,122.34,286.38Z" transform="translate(-87.32 -267.301)" fill="#fff"/>
      <path id="Path_97909" data-name="Path 97909" d="M80.615,307.1l3.9-3.977-11.912,6.025,8.156-10.568-4.64,3.087a14.693,14.693,0,0,1,8.718-8.412l2.362,2.858-7.095,6.832,8.044-5.685,2.364,2.859A14.7,14.7,0,0,1,80.615,307.1Z" transform="translate(-72.607 -271.615)" fill="#fff"/>
    </g>
  </g>
</svg>
