<svg xmlns="http://www.w3.org/2000/svg" xmlns:xlink="http://www.w3.org/1999/xlink" width="53" height="53" viewBox="0 0 53 53">
  <defs>
    <clipPath id="clip-path">
      <rect width="53" height="53" fill="none"/>
    </clipPath>
  </defs>
  <g id="Repeat_Grid_1" data-name="Repeat Grid 1" clip-path="url(#clip-path)">
    <g id="Group_27398" data-name="Group 27398" transform="translate(-831 -119)">
      <circle id="Ellipse_2035" data-name="Ellipse 2035" cx="26.5" cy="26.5" r="26.5" transform="translate(831 119)" fill="#34a759"/>
      <g id="Group_27397" data-name="Group 27397" transform="translate(18859.328 4112.011)">
        <g id="Group_26611" data-name="Group 26611" transform="translate(-18014.609 -3980.775)">
          <path id="Path_97929" data-name="Path 97929" d="M7044.465,4378.775c-1.838,2.847-2.308,6.072-2.584,9.35-2.242-.382-3.612-.042-4.4,1.1l8.464,4.958.065-.062q-.684-1.23-1.369-2.46c-.237-.428-.456-.868-.722-1.277a2.452,2.452,0,0,1-.4-1.555,21.226,21.226,0,0,1,1.489-7.5,8.523,8.523,0,0,1,1.456-2.259,2.462,2.462,0,0,1,3.774-.021,7.915,7.915,0,0,1,1.86,3.349,22.5,22.5,0,0,1,1.042,6.962,1.632,1.632,0,0,1-.227.744c-.733,1.334-1.487,2.656-2.178,4.049l8.467-5.024a4.143,4.143,0,0,0-4.311-1.015c-.266-1.609-.481-3.219-.81-4.808a12.6,12.6,0,0,0-1.928-4.606c.521.178.931.3,1.326.459a11.842,11.842,0,0,1,7.011,6.84,9.888,9.888,0,0,1,.624,3.349.954.954,0,0,1-.524.907c-2.668,1.574-5.329,3.162-8,4.735a1.3,1.3,0,0,1-.626.167q-3.651.017-7.3,0a1.494,1.494,0,0,1-.7-.206c-2.616-1.517-5.22-3.054-7.836-4.571a1.067,1.067,0,0,1-.568-1.1c.228-4.213,2.4-7.2,5.929-9.279a30.337,30.337,0,0,1,2.921-1.343Zm3.855,16.052c.118-.2.194-.321.266-.446.866-1.533,1.717-3.073,2.6-4.593a.567.567,0,0,0-.105-.808,3.836,3.836,0,0,0-3.4-1.018,3.2,3.2,0,0,0-2.186,1.145.532.532,0,0,0-.108.45C7046.342,4391.295,7047.313,4393.022,7048.32,4394.828Z" transform="translate(-7035.548 -4378.178)" fill="#fff"/>
          <path id="Path_97930" data-name="Path 97930" d="M7101.692,4587.484c0,1.59-.008,3.116,0,4.643a.832.832,0,0,0,1.365.716,4.632,4.632,0,0,0,.627-.421.641.641,0,0,1,.989-.007,5.323,5.323,0,0,0,.546.383.924.924,0,0,0,1,.138.876.876,0,0,0,.45-.9c-.007-1.335,0-2.671,0-4.007v-.512c.14-.014.253-.034.367-.035,1.157,0,2.314,0,3.473,0a.868.868,0,0,1,.986.981q.005,3.962,0,7.924a.863.863,0,0,1-.992.973q-6.322,0-12.644,0c-.688,0-1-.316-1-1.015q0-3.917,0-7.835c0-.719.31-1.027,1.029-1.029C7099.139,4587.482,7100.383,4587.484,7101.692,4587.484Z" transform="translate(-7091.402 -4568.837)" fill="#fff"/>
          <path id="Path_97931" data-name="Path 97931" d="M7170.136,4587.73h1.568v3.141c-.526-.623-1.035-.551-1.568.026Z" transform="translate(-7158.146 -4569.063)" fill="#fff"/>
        </g>
      </g>
    </g>
  </g>
</svg>
