<svg xmlns="http://www.w3.org/2000/svg" width="53" height="53" viewBox="0 0 53 53">
  <g id="Group_27540" data-name="Group 27540" transform="translate(-268 -410)">
    <g id="Group_27256" data-name="Group 27256" transform="translate(268 410)">
      <circle id="Ellipse_2393" data-name="Ellipse 2393" cx="26.5" cy="26.5" r="26.5" fill="#34a759"/>
    </g>
    <g id="Group_27255" data-name="Group 27255" transform="translate(281.824 422.503)">
      <path id="Path_98748" data-name="Path 98748" d="M5187.874,4410.8l-.39.328c.779.946,1.538,1.86,2.286,2.783a2.113,2.113,0,0,1,.386.613,1.036,1.036,0,0,1-1.8.967c-.758-.893-1.5-1.806-2.242-2.708-.087-.105-.182-.206-.3-.336l-.371.288a1.136,1.136,0,0,0,.085.158c.563.693,1.137,1.377,1.691,2.075a1.029,1.029,0,0,1-.1,1.568,1.087,1.087,0,0,1-1.529-.258c-.605-.724-1.2-1.455-1.818-2.208-.135.113-.25.207-.393.324.423.53.839,1.021,1.223,1.538a.979.979,0,0,1,0,1.22,1.027,1.027,0,0,1-1.17.374,1.523,1.523,0,0,1-.346-.214c.639-.413,1.056-.912.857-1.677a1.3,1.3,0,0,0-1.213-.976,132.813,132.813,0,0,1-2.461-3.395c-.134-1.624-1.019-2.106-2.417-1.227-.246-.658-.5-1.295-.71-1.944-.024-.074.115-.236.213-.317q2.162-1.79,4.339-3.565a.533.533,0,0,1,.362-.139c.943.158,1.884.338,2.826.511l.029.152c-.285.179-.566.363-.854.535a1.834,1.834,0,1,0,1.856,3.152c.6-.358,1.2-.722,1.8-1.081.028-.018.063-.026.136-.06.152.2.312.4.473.6q2.118,2.64,4.238,5.278a1.1,1.1,0,0,1-.023,1.627,1.066,1.066,0,0,1-1.6-.287c-.906-1.091-1.8-2.188-2.7-3.282C5188.127,4411.09,5188.012,4410.961,5187.874,4410.8Z" transform="translate(-5173.478 -4389.08)" fill="#fff"/>
      <path id="Path_98749" data-name="Path 98749" d="M5218.563,4267.141a5.78,5.78,0,1,1-5.749-5.744A5.786,5.786,0,0,1,5218.563,4267.141Zm-6.3-3.59a2.132,2.132,0,0,0-1.569,1.945c-.062.976.61,1.463,1.348,1.886.061.034.124.063.186.1.413.229.835.439,1.232.691a.718.718,0,0,1,.281,1,1.012,1.012,0,0,1-1.055.623,1.032,1.032,0,0,1-.944-.965c-.054-.362-.2-.627-.586-.584-.425.047-.51.377-.457.744a1.975,1.975,0,0,0,.988,1.529c.365.2.666.358.606.876-.019.146.288.438.483.478.315.064.5-.186.527-.511.012-.189,0-.38,0-.561a2.133,2.133,0,0,0,1.568-1.946c.061-.973-.607-1.464-1.347-1.886-.062-.035-.125-.062-.186-.1-.413-.228-.836-.438-1.233-.689a.719.719,0,0,1-.281-1,1.007,1.007,0,0,1,1.055-.622,1.026,1.026,0,0,1,.943.964c.054.362.2.627.588.584.423-.047.51-.377.456-.744a1.979,1.979,0,0,0-.987-1.529c-.366-.2-.666-.358-.605-.876.016-.146-.29-.437-.486-.477-.313-.065-.5.185-.525.51C5212.251,4263.163,5212.262,4263.338,5212.262,4263.551Z" transform="translate(-5200.204 -4261.396)" fill="#fff"/>
      <path id="Path_98750" data-name="Path 98750" d="M5247.309,4401.165l-4.443-5.854c-.911.551-1.8,1.1-2.7,1.626a1.29,1.29,0,0,1-2.011-.817,1.081,1.081,0,0,1,.448-1.252c1.688-1.007,3.242-2.286,5.2-2.774a17.679,17.679,0,0,1,2.474-.383.858.858,0,0,1,.639.3c1.4,1.854,2.781,3.726,4.192,5.626A14.01,14.01,0,0,1,5247.309,4401.165Z" transform="translate(-5228.041 -4378.014)" fill="#fff"/>
      <path id="Path_98751" data-name="Path 98751" d="M5328.962,4373.818a1.764,1.764,0,0,1-.29.4c-.523.408-1.063.795-1.594,1.192a.55.55,0,0,1-.887-.151q-2.12-2.867-4.254-5.723a.546.546,0,0,1,.136-.889c.526-.374,1.043-.765,1.558-1.154a.5.5,0,0,1,.808.108q2.169,2.927,4.343,5.851A2.666,2.666,0,0,1,5328.962,4373.818Z" transform="translate(-5302.908 -4356.201)" fill="#fff"/>
      <path id="Path_98752" data-name="Path 98752" d="M5142.292,4382.3a2.411,2.411,0,0,1,.33-.426c1.8-1.493,3.612-2.976,5.416-4.466a.6.6,0,0,1,.986.075c.38.478.774.944,1.164,1.416a.566.566,0,0,1-.09.905q-2.754,2.262-5.5,4.524c-.262.217-.555.287-.794.016-.474-.536-.918-1.1-1.363-1.659A1.536,1.536,0,0,1,5142.292,4382.3Z" transform="translate(-5142.292 -4365.021)" fill="#fff"/>
      <path id="Path_98753" data-name="Path 98753" d="M5183.957,4462.554a1.757,1.757,0,0,1-1.271,1.164,1.136,1.136,0,0,1-.813-.967c.023-.365.919-1.033,1.348-1.006A.8.8,0,0,1,5183.957,4462.554Z" transform="translate(-5177.711 -4440.69)" fill="#fff"/>
      <path id="Path_98754" data-name="Path 98754" d="M5207.9,4494.638c.009.422-.771,1.175-1.237,1.2a1.069,1.069,0,0,1-.845-.92c0-.342.813-1.02,1.248-1.042A.808.808,0,0,1,5207.9,4494.638Z" transform="translate(-5199.144 -4469.44)" fill="#fff"/>
      <path id="Path_98755" data-name="Path 98755" d="M5195.945,4478.466a1.8,1.8,0,0,1-1.253,1.191c-.337.007-.841-.568-.83-.949.01-.354.9-1.06,1.32-1.04A.835.835,0,0,1,5195.945,4478.466Z" transform="translate(-5188.442 -4454.94)" fill="#fff"/>
      <path id="Path_98756" data-name="Path 98756" d="M5219,4510.09a.765.765,0,0,1,.77.76,1.732,1.732,0,0,1-1.289,1.2,1.192,1.192,0,0,1-.791-.936C5217.693,4510.737,5218.53,4510.083,5219,4510.09Z" transform="translate(-5209.769 -4483.956)" fill="#fff"/>
    </g>
  </g>
</svg>
