<svg xmlns="http://www.w3.org/2000/svg" width="89" height="89" viewBox="0 0 89 89">
  <g id="Group_27460" data-name="Group 27460" transform="translate(-896 -298)">
    <g id="Group_20017" data-name="Group 20017" transform="translate(-25 2)">
      <circle id="Ellipse_1720" data-name="Ellipse 1720" cx="44.5" cy="44.5" r="44.5" transform="translate(921 296)" fill="#f6f6f6"/>
    </g>
    <path id="Path_98517" data-name="Path 98517" d="M6094.36,4809.01c2.375-2.383,4.61-4.634,6.854-6.878q10.91-10.915,21.83-21.822a5.772,5.772,0,0,1,9.758,2.161,5.6,5.6,0,0,1-1.551,6.062q-6,6.005-12,12-10.2,10.21-20.406,20.421c-2.711,2.712-6.114,2.741-8.817.047-4.439-4.422-8.878-8.845-13.271-13.312a5.759,5.759,0,0,1,2.441-9.727,5.62,5.62,0,0,1,5.828,1.568q4.294,4.309,8.6,8.607C6093.854,4808.377,6094.053,4808.647,6094.36,4809.01Z" transform="translate(-5161.608 -4458.455)" fill="#34a759"/>
  </g>
</svg>
