<svg xmlns="http://www.w3.org/2000/svg" width="17.393" height="15.433" viewBox="0 0 17.393 15.433">
  <g id="Group_27162" data-name="Group 27162" transform="translate(0 0)">
    <path id="Path_98696" data-name="Path 98696" d="M7235.8,4172.105a9.353,9.353,0,0,1-3.689-.79,5.8,5.8,0,0,1-.668-.408,1.748,1.748,0,0,1,0-2.788,6.053,6.053,0,0,1,2.365-.947,10.093,10.093,0,0,1,4.974.254,4.957,4.957,0,0,1,1.5.784,1.77,1.77,0,0,1-.024,2.64,5.324,5.324,0,0,1-2.264.97C7237.271,4171.954,7236.534,4172.014,7235.8,4172.105Z" transform="translate(-7223.471 -4166.978)" fill="#fb0"/>
    <path id="Path_98697" data-name="Path 98697" d="M7103.089,4243.525c-.793,0-1.569.037-2.34-.01a6.19,6.19,0,0,1-3.365-1.057,1.748,1.748,0,0,1,0-2.871,6.525,6.525,0,0,1,2.112-.867,10.041,10.041,0,0,1,3.594-.121Z" transform="translate(-7096.623 -4234.613)" fill="#fb0"/>
    <path id="Path_98698" data-name="Path 98698" d="M7230.5,4295.863a3.879,3.879,0,0,0,2.5,1.473,10,10,0,0,0,5.137-.075,4.32,4.32,0,0,0,1.8-.9,5.7,5.7,0,0,0,.429-.478,1.756,1.756,0,0,1-.331,1.831,4.313,4.313,0,0,1-1.847.973,9.8,9.8,0,0,1-5.985-.17,4.708,4.708,0,0,1-1.259-.719A1.6,1.6,0,0,1,7230.5,4295.863Z" transform="translate(-7223.09 -4288.876)" fill="#fb0"/>
    <path id="Path_98699" data-name="Path 98699" d="M7240.755,4248.182a1.719,1.719,0,0,1-.574,2.079,5.679,5.679,0,0,1-2.622,1,10.516,10.516,0,0,1-3.953-.09,6.152,6.152,0,0,1-2-.789,1.783,1.783,0,0,1-.822-1.935,1.559,1.559,0,0,1,.08-.244,4.652,4.652,0,0,0,3.26,1.625,9.491,9.491,0,0,0,5.081-.459A3,3,0,0,0,7240.755,4248.182Z" transform="translate(-7223.474 -4243.78)" fill="#fb0"/>
    <path id="Path_98700" data-name="Path 98700" d="M7240.806,4392.458a1.708,1.708,0,0,1-.441,1.944,4.628,4.628,0,0,1-1.981.945,9.764,9.764,0,0,1-5.95-.311,4.99,4.99,0,0,1-.894-.5,1.725,1.725,0,0,1-.7-1.856,1.193,1.193,0,0,1,.074-.215,5.145,5.145,0,0,0,3.711,1.677,9.459,9.459,0,0,0,4.478-.457A3.317,3.317,0,0,0,7240.806,4392.458Z" transform="translate(-7223.527 -4380.233)" fill="#fb0"/>
    <path id="Path_98701" data-name="Path 98701" d="M7240.844,4344.869a1.723,1.723,0,0,1-.551,2.063,5.035,5.035,0,0,1-2.088.91,10.143,10.143,0,0,1-5.187-.161,4.333,4.333,0,0,1-1.7-.915,1.733,1.733,0,0,1-.353-1.848,4.761,4.761,0,0,0,3.273,1.6,9.992,9.992,0,0,0,4.237-.186,7.587,7.587,0,0,0,.99-.353A2.817,2.817,0,0,0,7240.844,4344.869Z" transform="translate(-7223.563 -4335.225)" fill="#fb0"/>
    <path id="Path_98702" data-name="Path 98702" d="M7103.131,4369.411c.043.43.088.873.137,1.364-.4.03-.852.088-1.3.094a8.6,8.6,0,0,1-3.6-.606,5.682,5.682,0,0,1-1.206-.753,1.647,1.647,0,0,1-.351-1.811c1.1,1.328,2.644,1.569,4.217,1.7C7101.725,4369.46,7102.431,4369.411,7103.131,4369.411Z" transform="translate(-7096.685 -4356.817)" fill="#fb0"/>
    <path id="Path_98703" data-name="Path 98703" d="M7096.586,4320.108a4.441,4.441,0,0,0,2.95,1.574,10.563,10.563,0,0,0,3.018.142l.368-.03v1.431c-.353.026-.708.07-1.064.076a8.666,8.666,0,0,1-4.055-.749,3.649,3.649,0,0,1-.746-.483A1.677,1.677,0,0,1,7096.586,4320.108Z" transform="translate(-7096.456 -4311.807)" fill="#fb0"/>
  </g>
</svg>
