<svg xmlns="http://www.w3.org/2000/svg" width="26" height="26" viewBox="0 0 26 26">
  <g id="Group_27049" data-name="Group 27049" transform="translate(-5963.996 -4308.396)">
    <path id="Path_98626" data-name="Path 98626" d="M5976.982,4334.4a13,13,0,1,1,13.014-13A13,13,0,0,1,5976.982,4334.4Zm10.981-12.987a10.967,10.967,0,1,0-10.981,10.954A10.976,10.976,0,0,0,5987.963,4321.41Z" fill="#34a759"/>
    <path id="Path_98627" data-name="Path 98627" d="M6053.917,4420.583c2-2,3.959-3.978,5.943-5.932a1.749,1.749,0,0,1,.868-.425.829.829,0,0,1,.9.553.943.943,0,0,1-.1,1.031,5.385,5.385,0,0,1-.475.5q-3.11,3.113-6.223,6.225c-.683.684-1.156.686-1.83.014-.986-.983-1.968-1.97-2.958-2.949a1.043,1.043,0,0,1-.307-1.211,1,1,0,0,1,1.677-.292c.738.715,1.457,1.451,2.184,2.178C6053.688,4420.368,6053.787,4420.458,6053.917,4420.583Z" transform="translate(-78.694 -97.219)" fill="#34a759"/>
  </g>
</svg>
