<svg xmlns="http://www.w3.org/2000/svg" width="16.038" height="14.23" viewBox="0 0 16.038 14.23">
  <g id="Group_27167" data-name="Group 27167" transform="translate(0 0)">
    <path id="Path_98696" data-name="Path 98696" d="M7235.408,4171.707a8.637,8.637,0,0,1-3.4-.73,5.166,5.166,0,0,1-.615-.375,1.612,1.612,0,0,1,0-2.571,5.568,5.568,0,0,1,2.181-.874,9.313,9.313,0,0,1,4.586.234,4.552,4.552,0,0,1,1.384.723,1.633,1.633,0,0,1-.021,2.435,4.9,4.9,0,0,1-2.088.893C7236.763,4171.566,7236.083,4171.621,7235.408,4171.707Z" transform="translate(-7224.038 -4166.978)" fill="#bcbcbc"/>
    <path id="Path_98697" data-name="Path 98697" d="M7102.586,4243.133c-.73,0-1.447.033-2.157-.009a5.731,5.731,0,0,1-3.1-.975,1.613,1.613,0,0,1,0-2.647,6.022,6.022,0,0,1,1.948-.8,9.244,9.244,0,0,1,3.314-.111Z" transform="translate(-7096.624 -4234.916)" fill="#bcbcbc"/>
    <path id="Path_98698" data-name="Path 98698" d="M7230.491,4295.863a3.581,3.581,0,0,0,2.3,1.359,9.222,9.222,0,0,0,4.737-.07,3.972,3.972,0,0,0,1.655-.833,5.122,5.122,0,0,0,.4-.44,1.617,1.617,0,0,1-.3,1.688,3.968,3.968,0,0,1-1.7.9,9.032,9.032,0,0,1-5.519-.156,4.322,4.322,0,0,1-1.161-.665A1.475,1.475,0,0,1,7230.491,4295.863Z" transform="translate(-7223.655 -4289.42)" fill="#bcbcbc"/>
    <path id="Path_98699" data-name="Path 98699" d="M7239.976,4248.182a1.584,1.584,0,0,1-.529,1.917,5.224,5.224,0,0,1-2.418.926,9.665,9.665,0,0,1-3.645-.083,5.667,5.667,0,0,1-1.843-.728,1.644,1.644,0,0,1-.758-1.784,1.242,1.242,0,0,1,.073-.225,4.283,4.283,0,0,0,3.007,1.5,8.74,8.74,0,0,0,4.684-.423A2.767,2.767,0,0,0,7239.976,4248.182Z" transform="translate(-7224.041 -4244.123)" fill="#bcbcbc"/>
    <path id="Path_98700" data-name="Path 98700" d="M7240.028,4392.458a1.577,1.577,0,0,1-.405,1.793,4.283,4.283,0,0,1-1.828.872,9.007,9.007,0,0,1-5.487-.287,4.628,4.628,0,0,1-.824-.461,1.589,1.589,0,0,1-.643-1.711,1.059,1.059,0,0,1,.068-.2,4.743,4.743,0,0,0,3.422,1.547,8.73,8.73,0,0,0,4.129-.421A3.057,3.057,0,0,0,7240.028,4392.458Z" transform="translate(-7224.095 -4381.186)" fill="#bcbcbc"/>
    <path id="Path_98701" data-name="Path 98701" d="M7240.066,4344.869a1.59,1.59,0,0,1-.508,1.9,4.644,4.644,0,0,1-1.927.839,9.351,9.351,0,0,1-4.781-.148,4,4,0,0,1-1.566-.843,1.6,1.6,0,0,1-.324-1.7,4.384,4.384,0,0,0,3.018,1.479,9.2,9.2,0,0,0,3.908-.171,6.791,6.791,0,0,0,.912-.326A2.588,2.588,0,0,0,7240.066,4344.869Z" transform="translate(-7224.131 -4335.977)" fill="#bcbcbc"/>
    <path id="Path_98702" data-name="Path 98702" d="M7102.631,4369.278c.04.4.081.805.125,1.258-.368.027-.785.081-1.2.086a7.947,7.947,0,0,1-3.316-.559,5.265,5.265,0,0,1-1.112-.7,1.517,1.517,0,0,1-.323-1.669,5.158,5.158,0,0,0,3.888,1.569C7101.333,4369.323,7101.984,4369.278,7102.631,4369.278Z" transform="translate(-7096.685 -4357.666)" fill="#bcbcbc"/>
    <path id="Path_98703" data-name="Path 98703" d="M7096.577,4320.108a4.1,4.1,0,0,0,2.72,1.452,9.758,9.758,0,0,0,2.783.131l.339-.028v1.318c-.327.024-.654.065-.982.071a7.989,7.989,0,0,1-3.739-.691,3.357,3.357,0,0,1-.687-.446A1.545,1.545,0,0,1,7096.577,4320.108Z" transform="translate(-7096.456 -4312.453)" fill="#bcbcbc"/>
  </g>
</svg>
