<svg xmlns="http://www.w3.org/2000/svg" width="27" height="27" viewBox="0 0 27 27">
  <g id="Group_27741" data-name="Group 27741" transform="translate(-482 -1145)">
    <circle id="Ellipse_2525" data-name="Ellipse 2525" cx="13.5" cy="13.5" r="13.5" transform="translate(482 1145)" fill="#e0e0e0"/>
    <g id="Group_27740" data-name="Group 27740" transform="translate(-5691.004 -3101.094)">
      <path id="Path_99126" data-name="Path 99126" d="M6191.146,4252.268v3.415h-3.4l.8-.774a4.788,4.788,0,0,0-5.192.646,4.958,4.958,0,0,0-.911,6.607l-1.446,1.429a5.97,5.97,0,0,1-.869-1.45,6.938,6.938,0,0,1,3.364-9.063,6.728,6.728,0,0,1,6.307.143.293.293,0,0,0,.424-.068c.274-.3.573-.575.862-.859C6191.093,4252.285,6191.109,4252.283,6191.146,4252.268Z" fill="#969696"/>
      <path id="Path_99127" data-name="Path 99127" d="M6241.068,4336.385c-.128-1.2-.249-2.326-.372-3.475l3.469-.372-.811,1.018a4.848,4.848,0,0,0,5.02-1.231,4.961,4.961,0,0,0,.755-5.919l1.571-1.326c.18.341.37.653.515.984a6.956,6.956,0,0,1-4.245,9.443,6.656,6.656,0,0,1-4.774-.21.227.227,0,0,0-.323.084C6241.629,4335.7,6241.369,4336.013,6241.068,4336.385Z" transform="translate(-58.342 -69.464)" fill="#969696"/>
      <path id="Path_99128" data-name="Path 99128" d="M6263.614,4340.911h-.835v-.9h.83c.125-.281.245-.535.347-.795a.222.222,0,0,0-.049-.189c-.163-.171-.339-.331-.514-.5l.67-.638.5.589c.35-.13.615-.223.873-.332a.223.223,0,0,0,.1-.165c.012-.236,0-.472,0-.725h.891c0,.207.009.418,0,.628-.01.168.026.251.217.3a4.816,4.816,0,0,1,.72.3l.548-.624.652.708c-.143.132-.326.29-.493.463a.236.236,0,0,0-.044.205c.1.248.209.489.332.768h.839v.913h-.833c-.126.286-.241.533-.341.787a.217.217,0,0,0,.036.189c.168.177.351.341.534.515l-.685.658-.515-.608c-.335.123-.6.214-.859.322a.231.231,0,0,0-.1.173c-.011.235,0,.471,0,.72h-.892c0-.24.01-.475-.006-.709a.268.268,0,0,0-.129-.19c-.242-.108-.494-.195-.8-.311l-.524.624-.678-.712c.141-.132.307-.3.483-.45.1-.086.1-.155.043-.273C6263.816,4341.415,6263.727,4341.173,6263.614,4340.911Zm2.375.526a.982.982,0,0,0,.008-1.963.982.982,0,1,0-.008,1.963Z" transform="translate(-79.409 -81.08)" fill="#969696"/>
    </g>
  </g>
</svg>
