<svg xmlns="http://www.w3.org/2000/svg" width="15.534" height="12.365" viewBox="0 0 15.534 12.365">
  <g id="Group_27104" data-name="Group 27104" transform="translate(-7488.999 -4745.574)">
    <path id="Path_98657" data-name="Path 98657" d="M7540.326,4797.216c.584.48,1.163.956,1.742,1.434q1.806,1.488,3.613,2.974a.446.446,0,0,1,.186.387c-.007,1.447,0,2.895,0,4.342,0,.488-.225.719-.705.72q-1.686,0-3.372,0c-.064,0-.128-.006-.222-.011v-3.673h-2.472v3.669c-.106.006-.185.015-.263.015q-1.661,0-3.323,0c-.514,0-.73-.222-.731-.743,0-1.447,0-2.9.007-4.342a.473.473,0,0,1,.144-.324q2.64-2.193,5.291-4.37C7540.247,4797.269,7540.28,4797.248,7540.326,4797.216Z" transform="translate(-43.554 -49.135)" fill="#fff"/>
    <path id="Path_98658" data-name="Path 98658" d="M7496.766,4747.228l-2.216,1.847-4.3,3.587c-.323.27-.44.258-.717-.073-.13-.155-.261-.309-.39-.464-.2-.245-.194-.39.05-.595q1.395-1.167,2.794-2.33l3.932-3.275a1.2,1.2,0,0,1,1.705.008l2.066,1.727c.036.03.075.058.145.11.008-.1.019-.165.019-.231,0-.509,0-1.019,0-1.528,0-.312.1-.407.408-.409.542,0,1.084,0,1.626,0,.324,0,.421.1.421.419,0,1.181.007,2.361,0,3.542a.531.531,0,0,0,.225.467c.6.488,1.2.987,1.793,1.485.269.225.276.358.051.629l-.4.483c-.237.281-.37.3-.646.066q-2.246-1.869-4.488-3.741Z" transform="translate(0)" fill="#fff"/>
  </g>
</svg>
