<svg xmlns="http://www.w3.org/2000/svg" width="23" height="23" viewBox="0 0 23 23">
  <g id="Group_27736" data-name="Group 27736" transform="translate(-1223 -1073.726)">
    <circle id="Ellipse_2437" data-name="Ellipse 2437" cx="11.5" cy="11.5" r="11.5" transform="translate(1223 1073.726)" fill="#34a759"/>
  </g>
  <path id="Path_99122" data-name="Path 99122" d="M-1189.17,1695.386h-.337q-5.44,0-10.881,0a1,1,0,0,1-1.052-1.033,1.012,1.012,0,0,1,.907-1.028c.1-.007.2,0,.293,0h11.063c-.086-.1-.138-.168-.2-.229-.523-.554-1.05-1.1-1.568-1.662a1.022,1.022,0,0,1-.237-1.069.953.953,0,0,1,.761-.682.871.871,0,0,1,.83.27c1.171,1.231,2.342,2.461,3.5,3.7a1.016,1.016,0,0,1,0,1.4q-1.738,1.865-3.5,3.7a.912.912,0,0,1-1.36-.021,1.05,1.05,0,0,1-.005-1.44c.513-.563,1.044-1.109,1.566-1.663C-1189.328,1695.567-1189.271,1695.5-1189.17,1695.386Z" transform="translate(-1682.856 -1181.617) rotate(-90)" fill="#fff"/>
</svg>
