<svg xmlns="http://www.w3.org/2000/svg" width="28.533" height="28.529" viewBox="0 0 28.533 28.529">
  <g id="Group_26596" data-name="Group 26596" transform="translate(-6955.985 -4318.226)">
    <path id="Path_97926" data-name="Path 97926" d="M6974.014,4369.442c-.169.182-.271.3-.381.41-2.3,2.3-4.591,4.607-6.9,6.893a4.266,4.266,0,0,0-1.132,1.825c-.311,1.02-.668,2.025-1,3.039a2.5,2.5,0,0,0,3.178,3.187c1.142-.368,2.29-.72,3.41-1.146a3.713,3.713,0,0,0,1.251-.808c2.381-2.343,4.734-4.714,7.1-7.076.111-.111.229-.215.415-.39v.516q0,7.083,0,14.167a3.114,3.114,0,0,1-3.368,3.35h-17.241a3.087,3.087,0,0,1-3.354-3.348q0-8.643,0-17.286a3.108,3.108,0,0,1,3.343-3.331q7.083,0,14.167,0Z" transform="translate(0 -46.653)" fill="#fff"/>
    <path id="Path_97927" data-name="Path 97927" d="M7081.731,4352.4l3.509,3.527c-.083.089-.187.209-.3.322q-4.907,4.909-9.824,9.811a2.5,2.5,0,0,1-.882.56c-1.014.369-2.047.686-3.072,1.029a.864.864,0,0,1-1.163-1.169c.364-1.079.718-2.163,1.089-3.239a1.412,1.412,0,0,1,.312-.526q5.12-5.136,10.254-10.259A.54.54,0,0,1,7081.731,4352.4Z" transform="translate(-103.776 -31.132)" fill="#fff"/>
    <path id="Path_97928" data-name="Path 97928" d="M7216.952,4319.974c.453-.453.907-.941,1.4-1.389a1.3,1.3,0,0,1,1.781-.01c.612.559,1.2,1.148,1.758,1.76a1.278,1.278,0,0,1,.027,1.713c-.461.515-.983.976-1.458,1.441Z" transform="translate(-237.715)" fill="#fff"/>
  </g>
</svg>
