<svg xmlns="http://www.w3.org/2000/svg" width="89" height="89" viewBox="0 0 89 89">
  <g id="Group_20017" data-name="Group 20017" transform="translate(-921 -296)">
    <circle id="Ellipse_1720" data-name="Ellipse 1720" cx="44.5" cy="44.5" r="44.5" transform="translate(921 296)" fill="#f6f6f6"/>
    <path id="Path_88577" data-name="Path 88577" d="M-710.9,547.781a30.7,30.7,0,0,1,18.128,3.969,29.222,29.222,0,0,1,10.6,10.669c.073.124.141.252.217.373a1.8,1.8,0,0,0,2.117.924,1.738,1.738,0,0,0,1.219-1.866,30.238,30.238,0,0,0-2.311-11.8c-4.876-11.481-13.5-18.3-25.792-20.45a20.75,20.75,0,0,0-3.182-.27c-.764-.014-1.035-.239-1.02-1.045.05-2.766.01-5.533.024-8.3,0-.887-.119-1.7-1.035-2.093a1.981,1.981,0,0,0-2.307.694q-9.353,9.105-18.726,18.19c-1.374,1.334-1.38,2.065-.021,3.386q9.426,9.155,18.851,18.31a1.909,1.909,0,0,0,2.175.613A1.852,1.852,0,0,0-710.9,557.1c-.012-2.8,0-5.591,0-8.385Z" transform="translate(1672.002 -200.246)" fill="#34a759"/>
  </g>
</svg>
