<svg xmlns="http://www.w3.org/2000/svg" width="28.766" height="28.765" viewBox="0 0 28.766 28.765">
  <g id="Group_27063" data-name="Group 27063" transform="translate(-5081.997 -3999.406)">
    <path id="Path_98569" data-name="Path 98569" d="M5099.976,4002.2c0-.636.006-1.218,0-1.8a.869.869,0,0,1,1.53-.677q2.686,2.422,5.373,4.843a.868.868,0,0,1-.006,1.485c-1.79,1.616-3.587,3.224-5.374,4.842a.9.9,0,0,1-1.026.227.871.871,0,0,1-.5-.924c.011-.581,0-1.163,0-1.786-1.212,0-2.4-.07-3.567.012a14.37,14.37,0,0,0-12,7.4c-.281.474-.5.989-.732,1.488-.25.525-.577.715-1.062.6-.4-.093-.614-.432-.617-.97a14.928,14.928,0,0,1,9.135-13.576,15.529,15.529,0,0,1,5.9-1.165C5097.993,4002.2,5098.951,4002.2,5099.976,4002.2Z" transform="translate(0 0)" fill="#fff"/>
    <path id="Path_98570" data-name="Path 98570" d="M5127.948,4128.945c0,.647,0,1.229,0,1.812a.864.864,0,0,1-1.5.684q-2.7-2.436-5.407-4.873a.858.858,0,0,1-.005-1.453c1.8-1.626,3.609-3.243,5.408-4.872a.89.89,0,0,1,1.026-.213.853.853,0,0,1,.484.886c-.009.6,0,1.19,0,1.781,7.126.665,13.235-2.076,16.269-8.791.263-.582.556-.774,1.059-.679.432.082.652.431.649,1.033A14.934,14.934,0,0,1,5135,4128.4a16.713,16.713,0,0,1-4.26.547C5129.829,4128.946,5128.918,4128.945,5127.948,4128.945Z" transform="translate(-35.163 -103.567)" fill="#fff"/>
  </g>
</svg>
