<svg xmlns="http://www.w3.org/2000/svg" width="10.408" height="10.408" viewBox="0 0 10.408 10.408">
  <path id="Path_98621" data-name="Path 98621" d="M6698.133,4999.034a2.394,2.394,0,0,1,.241.1c.262.153.522.308.778.47a.211.211,0,0,0,.237.008,3.817,3.817,0,0,1,.446-.19.219.219,0,0,0,.157-.18c.077-.342.164-.683.253-1.022a.308.308,0,0,1,.35-.269q.56,0,1.122,0a.308.308,0,0,1,.35.269c.09.34.176.68.253,1.022a.208.208,0,0,0,.157.179.752.752,0,0,1,.241.094.441.441,0,0,0,.58-.037c.184-.132.386-.239.582-.354a.327.327,0,0,1,.467.056q.393.388.781.781a.323.323,0,0,1,.054.467c-.153.261-.316.517-.465.781a.269.269,0,0,0-.009.188c.024.087.094.165.109.251.046.27.223.355.467.4.276.05.546.131.819.2a.31.31,0,0,1,.254.33c0,.385,0,.77,0,1.154a.3.3,0,0,1-.267.334c-.345.091-.692.169-1.036.263a.316.316,0,0,0-.155.134c-.041.062-.042.151-.085.209a.5.5,0,0,0,.053.665,5.727,5.727,0,0,1,.327.541.305.305,0,0,1-.051.427q-.4.412-.815.815a.311.311,0,0,1-.428.047c-.257-.149-.508-.31-.768-.454a.3.3,0,0,0-.2-.01c-.087.023-.164.094-.252.108-.283.047-.373.232-.416.489s-.125.536-.2.8a.3.3,0,0,1-.328.254q-.577.006-1.154,0a.3.3,0,0,1-.335-.267c-.091-.345-.169-.692-.263-1.036a.3.3,0,0,0-.133-.155c-.077-.047-.183-.051-.253-.1a.457.457,0,0,0-.61.041c-.167.12-.35.217-.527.319a.323.323,0,0,1-.466-.056q-.394-.388-.781-.781a.316.316,0,0,1-.058-.452c.146-.252.3-.5.445-.755a.256.256,0,0,0,.008-.188,3.585,3.585,0,0,0-.194-.462.284.284,0,0,0-.156-.133c-.344-.094-.692-.172-1.036-.263a.307.307,0,0,1-.267-.352q0-.56,0-1.122a.307.307,0,0,1,.271-.348c.339-.09.68-.176,1.022-.254a.2.2,0,0,0,.176-.16.365.365,0,0,1,.045-.121.534.534,0,0,0-.06-.7,6.136,6.136,0,0,1-.361-.6.321.321,0,0,1,.053-.44c.266-.271.532-.54.806-.8A1.139,1.139,0,0,1,6698.133,4999.034Zm5.16,4.085a2.134,2.134,0,1,0-2.106,2.169A2.131,2.131,0,0,0,6703.293,5003.119Z" transform="translate(-6695.953 -4997.953)" fill="#fff"/>
</svg>
