<svg xmlns="http://www.w3.org/2000/svg" width="82" height="82" viewBox="0 0 82 82">
  <g id="Group_27173" data-name="Group 27173" transform="translate(-1355 -137)">
    <circle id="Ellipse_2432" data-name="Ellipse 2432" cx="41" cy="41" r="41" transform="translate(1355 137)" fill="#f7f7f7"/>
    <g id="Group_27154" data-name="Group 27154" transform="translate(10 -27)">
      <circle id="Ellipse_2420" data-name="Ellipse 2420" cx="30" cy="30" r="30" transform="translate(1356 175)" fill="#34a759"/>
      <g id="Group_27153" data-name="Group 27153" transform="translate(1368.236 190.087)">
        <path id="Path_97906" data-name="Path 97906" d="M115.543,268.877a31.106,31.106,0,0,1-4.985,3.105l-.007,0c-3.094,1.628-6.477,3.109-8.1,3.861a1.43,1.43,0,0,1-1.71-.368L99.516,274l11.6-8.708.292,2.138a11.9,11.9,0,0,0,3.842-7.3,11.893,11.893,0,0,0-7.894,2.4l2.044.689-10.733,9.76L97.45,271.5a1.432,1.432,0,0,1-.041-1.748c1.042-1.455,3.127-4.491,5.3-7.219a.078.078,0,0,1,.012-.014,31.1,31.1,0,0,1,3.991-4.32,15.435,15.435,0,0,1,2.453-1.644h0c3.821-2.084,8.824-2.976,12.627-1.837.4,3.95-1.412,8.7-4.177,12.057h0A15.439,15.439,0,0,1,115.543,268.877Z" transform="translate(-86.328 -254.219)" fill="#fff"/>
        <path id="Path_97907" data-name="Path 97907" d="M100.362,262.248c.529-.39,1.364-1.689,1.972-2.017l.8-.619-5.686-.429L87.122,273.236l3.969-.814C91.85,271.687,97.105,264.651,100.362,262.248Z" transform="translate(-80.728 -256.996)" fill="#fff"/>
        <path id="Path_97908" data-name="Path 97908" d="M118.906,285.805c.482-.446,1.916-1.022,2.352-1.558l.758-.667-.647,5.665-15.743,7.5L107.17,293C108.036,292.392,115.934,288.552,118.906,285.805Z" transform="translate(-91.081 -270.646)" fill="#fff"/>
        <path id="Path_97909" data-name="Path 97909" d="M78.97,304.26l3.1-3.16-9.465,4.787,6.48-8.4L75.4,299.943a11.674,11.674,0,0,1,6.927-6.683l1.877,2.27-5.637,5.428,6.391-4.517,1.878,2.271A11.677,11.677,0,0,1,78.97,304.26Z" transform="translate(-72.607 -276.062)" fill="#fff"/>
      </g>
    </g>
  </g>
</svg>
