<svg xmlns="http://www.w3.org/2000/svg" width="23.247" height="23.248" viewBox="0 0 23.247 23.248">
  <path id="Path_98587" data-name="Path 98587" d="M6700.823,5000.368a5.217,5.217,0,0,1,.538.234c.584.342,1.166.688,1.738,1.048a.469.469,0,0,0,.53.018,8.421,8.421,0,0,1,1-.425.486.486,0,0,0,.35-.4c.172-.765.366-1.525.566-2.284a.686.686,0,0,1,.781-.6q1.252-.01,2.5,0a.688.688,0,0,1,.782.6c.2.758.394,1.519.566,2.283a.463.463,0,0,0,.351.4,1.711,1.711,0,0,1,.538.208.983.983,0,0,0,1.3-.082c.411-.295.862-.535,1.3-.792a.727.727,0,0,1,1.043.124q.879.866,1.745,1.745a.722.722,0,0,1,.121,1.042c-.344.583-.707,1.155-1.039,1.745a.608.608,0,0,0-.02.421c.055.195.209.367.243.562.1.6.5.793,1.043.89.616.11,1.22.291,1.829.442a.691.691,0,0,1,.568.737c0,.859.007,1.718,0,2.578a.675.675,0,0,1-.6.748c-.77.2-1.547.378-2.315.588a.711.711,0,0,0-.347.3c-.091.137-.092.336-.189.466a1.115,1.115,0,0,0,.118,1.486,12.864,12.864,0,0,1,.732,1.208.683.683,0,0,1-.115.953q-.9.92-1.821,1.822a.7.7,0,0,1-.956.1c-.575-.333-1.136-.692-1.716-1.015a.673.673,0,0,0-.455-.021c-.2.051-.367.209-.562.242-.633.105-.834.519-.93,1.093-.1.6-.278,1.2-.437,1.792a.67.67,0,0,1-.734.568q-1.289.013-2.578,0a.676.676,0,0,1-.748-.6c-.2-.77-.377-1.547-.587-2.315a.679.679,0,0,0-.3-.347c-.172-.1-.409-.113-.566-.231a1.024,1.024,0,0,0-1.363.091,13.551,13.551,0,0,1-1.177.714.723.723,0,0,1-1.041-.124q-.879-.867-1.745-1.745a.707.707,0,0,1-.129-1.009c.328-.564.677-1.116.995-1.686a.577.577,0,0,0,.018-.421,7.945,7.945,0,0,0-.434-1.033.632.632,0,0,0-.348-.3c-.768-.21-1.545-.385-2.315-.588a.687.687,0,0,1-.6-.786q-.009-1.252,0-2.5a.686.686,0,0,1,.605-.777c.758-.2,1.519-.394,2.283-.567a.449.449,0,0,0,.393-.357.781.781,0,0,1,.1-.27,1.194,1.194,0,0,0-.133-1.561,13.693,13.693,0,0,1-.806-1.333.717.717,0,0,1,.117-.985c.594-.6,1.189-1.206,1.8-1.793A2.617,2.617,0,0,1,6700.823,5000.368Zm11.524,9.124a4.766,4.766,0,1,0-4.7,4.846A4.759,4.759,0,0,0,6712.347,5009.492Z" transform="translate(-6695.953 -4997.953)" fill="#08638f"/>
</svg>
