<svg xmlns="http://www.w3.org/2000/svg" width="89" height="89" viewBox="0 0 89 89">
  <g id="Group_27461" data-name="Group 27461" transform="translate(-896 -298)">
    <g id="Group_20017" data-name="Group 20017" transform="translate(-25 2)">
      <circle id="Ellipse_1720" data-name="Ellipse 1720" cx="44.5" cy="44.5" r="44.5" transform="translate(921 296)" fill="#f6f6f6"/>
    </g>
    <g id="Group_26750" data-name="Group 26750" transform="translate(-28.547 -1098.658)">
      <path id="Path_88553" data-name="Path 88553" d="M984.838,1559.586c-.355-.391-.54-.611-.742-.813-1.5-1.5-3-3-4.5-4.5-1.167-1.178-1.261-2.6-.26-3.633a2.485,2.485,0,0,1,3.7.2q4.674,4.649,9.324,9.321a2.446,2.446,0,0,1-.02,3.77q-4.682,4.7-9.392,9.38a2.434,2.434,0,1,1-3.382-3.468c1.493-1.507,3-3,4.5-4.5.226-.227.444-.463.84-.877H948.428c-.3,0-.606,0-.909,0-1.7-.017-2.788-.978-2.781-2.45s1.1-2.42,2.812-2.421q13.458-.011,26.916,0h10.373Z" transform="translate(0 -108.954)" fill="#34a759"/>
      <path id="Path_88554" data-name="Path 88554" d="M953.369,1426.429h36.086c.273,0,.546,0,.818,0,1.756.009,2.88.97,2.871,2.452s-1.118,2.421-2.905,2.422q-14,.007-28,0-4,0-8,0c-.29,0-.579.027-1.045.051.311.341.5.561.7.765,1.518,1.523,3.045,3.04,4.559,4.568a2.436,2.436,0,1,1-3.411,3.435q-4.7-4.681-9.386-9.383a2.436,2.436,0,0,1-.007-3.767q4.677-4.708,9.383-9.386a2.433,2.433,0,1,1,3.391,3.457q-2.234,2.266-4.5,4.5a5.275,5.275,0,0,1-.812.551Z" transform="translate(-0.018)" fill="#34a759"/>
    </g>
  </g>
</svg>
