<svg xmlns="http://www.w3.org/2000/svg" width="53" height="53" viewBox="0 0 53 53">
  <g id="Group_27541" data-name="Group 27541" transform="translate(-268 -457)">
    <circle id="Ellipse_2476" data-name="Ellipse 2476" cx="26.5" cy="26.5" r="26.5" transform="translate(268 457)" fill="#34a759"/>
    <path id="Path_98901" data-name="Path 98901" d="M5125.375,4289.016h.62c3.6,0,7.192.006,10.788,0a3.638,3.638,0,0,0,3.655-2.65,4.132,4.132,0,0,0,.159-1.126q.016-7.854.007-15.709c0-.114-.017-.227-.027-.367h-1.318v.582c0,5.12-.008,10.242.006,15.362a2.339,2.339,0,0,1-1.437,2.383,2.508,2.508,0,0,1-.968.173q-5.867.016-11.731,0a2.267,2.267,0,0,1-2.419-2.434c-.011-3.381,0-6.762,0-10.142v-.668c-.5,0-.978,0-1.449,0a2.312,2.312,0,0,1-2.526-2.488q-.015-3.158,0-6.314a2.274,2.274,0,0,1,2.45-2.454q11.783-.01,23.565,0a2.284,2.284,0,0,1,2.466,2.488q.015,3.132,0,6.264a2.315,2.315,0,0,1-2.511,2.5c-.463,0-.926,0-1.464,0v.6c0,4.177.006,8.353,0,12.528a3.884,3.884,0,0,1-2.777,3.91,4.549,4.549,0,0,1-1.32.178q-5.643.019-11.285,0A2.317,2.317,0,0,1,5125.375,4289.016Zm-2.7-19.839c-.225-.044-.423-.066-.609-.123a.972.972,0,0,1,.168-1.9,3.348,3.348,0,0,1,.4-.015h20.679a3.356,3.356,0,0,1,.4.015.964.964,0,0,1,.8,1.276c-.19.606-.706.677-1.248.732v3.207c.057.025.085.049.114.049.4.007.795.013,1.192.012.617,0,.649-.031.65-.646q0-2.931,0-5.864c0-.766,0-.767-.771-.767h-22.965c-.1,0-.2.006-.3,0-.341-.022-.477.137-.472.474.012.729,0,1.458,0,2.187v4.076c0,.261.006.527.357.535.525.013,1.051,0,1.6,0Zm4.624,5.875a1.849,1.849,0,0,1-.187.041c-.71.067-1.085.394-1.1.959s.388.928,1.1,1.046a.784.784,0,0,1,.46.393,2.385,2.385,0,0,0,2.326,1.3,2.3,2.3,0,0,0,2.015-1.848,6.091,6.091,0,0,0,.063-1.036c0-.261-.009-.543.347-.533s.334.3.334.554c0,.612-.008,1.224,0,1.837a.952.952,0,0,0,.938,1.051.98.98,0,0,0,1.039-1.021c.017-.225,0-.453,0-.683.159-.017.259-.021.355-.037a1.014,1.014,0,0,0,.958-1.014.954.954,0,0,0-1.046-.948c-.341,0-.4-.2-.512-.425a2.207,2.207,0,0,0-2.155-1.318,2.159,2.159,0,0,0-2.081,1.5,5.5,5.5,0,0,0-.167,1.267c-.028.263.1.647-.322.651-.448,0-.35-.4-.354-.678-.011-.6.009-1.192-.011-1.788a.949.949,0,0,0-.906-.986.962.962,0,0,0-1.041.853A8.028,8.028,0,0,0,5127.3,4275.052Z" transform="translate(-4839.22 -3793.656)" fill="#fff"/>
  </g>
</svg>
