<svg xmlns="http://www.w3.org/2000/svg" width="80" height="80" viewBox="0 0 80 80">
  <g id="Group_27399" data-name="Group 27399" transform="translate(-4290.419 2036.867)">
    <circle id="Ellipse_2461" data-name="Ellipse 2461" cx="40" cy="40" r="40" transform="translate(4290.419 -2036.867)" fill="#f2f2f2"/>
    <g id="Group_27294" data-name="Group 27294" transform="translate(-2797.914 -6833.194)">
      <path id="Path_97892" data-name="Path 97892" d="M7121.571,4835.454c-1.323-1.192-2.583-2.345-3.865-3.475a12.942,12.942,0,0,1-4.509-7.642,48.116,48.116,0,0,1-.334-6.062,1.329,1.329,0,0,0-.523-1.158,4.038,4.038,0,0,1-1.34-4.051c.043-.3.5-.579.818-.776.178-.109.473-.036.714-.036h31.607c1.359,0,1.583.243,1.6,1.6a4.1,4.1,0,0,1-1.558,3.424,1.283,1.283,0,0,0-.349.851c-.089,1.831.007,3.684-.226,5.5a13.226,13.226,0,0,1-4.646,8.352c-1.279,1.131-2.54,2.284-3.863,3.475,1.323,1.191,2.584,2.345,3.865,3.475a12.945,12.945,0,0,1,4.51,7.642,47.906,47.906,0,0,1,.333,6.061,1.332,1.332,0,0,0,.523,1.158,4.039,4.039,0,0,1,1.341,4.051c-.043.3-.5.578-.819.775-.178.11-.471.037-.713.037h-31.606c-1.361,0-1.584-.243-1.6-1.6a4.1,4.1,0,0,1,1.556-3.425,1.268,1.268,0,0,0,.349-.85c.089-1.831-.007-3.684.226-5.5a13.23,13.23,0,0,1,4.646-8.352C7118.987,4837.8,7120.248,4836.645,7121.571,4835.454Zm18.363,17.4c0-1.121-.007-2.155,0-3.189a9.821,9.821,0,0,0-3.442-7.742c-1.767-1.574-3.517-3.167-5.277-4.749a2.033,2.033,0,0,1,0-3.433c1.8-1.614,3.575-3.249,5.39-4.843,3.34-2.932,3.588-6.772,3.255-10.8h-23.122c0,1.088,0,2.145,0,3.2a9.8,9.8,0,0,0,3.421,7.677c1.784,1.593,3.554,3.2,5.331,4.8a2.02,2.02,0,0,1-.012,3.385c-1.633,1.47-3.208,3.013-4.91,4.4-3.661,2.975-4.179,6.94-3.736,11.3.52,0,1.05-.031,1.572.011a1.214,1.214,0,0,0,1.2-.579c2.526-3.417,5.087-6.806,7.635-10.206.8-1.07,1.4-1.077,2.189-.021q3.867,5.156,7.745,10.3a1.2,1.2,0,0,0,.715.468A20.3,20.3,0,0,0,7139.934,4852.85Z" transform="translate(-0.002)" fill="#08638f"/>
      <path id="Path_97893" data-name="Path 97893" d="M7193.551,4906.725a2.928,2.928,0,0,1-.455.688q-3.149,2.941-6.335,5.848c-.663.606-1.01.6-1.69-.023-2.1-1.922-4.192-3.859-6.291-5.787-.367-.336-.67-.773-.374-1.2a1.578,1.578,0,0,1,1.091-.631c4.3-.043,8.6-.034,12.9-.021A1.04,1.04,0,0,1,7193.551,4906.725Z" transform="translate(-57.595 -79.824)" fill="#08638f"/>
    </g>
  </g>
</svg>
