<svg xmlns="http://www.w3.org/2000/svg" width="29" height="29" viewBox="0 0 29 29">
  <g id="Group_27737" data-name="Group 27737" transform="translate(-720 -751)">
    <g id="Group_27736" data-name="Group 27736">
      <circle id="Ellipse_1722" data-name="Ellipse 1722" cx="14.5" cy="14.5" r="14.5" transform="translate(720 751)" fill="#e1e1e1"/>
    </g>
    <g id="Group_14711" data-name="Group 14711" transform="translate(348.75 591.373)">
      <path id="Path_64264" data-name="Path 64264" d="M385.75,164a5.27,5.27,0,0,0-5.459,5.046v2.882a.137.137,0,0,1-.078.1c-.3.091-.535.17-.754.248a.7.7,0,0,0-.459.624v6.622a.706.706,0,0,0,.456.624,18.387,18.387,0,0,0,12.588,0,.706.706,0,0,0,.456-.624V172.9a.7.7,0,0,0-.459-.624c-.219-.078-.459-.157-.754-.248a.137.137,0,0,1-.078-.1v-2.882A5.271,5.271,0,0,0,385.75,164Zm-1.487,10.914a1.491,1.491,0,0,1,2.974,0,1.342,1.342,0,0,1-.743,1.164v2.272a.746.746,0,0,1-1.487,0v-2.272a1.342,1.342,0,0,1-.743-1.164Zm5.068-5.869v2.486a18.4,18.4,0,0,0-7.163,0v-2.486a3.593,3.593,0,0,1,7.163,0Zm0,0" transform="translate(0 0)" fill="#34a759"/>
    </g>
  </g>
</svg>
