<svg xmlns="http://www.w3.org/2000/svg" width="89" height="89" viewBox="0 0 89 89">
  <g id="Group_27463" data-name="Group 27463" transform="translate(-896 -298)">
    <g id="Group_20017" data-name="Group 20017" transform="translate(-25 2)">
      <circle id="Ellipse_1720" data-name="Ellipse 1720" cx="44.5" cy="44.5" r="44.5" transform="translate(921 296)" fill="#f6f6f6"/>
    </g>
    <g id="Group_19919" data-name="Group 19919" transform="translate(-406.663 -899.658)">
      <path id="Path_88555" data-name="Path 88555" d="M1330.5,1437.616h.737c1.8,0,3.6-.008,5.406,0a1.557,1.557,0,1,1-.034,3.088q-4.921.007-9.842,0a1.583,1.583,0,0,1-1.786-1.794q-.008-4.921,0-9.842a1.558,1.558,0,1,1,3.09-.015c.012,1.8,0,3.6,0,5.406v.914c.3-.272.464-.413.617-.567q4.681-4.679,9.367-9.353a2.725,2.725,0,0,1,1.02-.667,1.454,1.454,0,0,1,1.667.692,1.543,1.543,0,0,1-.273,1.906q-2.433,2.468-4.895,4.906-2.574,2.564-5.159,5.118Z" transform="translate(0 -176.368)" fill="#34a759"/>
      <path id="Path_88556" data-name="Path 88556" d="M1540.45,1437.577c-.3-.32-.453-.49-.613-.65-3.119-3.122-6.246-6.235-9.348-9.373a2.565,2.565,0,0,1-.657-1.165,1.321,1.321,0,0,1,.755-1.5,1.453,1.453,0,0,1,1.688.137,9.681,9.681,0,0,1,.8.764q4.485,4.483,8.969,8.968c.157.157.325.3.629.586v-.9c0-1.871-.012-3.743.013-5.614a1.488,1.488,0,0,1,1.323-1.532,1.508,1.508,0,0,1,1.673,1.043,2.316,2.316,0,0,1,.083.682q.008,4.956,0,9.912a1.567,1.567,0,0,1-1.769,1.74q-4.921.008-9.842,0a1.572,1.572,0,0,1-1.785-1.512c-.022-.944.677-1.572,1.792-1.579,1.779-.01,3.557,0,5.337,0Z" transform="translate(-176.423 -176.331)" fill="#34a759"/>
      <path id="Path_88557" data-name="Path 88557" d="M1328.076,1225.3c0,.417,0,.658,0,.9,0,1.87.013,3.741-.012,5.611a1.536,1.536,0,0,1-2.991.512,2.219,2.219,0,0,1-.088-.68q-.009-4.953,0-9.907a1.566,1.566,0,0,1,1.749-1.758q4.954-.011,9.907,0a1.556,1.556,0,1,1-.021,3.087c-1.8.011-3.6,0-5.4,0h-.906c.282.3.426.472.582.627q4.455,4.46,8.912,8.917a5.218,5.218,0,0,1,.562.61,1.53,1.53,0,0,1-2.126,2.14,5.028,5.028,0,0,1-.613-.559q-4.46-4.455-8.917-8.913C1328.552,1225.735,1328.385,1225.588,1328.076,1225.3Z" transform="translate(-0.003 -0.002)" fill="#34a759"/>
      <path id="Path_88558" data-name="Path 88558" d="M1542.318,1223.068h-.939c-1.824,0-3.648.011-5.472-.007a1.548,1.548,0,1,1,.039-3.085q4.986-.011,9.975,0a1.556,1.556,0,0,1,1.719,1.719q.012,4.988,0,9.975a1.548,1.548,0,1,1-3.084.039c-.018-1.824-.006-3.648-.007-5.473v-.92c-.29.26-.456.4-.606.546q-4.46,4.454-8.917,8.912c-.131.131-.257.266-.395.39a1.558,1.558,0,0,1-2.233.005,1.533,1.533,0,0,1,.057-2.181c1.256-1.291,2.54-2.554,3.813-3.828q2.742-2.744,5.485-5.487C1541.9,1223.53,1542.033,1223.375,1542.318,1223.068Z" transform="translate(-178.296 0)" fill="#34a759"/>
    </g>
  </g>
</svg>
