<svg xmlns="http://www.w3.org/2000/svg" width="14.509" height="14.509" viewBox="0 0 14.509 14.509">
  <g id="Group_17512" data-name="Group 17512" transform="translate(0 0)">
    <path id="Path_87921" data-name="Path 87921" d="M1781.683,741.463q-1.79,0-3.58,0a3.621,3.621,0,0,1-3.663-3.666q0-3.591,0-7.182a3.619,3.619,0,0,1,3.649-3.657q3.6,0,7.2,0a3.618,3.618,0,0,1,3.651,3.654q0,3.591,0,7.182a3.62,3.62,0,0,1-3.66,3.669Q1783.484,741.466,1781.683,741.463Zm6.056-7.247c0-1.171,0-2.342,0-3.513a2.422,2.422,0,0,0-2.536-2.538q-3.5,0-7,0a2.423,2.423,0,0,0-2.55,2.548q0,3.5,0,7a2.422,2.422,0,0,0,2.536,2.539q3.5,0,7,0a2.424,2.424,0,0,0,2.55-2.548C1787.741,736.543,1787.739,735.38,1787.739,734.216Z" transform="translate(-1774.438 -726.955)" fill="#fff"/>
    <path id="Path_87922" data-name="Path 87922" d="M1858.111,806.967c1,0,1.994,0,2.99,0a.6.6,0,0,1,.569.879.576.576,0,0,1-.533.324c-.332,0-.665,0-1,0h-4.825c-.09,0-.182,0-.272-.006a.6.6,0,0,1-.557-.624.6.6,0,0,1,.611-.574c.717-.006,1.435,0,2.152,0Z" transform="translate(-1850.857 -803.339)" fill="#fff"/>
    <path id="Path_87923" data-name="Path 87923" d="M1858.028,940.354c.951,0,1.9,0,2.854,0a1.223,1.223,0,0,1,.358.04.593.593,0,0,1,.39.623.612.612,0,0,1-.53.538,1.13,1.13,0,0,1-.136,0q-2.957,0-5.913,0a.606.606,0,0,1-.607-.87.621.621,0,0,1,.617-.338C1856.049,940.356,1857.039,940.354,1858.028,940.354Z" transform="translate(-1850.752 -930.68)" fill="#fff"/>
    <path id="Path_87924" data-name="Path 87924" d="M1858.118,873.566q1.428,0,2.855,0a1.4,1.4,0,0,1,.314.027.6.6,0,0,1,.009,1.158,1.425,1.425,0,0,1-.337.03q-2.843,0-5.686,0h-.045c-.463,0-.74-.235-.736-.615s.277-.6.726-.6Q1856.668,873.564,1858.118,873.566Z" transform="translate(-1850.863 -866.92)" fill="#fff"/>
  </g>
</svg>
