<svg xmlns="http://www.w3.org/2000/svg" width="19.479" height="16.198" viewBox="0 0 19.479 16.198">
  <path id="Path_88575" data-name="Path 88575" d="M-725.878,528.306a10.8,10.8,0,0,1,6.376,1.4,10.279,10.279,0,0,1,3.729,3.752c.026.044.05.089.077.131a.633.633,0,0,0,.745.325.611.611,0,0,0,.429-.656,10.634,10.634,0,0,0-.813-4.149,11.446,11.446,0,0,0-9.071-7.193,7.28,7.28,0,0,0-1.119-.095c-.269-.005-.364-.084-.359-.367.018-.973,0-1.946.008-2.919,0-.312-.042-.6-.364-.736a.7.7,0,0,0-.811.244q-3.29,3.2-6.586,6.4c-.483.469-.485.726-.007,1.191q3.315,3.22,6.63,6.44a.671.671,0,0,0,.765.215.651.651,0,0,0,.374-.7c0-.983,0-1.966,0-2.949Z" transform="translate(734.002 -517.741)" fill="#fff"/>
</svg>
