<svg xmlns="http://www.w3.org/2000/svg" width="26" height="26" viewBox="0 0 26 26">
  <path id="Path_98526" data-name="Path 98526" d="M7934.987,4872.347a13,13,0,1,1-12.993,13.018A12.992,12.992,0,0,1,7934.987,4872.347Zm-1.48,13.014c-.175.15-.3.24-.4.345q-1.682,1.677-3.359,3.357a1.147,1.147,0,0,0-.413,1.046,1.036,1.036,0,0,0,.721.853,1.078,1.078,0,0,0,1.179-.323q1.723-1.722,3.44-3.449a1.547,1.547,0,0,0,.209-.4,3.547,3.547,0,0,1,.435.41c1.127,1.131,2.259,2.257,3.384,3.39a1.163,1.163,0,0,0,1.045.42,1.034,1.034,0,0,0,.859-.712,1.076,1.076,0,0,0-.313-1.182l-3.443-3.445c-.1-.1-.2-.212-.305-.328.111-.117.2-.216.3-.311q1.665-1.666,3.33-3.33c.6-.6.668-1.218.19-1.705s-1.114-.433-1.734.186q-1.551,1.549-3.1,3.1c-.169.17-.308.373-.471.574-.187-.179-.3-.277-.4-.381-1.149-1.147-2.292-2.3-3.448-3.441a1.081,1.081,0,1,0-1.528,1.524c.422.439.858.864,1.29,1.293C7931.8,4883.673,7932.625,4884.489,7933.507,4885.361Z" transform="translate(-7921.994 -4872.347)" fill="#34a759"/>
</svg>
