<svg xmlns="http://www.w3.org/2000/svg" width="26.64" height="26.638" viewBox="0 0 26.64 26.638">
  <g id="Group_27683" data-name="Group 27683" transform="translate(-944.956 -248.016)">
    <path id="Path_88581" data-name="Path 88581" d="M950.422,250.095c0-.357-.01-.66,0-.962a1.041,1.041,0,1,1,2.076,0c.014.3,0,.6,0,.935h4.681c0-.3-.006-.6,0-.9a1.047,1.047,0,1,1,2.082.01c.031.916.031.916.955.916H964c0-.348,0-.65,0-.952a1.044,1.044,0,1,1,2.08.016c.005.29,0,.581,0,.936.433,0,.843,0,1.254,0a4.174,4.174,0,0,1,4.217,3.565,3.689,3.689,0,0,1,.039.621q0,2.871,0,5.742a1.051,1.051,0,1,1-2.081.012c0-1.845,0-3.689,0-5.534a2.12,2.12,0,0,0-2.323-2.324c-.345,0-.69,0-1.1,0,0,.322,0,.62,0,.918A1.046,1.046,0,1,1,964,253.1c0-.289,0-.577,0-.9-.17-.01-.3-.025-.437-.025-1.276,0-2.552.017-3.828-.011-.4-.009-.512.134-.473.5a3.078,3.078,0,0,1,0,.54,1.036,1.036,0,1,1-2.072-.007c-.016-.316,0-.633,0-.985h-4.681c0,.276,0,.535,0,.794-.012.775-.4,1.243-1.035,1.247s-1.037-.464-1.049-1.232c0-.261,0-.522,0-.891a13.774,13.774,0,0,0-1.962.182,1.96,1.96,0,0,0-1.406,1.824c-.021.373-.011.749-.011,1.123q0,7.448,0,14.9a2.142,2.142,0,0,0,2.4,2.413h7.281c.139,0,.278-.005.416.006a1.03,1.03,0,0,1,.973,1.048,1.017,1.017,0,0,1-1,1.022c-.818.018-1.636.006-2.455.007-1.817,0-3.634,0-5.451,0a4.156,4.156,0,0,1-4.249-4.232q-.01-8.051,0-16.1a4.157,4.157,0,0,1,4.221-4.22C949.57,250.092,949.957,250.095,950.422,250.095Z" transform="translate(0 0)" fill="#9f9aa5"/>
    <path id="Path_88582" data-name="Path 88582" d="M1126.382,423.1a6.293,6.293,0,1,1-6.293-6.3A6.312,6.312,0,0,1,1126.382,423.1Zm-2.084-.012a4.209,4.209,0,1,0-4.21,4.211A4.217,4.217,0,0,0,1124.3,423.085Z" transform="translate(-154.787 -154.73)" fill="#9f9aa5"/>
    <path id="Path_88583" data-name="Path 88583" d="M1174.874,366.823a1.042,1.042,0,0,1,1.024,1.04,1.056,1.056,0,0,1-1.076,1.034,1.043,1.043,0,0,1-1-1.065A1.031,1.031,0,0,1,1174.874,366.823Z" transform="translate(-209.818 -108.918)" fill="#9f9aa5"/>
    <path id="Path_88584" data-name="Path 88584" d="M1067.108,367.879a1.038,1.038,0,1,1-1.009-1.052A1.048,1.048,0,0,1,1067.108,367.879Z" transform="translate(-110.082 -108.922)" fill="#9f9aa5"/>
    <path id="Path_88585" data-name="Path 88585" d="M1011.769,366.827a1.02,1.02,0,0,1,1.038,1.015,1.03,1.03,0,1,1-2.059.018A1.023,1.023,0,0,1,1011.769,366.827Z" transform="translate(-60.316 -108.922)" fill="#9f9aa5"/>
    <path id="Path_88586" data-name="Path 88586" d="M1120.55,368.9a1.035,1.035,0,0,1-1.041-1.018,1.03,1.03,0,1,1,2.059-.023A1.035,1.035,0,0,1,1120.55,368.9Z" transform="translate(-160.025 -108.918)" fill="#9f9aa5"/>
    <path id="Path_88587" data-name="Path 88587" d="M1067.106,422.258a1.038,1.038,0,1,1-1.03-1.029A1.035,1.035,0,0,1,1067.106,422.258Z" transform="translate(-110.08 -158.796)" fill="#9f9aa5"/>
    <path id="Path_88588" data-name="Path 88588" d="M1067.111,476.6a1.037,1.037,0,1,1-1.035-1.027A1.038,1.038,0,0,1,1067.111,476.6Z" transform="translate(-110.085 -208.614)" fill="#9f9aa5"/>
    <path id="Path_88589" data-name="Path 88589" d="M1011.753,421.227a1.032,1.032,0,1,1-1.015,1.038A1.02,1.02,0,0,1,1011.753,421.227Z" transform="translate(-60.306 -158.794)" fill="#9f9aa5"/>
    <path id="Path_88590" data-name="Path 88590" d="M1012.8,476.612a1.031,1.031,0,1,1-1.006-1.049A1.025,1.025,0,0,1,1012.8,476.612Z" transform="translate(-60.306 -208.607)" fill="#9f9aa5"/>
    <path id="Path_88591" data-name="Path 88591" d="M1176.847,456.323c0-.346-.017-.693,0-1.037a1.034,1.034,0,0,1,2.069-.009c.007.082,0,.166.008.249.009.248-.062.548.054.726.088.135.415.114.635.163a1.034,1.034,0,0,1,.814,1.018.963.963,0,0,1-.835.986,12.027,12.027,0,0,1-1.9,0,.94.94,0,0,1-.842-.978C1176.831,457.071,1176.848,456.7,1176.847,456.323Z" transform="translate(-212.584 -189.068)" fill="#9f9aa5"/>
  </g>
</svg>
