<svg xmlns="http://www.w3.org/2000/svg" width="17.688" height="17.689" viewBox="0 0 17.688 17.689">
  <g id="Group_20005" data-name="Group 20005" transform="translate(0 0.001)">
    <path id="Path_88555" data-name="Path 88555" d="M1327.178,1429.865h.294c.718,0,1.437,0,2.155,0a.62.62,0,1,1-.014,1.231q-1.962,0-3.923,0a.631.631,0,0,1-.712-.715q0-1.962,0-3.923a.621.621,0,1,1,1.232-.006c0,.718,0,1.437,0,2.155v.364c.119-.109.185-.165.246-.226q1.865-1.865,3.734-3.728a1.08,1.08,0,0,1,.406-.266.579.579,0,0,1,.664.276.615.615,0,0,1-.109.76q-.97.984-1.951,1.956-1.026,1.022-2.056,2.04Z" transform="translate(-1324.976 -1413.411)" fill="#fff"/>
    <path id="Path_88556" data-name="Path 88556" d="M1534.044,1429.824c-.12-.128-.18-.2-.244-.259-1.243-1.245-2.49-2.486-3.727-3.736a1.024,1.024,0,0,1-.262-.464.526.526,0,0,1,.3-.6.579.579,0,0,1,.673.054,3.842,3.842,0,0,1,.32.3l3.575,3.575c.063.063.129.121.251.234v-.361c0-.746-.005-1.492,0-2.238a.593.593,0,0,1,.527-.611.6.6,0,0,1,.667.416.917.917,0,0,1,.033.272q0,1.976,0,3.951a.625.625,0,0,1-.706.693q-1.961,0-3.923,0a.627.627,0,0,1-.712-.6c-.009-.376.27-.627.714-.629.709,0,1.418,0,2.128,0Z" transform="translate(-1518.477 -1413.37)" fill="#fff"/>
    <path id="Path_88557" data-name="Path 88557" d="M1326.214,1222.1c0,.166,0,.262,0,.359,0,.745,0,1.491,0,2.237a.593.593,0,0,1-.523.614.6.6,0,0,1-.669-.41.887.887,0,0,1-.035-.271q0-1.975,0-3.949a.624.624,0,0,1,.7-.7q1.975,0,3.949,0a.62.62,0,1,1-.009,1.231c-.718,0-1.436,0-2.154,0h-.361c.112.121.17.188.232.25q1.776,1.778,3.553,3.555a2.035,2.035,0,0,1,.224.243.61.61,0,0,1-.847.853,2.036,2.036,0,0,1-.244-.223l-3.554-3.553C1326.4,1222.27,1326.337,1222.211,1326.214,1222.1Z" transform="translate(-1324.98 -1219.973)" fill="#fff"/>
    <path id="Path_88558" data-name="Path 88558" d="M1536.1,1221.206h-.374c-.727,0-1.454,0-2.181,0a.617.617,0,1,1,.016-1.229q1.988,0,3.976,0a.62.62,0,0,1,.685.685q0,1.988,0,3.977a.617.617,0,1,1-1.229.015c-.007-.727,0-1.454,0-2.182v-.367c-.115.1-.181.158-.242.218l-3.554,3.553c-.052.052-.1.106-.157.155a.621.621,0,0,1-.89,0,.611.611,0,0,1,.023-.869c.5-.515,1.012-1.018,1.52-1.526l2.187-2.187C1535.928,1221.39,1535.982,1221.328,1536.1,1221.206Z" transform="translate(-1520.53 -1219.971)" fill="#fff"/>
  </g>
</svg>
