<svg id="Group_20004" data-name="Group 20004" xmlns="http://www.w3.org/2000/svg" width="17.965" height="17.959" viewBox="0 0 17.965 17.959">
  <path id="Path_88553" data-name="Path 88553" d="M959.591,1553.49c-.132-.145-.2-.226-.275-.3-.555-.557-1.113-1.11-1.666-1.668a.908.908,0,0,1-.1-1.345.92.92,0,0,1,1.37.075q1.731,1.722,3.454,3.452a.906.906,0,0,1-.007,1.4q-1.734,1.743-3.479,3.474a.9.9,0,1,1-1.253-1.285c.553-.558,1.111-1.112,1.666-1.668.084-.084.164-.172.311-.325H945.768a.911.911,0,1,1,.011-1.8q4.985,0,9.97,0h3.842Z" transform="translate(-944.738 -1540.932)" fill="#fff"/>
  <path id="Path_88554" data-name="Path 88554" d="M947.949,1420.321h13.669c.65,0,1.067.359,1.063.908s-.414.9-1.076.9q-5.186,0-10.371,0h-2.963c-.107,0-.215.01-.387.019.115.126.184.208.259.283.562.564,1.128,1.126,1.689,1.692a.9.9,0,1,1-1.263,1.272q-1.742-1.734-3.477-3.475a.9.9,0,0,1,0-1.4q1.732-1.744,3.475-3.477a.9.9,0,1,1,1.256,1.28q-.827.839-1.667,1.666a1.963,1.963,0,0,1-.3.2Z" transform="translate(-944.759 -1416.727)" fill="#fff"/>
</svg>
