<svg xmlns="http://www.w3.org/2000/svg" width="26.456" height="30.13" viewBox="0 0 26.456 30.13">
  <g id="Group_26814" data-name="Group 26814" transform="translate(-1927.641 -808.744)">
    <path id="Path_64300" data-name="Path 64300" d="M1940.8,971.207h-11.939c-.981,0-1.259-.291-1.217-1.269a11.422,11.422,0,0,1,9.542-11.008,35.9,35.9,0,0,1,5.393-.193,10.872,10.872,0,0,1,4.239.8,11.621,11.621,0,0,1,7.278,10.59c.005.769-.311,1.078-1.122,1.078Q1946.888,971.208,1940.8,971.207Z" transform="translate(0 -132.333)" fill="#34a759"/>
    <path id="Path_64301" data-name="Path 64301" d="M1988.429,816.707a7.939,7.939,0,1,1-7.831-7.963A7.942,7.942,0,0,1,1988.429,816.707Z" transform="translate(-39.623 0)" fill="#34a759"/>
  </g>
</svg>
