<svg xmlns="http://www.w3.org/2000/svg" width="16" height="18.359" viewBox="0 0 16 18.359">
  <path id="Path_81835" data-name="Path 81835" d="M1153.451,423.7c0-.665,0-1.309,0-1.953a1.249,1.249,0,0,1,.079-.3.913.913,0,0,1,.285.085q2.132,1.555,4.255,3.122a1.654,1.654,0,0,1,.174.182,3.527,3.527,0,0,1-.264.239q-2.038,1.5-4.08,3a1.8,1.8,0,0,1-.344.155,1.675,1.675,0,0,1-.1-.39c-.011-.619,0-1.239,0-1.887a5.528,5.528,0,0,0-1.99.382,5.826,5.826,0,1,0,7.8,6.58c.023-.117.042-.236.075-.351a1.122,1.122,0,0,1,1.219-.788,1.013,1.013,0,0,1,.925,1.126,10.343,10.343,0,0,1-.706,2.354,7.99,7.99,0,0,1-8.4,4.474,8.043,8.043,0,0,1,.309-15.953Z" transform="translate(-1145.496 -421.446)" fill="#fff"/>
</svg>
