<svg xmlns="http://www.w3.org/2000/svg" width="20.158" height="24" viewBox="0 0 20.158 24">
  <path id="Path_98505" data-name="Path 98505" d="M1090.21-102.762v1.738a1.852,1.852,0,0,1-1.933,1.952q-6.295.006-12.589,0a1.869,1.869,0,0,1-1.945-1.99q.009-8.139.005-16.278a1.87,1.87,0,0,1,1.991-2.032c.549,0,1.1,0,1.7,0,0-.6,0-1.146,0-1.694a1.858,1.858,0,0,1,1.98-2c3.182,0,6.364,0,9.546-.006a1.221,1.221,0,0,1,.942.382c1.209,1.225,2.442,2.427,3.636,3.667a1.353,1.353,0,0,1,.345.85c.02,4.458.009,8.915.012,13.373a1.87,1.87,0,0,1-1.989,2.035C1091.362-102.76,1090.813-102.762,1090.21-102.762Zm1.836-1.862c0-.21,0-.375,0-.54q0-2.1,0-4.2c0-2.522,0-5.043.008-7.565,0-.339-.092-.469-.442-.449-.475.027-.953.005-1.429.015a1.75,1.75,0,0,1-1.975-1.9c0-.639,0-1.278,0-1.927h-8.87v16.564Zm-16.4-12.881v16.554h12.68v-1.812h-.567q-4.2,0-8.4,0a1.863,1.863,0,0,1-1.93-1.96q.009-6.135.012-12.271c0-.163,0-.327,0-.511Zm14.538-2.285-.135.041c.027.163,0,.38.1.474.08.079.3.016.565.016Z" transform="translate(-1073.743 123.07)"/>
</svg>
