<svg xmlns="http://www.w3.org/2000/svg" width="15.347" height="15.453" viewBox="0 0 15.347 15.453">
  <g id="Group_420" data-name="Group 420" transform="translate(-1788.953 -430.964)">
    <path id="Path_2520" data-name="Path 2520" d="M1788.955,437.824c0-1.307,0-2.615,0-3.922a2.83,2.83,0,0,1,2.945-2.936q3.077,0,6.154,0a2.828,2.828,0,0,1,2.927,2.926q0,1.932,0,3.864c0,.369-.151.583-.441.643a.562.562,0,0,1-.7-.607c0-1.269,0-2.538,0-3.807a1.7,1.7,0,0,0-1.86-1.873q-3.006,0-6.011,0a1.7,1.7,0,0,0-1.862,1.87q0,3.864,0,7.729a1.7,1.7,0,0,0,1.852,1.852c1.088,0,2.176,0,3.263,0a.553.553,0,0,1,.6.655.479.479,0,0,1-.457.474c-1.363,0-2.735.071-4.086-.063a2.69,2.69,0,0,1-2.321-2.743C1788.948,440.534,1788.955,439.179,1788.955,437.824Z" transform="translate(0 0)" fill="#fff"/>
    <path id="Path_2521" data-name="Path 2521" d="M1926.8,564.269a1.574,1.574,0,0,1-.411,1.192q-1.961,1.984-3.946,3.944a2.126,2.126,0,0,1-.735.422c-.7.266-1.421.5-2.131.746a.49.49,0,0,1-.68-.425,1.124,1.124,0,0,1,.057-.419c.238-.724.472-1.45.74-2.164a1.783,1.783,0,0,1,.41-.607q1.883-1.88,3.789-3.737a1.76,1.76,0,0,1,2.454-.051A1.471,1.471,0,0,1,1926.8,564.269Zm-6.394,4.789c.29-.088.513-.171.743-.222a1.654,1.654,0,0,0,.862-.519c.452-.478.926-.935,1.392-1.4q1.022-1.022,2.044-2.043a.682.682,0,0,0,.057-.929.554.554,0,0,0-.872.032c-1.122,1.117-2.216,2.264-3.371,3.345A3.551,3.551,0,0,0,1920.4,569.058Z" transform="translate(-122.498 -124.191)" fill="#fff"/>
    <path id="Path_2522" data-name="Path 2522" d="M1842.159,492.127c-.829,0-1.658,0-2.487,0-.429,0-.66-.207-.657-.577s.233-.567.667-.568q2.487,0,4.973,0c.429,0,.66.207.657.577s-.234.567-.667.568C1843.817,492.129,1842.988,492.127,1842.159,492.127Z" transform="translate(-47.195 -56.58)" fill="#fff"/>
    <path id="Path_2523" data-name="Path 2523" d="M1842.161,542.127c-.829,0-1.658,0-2.487,0-.43,0-.66-.206-.659-.576s.232-.569.665-.57q2.487,0,4.973,0c.43,0,.661.206.659.575s-.233.569-.665.57C1843.818,542.129,1842.989,542.127,1842.161,542.127Z" transform="translate(-47.195 -103.717)" fill="#fff"/>
    <path id="Path_2524" data-name="Path 2524" d="M1841.3,592.118c-.552,0-1.1,0-1.657,0-.4,0-.63-.217-.628-.577s.23-.566.638-.567q1.657,0,3.314,0a.55.55,0,0,1,.628.577c0,.358-.23.565-.638.568C1842.4,592.121,1841.852,592.118,1841.3,592.118Z" transform="translate(-47.195 -150.844)" fill="#fff"/>
  </g>
</svg>
