<svg xmlns="http://www.w3.org/2000/svg" width="24.34" height="23.791" viewBox="0 0 24.34 23.791">
  <g id="Group_26666" data-name="Group 26666" transform="translate(-1127.66 -281.096)">
    <path id="Path_64294" data-name="Path 64294" d="M483.477,395.5H473.6v16.68h17.778V401.908" transform="translate(655.06 -108.293)" fill="none" stroke="#000" stroke-width="2"/>
    <path id="Path_64295" data-name="Path 64295" d="M7.939,6.92a.2.2,0,0,0-.175-.161H5.687V.26C5.687.116,5.6,0,5.5,0H2.464c-.1,0-.19.116-.19.26v6.5H.19a.2.2,0,0,0-.175.16A.334.334,0,0,0,.055,7.2l3.782,5.2a.169.169,0,0,0,.134.076h0a.169.169,0,0,0,.134-.076L7.9,7.2A.333.333,0,0,0,7.939,6.92Z" transform="translate(1143.173 295.547) rotate(-135)"/>
  </g>
</svg>
