<svg xmlns="http://www.w3.org/2000/svg" width="26" height="26" viewBox="0 0 26 26">
  <path id="Path_98525" data-name="Path 98525" d="M7647.67,4449.4a13,13,0,1,1,12.988-12.992A13.022,13.022,0,0,1,7647.67,4449.4Zm-2.007-10.831-1.122-1.021c-.82-.747-1.62-1.518-2.466-2.232a1.231,1.231,0,0,0-2.013.617,1.322,1.322,0,0,0,.472,1.414q2.043,1.856,4.082,3.715a1.344,1.344,0,0,0,2.206-.045l4.38-4.345q1.8-1.786,3.6-3.572a1.327,1.327,0,0,0,.443-1.422,1.311,1.311,0,0,0-2.273-.461q-2.863,2.847-5.709,5.709C7646.731,4437.457,7646.211,4438,7645.663,4438.566Z" transform="translate(-7634.658 -4423.397)" fill="#34a759"/>
</svg>
