<svg xmlns="http://www.w3.org/2000/svg" width="21.874" height="24" viewBox="0 0 21.874 24">
  <g id="Group_26900" data-name="Group 26900" transform="translate(-8.683 1558.028)">
    <path id="Path_92517" data-name="Path 92517" d="M37.735-1538.416c-.008-.123-.02-.221-.02-.32,0-1.856-.006-3.712.008-5.567a.767.767,0,0,1,.2-.486q6.532-6.553,13.08-13.09c.06-.06.13-.112.173-.148l6.171,6.175c-.054.059-.132.152-.217.237q-6.488,6.491-12.983,12.976a.782.782,0,0,1-.472.244c-1.918.016-3.837.01-5.755.008A1.592,1.592,0,0,1,37.735-1538.416Zm13.446-16.5a1.234,1.234,0,0,0-.129.1q-5.49,5.487-10.976,10.979a.489.489,0,0,0-.165.279c-.012.975-.007,1.95-.007,2.961.168.009.3.022.437.022.714,0,1.429-.018,2.143.009a1.092,1.092,0,0,0,.886-.366q5.225-5.248,10.471-10.475a3.74,3.74,0,0,1,.489-.359Z" transform="translate(-26.846)"/>
    <path id="Path_92518" data-name="Path 92518" d="M8.684-1265.757c0-.669-.006-1.318.009-1.966,0-.067.124-.157.208-.188a.9.9,0,0,1,.3-.009H30.038c.518,0,.519,0,.519.536s0,1.072,0,1.628Z" transform="translate(0 -268.271)"/>
  </g>
</svg>
