<svg id="Group_26674" data-name="Group 26674" xmlns="http://www.w3.org/2000/svg" width="22.363" height="25.017" viewBox="0 0 22.363 25.017">
  <path id="Path_88016" data-name="Path 88016" d="M12.06,1002.355a.7.7,0,0,1,.233,0c.564.212.917-.084,1.31-.446a9.992,9.992,0,0,1,4.13-2.287.68.68,0,0,0,.544-.51,2.544,2.544,0,0,1,4.84.02.649.649,0,0,0,.521.487,10.382,10.382,0,0,1,4.512,2.617.544.544,0,0,0,.581.174,2.551,2.551,0,0,1,2.446,4.228.533.533,0,0,0-.15.579,10.554,10.554,0,0,1,0,5.332.5.5,0,0,0,.143.543,2.552,2.552,0,0,1-2.459,4.235.518.518,0,0,0-.548.166,10.383,10.383,0,0,1-4.582,2.647.589.589,0,0,0-.455.455,2.546,2.546,0,0,1-4.854.013.649.649,0,0,0-.521-.486,10.41,10.41,0,0,1-4.513-2.617.544.544,0,0,0-.581-.172,2.551,2.551,0,0,1-2.444-4.23.53.53,0,0,0,.149-.578,10.542,10.542,0,0,1,0-5.332.512.512,0,0,0-.142-.544,2.55,2.55,0,0,1,1.839-4.3Zm6.257-1.35a9.036,9.036,0,0,0-3.981,2.2c-.158.166-.108.275-.022.439a2.542,2.542,0,0,1-2.2,3.808c-.247.007-.343.09-.392.313a9.594,9.594,0,0,0,0,4.222c.052.232.161.3.4.312a3.024,3.024,0,0,1,.947.191,2.554,2.554,0,0,1,1.271,3.591c-.061.118-.084.356-.014.424a8.953,8.953,0,0,0,3.985,2.258,2.641,2.641,0,0,1,4.772,0,9,9,0,0,0,3.957-2.237.414.414,0,0,0,.043-.386,2.562,2.562,0,0,1,2.229-3.85.294.294,0,0,0,.342-.274,9.423,9.423,0,0,0,0-4.3c-.046-.2-.14-.254-.345-.272a3.4,3.4,0,0,1-.986-.194,2.54,2.54,0,0,1-1.262-3.587c.077-.146.2-.267.018-.441a9.275,9.275,0,0,0-4-2.247A2.639,2.639,0,0,1,18.317,1001.005Z" transform="translate(-9.507 -997.367)" fill="#34a759"/>
  <path id="Path_88017" data-name="Path 88017" d="M166.29,1130.589c.009.148.022.26.022.372,0,1.458-.005,2.916.007,4.374a.512.512,0,0,1-.3.52c-1.257.71-2.5,1.439-3.756,2.16-.1.057-.2.107-.367.191-.012-.169-.027-.291-.027-.412,0-1.445-.008-2.89.009-4.334a.632.632,0,0,1,.227-.469c1.319-.786,2.652-1.547,3.982-2.314A2.014,2.014,0,0,1,166.29,1130.589Z" transform="translate(-149.954 -1120.174)" fill="#34a759"/>
  <path id="Path_88018" data-name="Path 88018" d="M86.47,1130l1.933,1.116c.744.429,1.493.849,2.227,1.3a.6.6,0,0,1,.272.406c.018,1.549.01,3.1.008,4.647a1.152,1.152,0,0,1-.033.166,2.755,2.755,0,0,1-.307-.131c-1.285-.74-2.571-1.48-3.85-2.231-.106-.062-.238-.2-.239-.3C86.465,1133.337,86.47,1131.711,86.47,1130Z" transform="translate(-80.452 -1119.627)" fill="#34a759"/>
  <path id="Path_88019" data-name="Path 88019" d="M105.187,1084.634c-1.32.762-2.593,1.469-3.833,2.231a.943.943,0,0,1-1.149.006c-1.152-.709-2.337-1.363-3.508-2.041-.1-.058-.195-.124-.323-.207.109-.076.188-.141.274-.191,1.284-.743,2.565-1.489,3.857-2.217a.584.584,0,0,1,.484-.027c1.338.751,2.664,1.525,3.993,2.294C105.036,1084.514,105.083,1084.556,105.187,1084.634Z" transform="translate(-89.583 -1075.52)" fill="#34a759"/>
</svg>
