<svg xmlns="http://www.w3.org/2000/svg" width="8.482" height="8.482" viewBox="0 0 8.482 8.482">
  <path id="Path_74439" data-name="Path 74439" d="M676.954,787.559l-5.341,5.348c-.559.559-.984.649-1.361.29s-.3-.817.273-1.394q2.436-2.436,4.875-4.87a3.612,3.612,0,0,1,.421-.315l-.075-.148c-.551,0-1.1,0-1.653,0-.647,0-1-.282-.993-.782s.349-.756.968-.757c1.172,0,2.345,0,3.517,0,.622,0,.9.288.907.915q.006,1.783,0,3.566c0,.568-.3.91-.766.912s-.767-.342-.771-.907S676.954,788.27,676.954,787.559Z" transform="translate(-670.013 -784.928)" fill="#9f9aa5"/>
</svg>
