<svg xmlns="http://www.w3.org/2000/svg" width="43" height="43" viewBox="0 0 43 43">
  <g id="Group_27396" data-name="Group 27396" transform="translate(-508 -415)">
    <circle id="Ellipse_2474" data-name="Ellipse 2474" cx="21.5" cy="21.5" r="21.5" transform="translate(508 415)" fill="#34a759"/>
    <g id="Group_27307" data-name="Group 27307" transform="translate(-6597.982 -4753.014)">
      <path id="Path_98792" data-name="Path 98792" d="M7125.18,5182.688a7.089,7.089,0,0,1-2.568-3.312,4.426,4.426,0,0,1-.283-1.307.935.935,0,0,1,1.236-1.022,2.822,2.822,0,0,1,.822.279,4.757,4.757,0,0,0,4.162.236,13.07,13.07,0,0,1,2.4-.472c.438-.061.6.114.527.56a7.846,7.846,0,0,1-.449,1.675,10.109,10.109,0,0,1-.913,1.71c-.354.538-.8,1.018-1.21,1.538a13.915,13.915,0,0,1,4.43,3.36,18.105,18.105,0,0,1,4.375,7.512,7.212,7.212,0,0,1-.14,4.868,6.1,6.1,0,0,1-3.787,3.289,17.274,17.274,0,0,1-6.339.861,18.417,18.417,0,0,1-5.947-.859,6.428,6.428,0,0,1-4.088-3.516,6.755,6.755,0,0,1-.3-4.254,17.735,17.735,0,0,1,7.408-10.768C7124.711,5182.931,7124.929,5182.83,7125.18,5182.688Zm2.867,14.311a11.334,11.334,0,0,0,1.477-.559,2.112,2.112,0,0,0,1.138-2.036,2.017,2.017,0,0,0-1.27-1.862c-.356-.166-.748-.258-1.114-.4-.1-.04-.233-.157-.235-.242-.019-.712-.011-1.425-.011-2.174a1.468,1.468,0,0,1,1.292.962.61.61,0,0,0,.806.44.628.628,0,0,0,.373-.844,2.174,2.174,0,0,0-1.084-1.362,13.8,13.8,0,0,0-1.378-.551c-.066-.448.176-1.2-.637-1.208-.863-.008-.554.786-.655,1.264a7.349,7.349,0,0,0-.806.251,3.3,3.3,0,0,0-.719.415,2.063,2.063,0,0,0,.263,3.506c.32.176.688.265,1.025.414.1.045.244.154.246.237.02.751.012,1.5.012,2.3a1.616,1.616,0,0,1-1.215-1.129.625.625,0,1,0-1.189.367,2.5,2.5,0,0,0,1.122,1.532,13.313,13.313,0,0,0,1.3.615,4,4,0,0,0,.011.775.554.554,0,0,0,.6.473C7127.863,5198.176,7127.973,5197.978,7128.047,5197Z" fill="#fff"/>
      <path id="Path_98794" data-name="Path 98794" d="M7257.1,5383.2c.95.143,1.387.523,1.353,1.162a1.256,1.256,0,0,1-1.353,1.035Z" transform="translate(-129.044 -189.784)" fill="#fff"/>
      <path id="Path_98795" data-name="Path 98795" d="M7227.862,5337.3v1.953c-.729-.1-1.109-.427-1.106-.923C7226.759,5337.789,7227.18,5337.393,7227.862,5337.3Z" transform="translate(-101.115 -147.539)" fill="#fff"/>
    </g>
  </g>
</svg>
