<svg xmlns="http://www.w3.org/2000/svg" width="18.339" height="10.924" viewBox="0 0 18.339 10.924">
  <g id="Group_19672" data-name="Group 19672" transform="translate(0 0)">
    <path id="Path_87948" data-name="Path 87948" d="M-1074.7,878.808a10.147,10.147,0,0,1,6.2,2.549,14.42,14.42,0,0,1,2.284,2.4.709.709,0,0,1,.034.969,12.668,12.668,0,0,1-4.975,4.112,9.656,9.656,0,0,1-9.661-.9,13.532,13.532,0,0,1-3.316-3.167.7.7,0,0,1-.05-.945,12.658,12.658,0,0,1,5.571-4.379A10.194,10.194,0,0,1-1074.7,878.808Zm-.488,1.608a3.845,3.845,0,0,0-3.829,3.877,3.848,3.848,0,0,0,3.863,3.816,3.856,3.856,0,0,0,3.831-3.908A3.849,3.849,0,0,0-1075.188,880.416Z" transform="translate(1084.34 -878.808)" fill="#fff"/>
    <path id="Path_87949" data-name="Path 87949" d="M-958.216,937.934A2.049,2.049,0,0,1-956.15,940a2.072,2.072,0,0,1-2.07,2.071A2.055,2.055,0,0,1-960.288,940,2.071,2.071,0,0,1-958.216,937.934Z" transform="translate(967.39 -934.549)" fill="#fff"/>
  </g>
</svg>
