<svg xmlns="http://www.w3.org/2000/svg" width="12.639" height="12.639" viewBox="0 0 12.639 12.639">
  <path id="Path_81827" data-name="Path 81827" d="M-406.287,264.811c0-.422,0-.814,0-1.205a1.253,1.253,0,0,1,1.294-1.32q3.757-.016,7.513,0a1.241,1.241,0,0,1,1.291,1.293q.016,3.757,0,7.513a1.253,1.253,0,0,1-1.322,1.291c-.392,0-.783,0-1.2,0,0,.421,0,.813,0,1.2a1.253,1.253,0,0,1-1.293,1.32q-3.757.016-7.513,0a1.244,1.244,0,0,1-1.292-1.293q-.015-3.757,0-7.513a1.253,1.253,0,0,1,1.321-1.292C-407.1,264.808-406.707,264.811-406.287,264.811Zm8.808,6.3v-7.54h-7.529c-.007.093-.019.169-.019.245,0,2.335,0,4.671-.005,7.006,0,.257.091.306.324.305,2.325-.007,4.651,0,6.976,0C-397.655,271.125-397.579,271.118-397.479,271.113Zm-10.05,2.5h7.535v-1.233h-.345q-2.277,0-4.555,0a1.274,1.274,0,0,1-1.392-1.4q0-2.292,0-4.585v-.308h-1.242Z" transform="translate(408.82 -262.278)" fill="#9f9aa5"/>
</svg>
