<svg xmlns="http://www.w3.org/2000/svg" width="20.099" height="24.732" viewBox="0 0 20.099 24.732">
  <g id="Group_20480" data-name="Group 20480" transform="translate(-346.58 -641.991)">
    <path id="Path_89131" data-name="Path 89131" d="M347.779,650.5c-.162,0-.29.007-.416,0a.752.752,0,0,1-.767-.759c-.013-.952-.03-1.906.006-2.857a1.9,1.9,0,0,1,1.923-1.789c1.261-.012,2.523,0,3.784,0h.462c0-.288,0-.541,0-.795A2.312,2.312,0,0,1,355.061,642q1.563-.019,3.128,0a2.311,2.311,0,0,1,2.307,2.314c0,.242,0,.484,0,.774h.831c1.107,0,2.214,0,3.321,0a1.935,1.935,0,0,1,2.029,2.043c0,.785,0,1.57,0,2.355,0,.747-.235.985-.986,1.012-.051,0-.1.01-.19.02-.015.149-.038.3-.045.446q-.318,6.729-.634,13.459a2.316,2.316,0,0,1-2.369,2.3q-5.83.008-11.661,0a2.3,2.3,0,0,1-2.344-2.239q-.281-5.765-.546-11.53C347.865,652.142,347.822,651.334,347.779,650.5Zm1.581.022c0,.164-.005.292,0,.419q.314,6.693.63,13.386a.8.8,0,0,0,.921.851q5.716,0,11.432,0c.634,0,.906-.276.936-.916q.293-6.114.586-12.228c.023-.5,0-.994,0-1.512Zm15.771-1.584c0-.556,0-1.07,0-1.584,0-.649-.065-.715-.7-.715h-15.6c-.1,0-.231-.036-.3.011-.146.094-.364.228-.372.357-.038.637-.017,1.277-.017,1.931Zm-6.182-3.865c0-.276.008-.507,0-.738a.756.756,0,0,0-.781-.782q-1.541-.017-3.083,0a.73.73,0,0,0-.741.608,7.028,7.028,0,0,0-.008.911Z" transform="translate(0)" fill="#ec4d4d"/>
    <path id="Path_89132" data-name="Path 89132" d="M416.686,777.887q0-2.45,0-4.9a.786.786,0,0,1,.755-.889.767.767,0,0,1,.785.74c.017.282.006.566.006.849q0,4.515,0,9.03a1.283,1.283,0,0,1-.121.59.7.7,0,0,1-.822.356.771.771,0,0,1-.6-.8c-.007-.965,0-1.929,0-2.894Q416.686,778.929,416.686,777.887Z" transform="translate(-64.689 -120.055)" fill="#ec4d4d"/>
    <path id="Path_89133" data-name="Path 89133" d="M468.213,777.905q0,2.47,0,4.939a.693.693,0,0,1-.44.742,1.182,1.182,0,0,1-.757-.051c-.311-.137-.355-.466-.354-.795q.008-4.052,0-8.1c0-.54,0-1.081,0-1.621,0-.564.3-.913.766-.916s.778.351.779.9Q468.216,775.455,468.213,777.905Z" transform="translate(-110.805 -120.057)" fill="#ec4d4d"/>
    <path id="Path_89134" data-name="Path 89134" d="M516.686,777.887q0-2.45,0-4.9a.786.786,0,0,1,.755-.888.766.766,0,0,1,.785.74c.018.308.006.617.006.926q0,4.476,0,8.953a1.283,1.283,0,0,1-.121.591.7.7,0,0,1-.822.355.771.771,0,0,1-.6-.8c-.007-.965,0-1.93,0-2.894Q516.686,778.929,516.686,777.887Z" transform="translate(-156.963 -120.055)" fill="#ec4d4d"/>
  </g>
</svg>
