<svg xmlns="http://www.w3.org/2000/svg" width="18.333" height="18.333" viewBox="0 0 18.333 18.333">
  <path id="Path_98468" data-name="Path 98468" d="M-776.81,793.783c0-.755,0-1.469,0-2.183a1.874,1.874,0,0,1,2.062-2.047h9.972a1.878,1.878,0,0,1,2.066,2.078q0,4.986,0,9.972a1.874,1.874,0,0,1-2.058,2.05h-2.171V804c0,.669.006,1.339,0,2.009a1.834,1.834,0,0,1-1.848,1.867q-5.2.013-10.395,0a1.826,1.826,0,0,1-1.852-1.863q-.011-5.18,0-10.36a1.838,1.838,0,0,1,1.88-1.872C-778.394,793.777-777.631,793.783-776.81,793.783ZM-774,806.472q2.519,0,5.038,0c.466,0,.607-.142.607-.61q0-5.038,0-10.077c0-.443-.147-.589-.592-.589q-5.038,0-10.076,0c-.466,0-.607.142-.607.61q0,5.021,0,10.041c0,.49.136.625.627.625Q-776.5,806.473-774,806.472Zm7.058-4.23c.768,0,1.484,0,2.2,0,.484,0,.619-.139.619-.634q0-2.555,0-5.108,0-2.431,0-4.862c0-.556-.119-.671-.686-.673h-9.9c-.582,0-.69.111-.691.7q0,.458,0,.916v1.2h.44q2.995,0,5.989,0a1.869,1.869,0,0,1,2.03,2.043q0,2.995,0,5.989Z" transform="translate(781.042 -789.553)" fill="#7c7c7c"/>
</svg>
