<svg xmlns="http://www.w3.org/2000/svg" width="13.13" height="17.507" viewBox="0 0 13.13 17.507">
  <path id="Path_98504" data-name="Path 98504" d="M407.489,354.565h-.547v-2.188a4.377,4.377,0,1,0-8.753,0v2.188h-.547A1.643,1.643,0,0,0,396,356.206v7.659a1.643,1.643,0,0,0,1.641,1.641h9.848a1.643,1.643,0,0,0,1.641-1.641v-7.659a1.643,1.643,0,0,0-1.641-1.641Zm-7.842-2.188a2.918,2.918,0,1,1,5.836,0v2.188h-5.836Zm3.647,7.821v1.662a.729.729,0,0,1-1.459,0V360.2a1.459,1.459,0,1,1,1.459,0Zm0,0" transform="translate(-396 -348)" fill="#c2c2c2"/>
</svg>
