<svg id="Group_26670" data-name="Group 26670" xmlns="http://www.w3.org/2000/svg" width="77.45" height="77.447" viewBox="0 0 77.45 77.447">
  <path id="Path_64303" data-name="Path 64303" d="M350,484.751a6.825,6.825,0,0,1,0-9.653l49.9-49.9a2.27,2.27,0,0,1,3.209,0l6.445,6.445a2.27,2.27,0,0,1,0,3.209l-49.9,49.9a6.832,6.832,0,0,1-9.653,0Zm0,0" transform="translate(-348 -409.3)" fill="#464b52"/>
  <path id="Path_64304" data-name="Path 64304" d="M417.466,447.026a2.27,2.27,0,0,1,0,3.209l-49.9,49.9a6.832,6.832,0,0,1-9.653,0L414.243,443.8Zm0,0" transform="translate(-355.914 -424.683)" fill="#292b2f"/>
  <path id="Path_64305" data-name="Path 64305" d="M497.6,378.611A29.611,29.611,0,1,1,467.986,349,29.611,29.611,0,0,1,497.6,378.611Zm0,0" transform="translate(-420.147 -349)" fill="#34a759"/>
  <path id="Path_64307" data-name="Path 64307" d="M524.556,414.684a20.5,20.5,0,1,1-20.5-20.5,20.5,20.5,0,0,1,20.5,20.5Zm0,0" transform="translate(-456.22 -385.073)" fill="#6ad114"/>
</svg>
