<svg xmlns="http://www.w3.org/2000/svg" width="25.014" height="25.017" viewBox="0 0 25.014 25.017">
  <g id="Group_26672" data-name="Group 26672" transform="translate(0)">
    <path id="Path_88007" data-name="Path 88007" d="M-495.431,1415.733a7.044,7.044,0,0,1-7.03-7,7.043,7.043,0,0,1,7-7.03,7.042,7.042,0,0,1,7.03,7A7.043,7.043,0,0,1-495.431,1415.733Zm.7-10.6c0-.346.019-.643,0-.937a.694.694,0,0,0-.711-.639.7.7,0,0,0-.714.638,3.415,3.415,0,0,0-.01.624.558.558,0,0,1-.337.614,2.023,2.023,0,0,0-1.092,1.856,2.134,2.134,0,0,0,1.964,2.146c.591.056.893.307.879.73-.015.444-.339.672-.96.674-.365,0-.729-.006-1.094,0a.737.737,0,0,0-.791.734.751.751,0,0,0,.8.729c.191.007.382,0,.634,0,0,.345-.019.643,0,.937a.7.7,0,0,0,.711.639.7.7,0,0,0,.714-.638,3.387,3.387,0,0,0,.01-.624.559.559,0,0,1,.337-.614,2.027,2.027,0,0,0,1.091-1.9,2.133,2.133,0,0,0-1.964-2.106c-.59-.055-.892-.306-.879-.73.014-.443.339-.672.96-.673.365,0,.729.007,1.094,0a.739.739,0,0,0,.791-.735.75.75,0,0,0-.8-.728C-494.287,1405.126-494.478,1405.132-494.73,1405.132Z" transform="translate(507.953 -1396.208)" fill="#34a759"/>
    <path id="Path_88008" data-name="Path 88008" d="M-572.757,1500.787c1.321,0,2.58,0,3.839.01a.333.333,0,0,1,.238.217,8.559,8.559,0,0,0,1.878,4.421l-2.876,2.86A12.421,12.421,0,0,1-572.757,1500.787Z" transform="translate(572.757 -1487.551)" fill="#34a759"/>
    <path id="Path_88009" data-name="Path 88009" d="M-395.509,1334.917l-2.8,2.763a22.385,22.385,0,0,0-2.214-1.208,23.674,23.674,0,0,0-2.5-.746v-3.918C-400.929,1331.647-396.785,1333.373-395.509,1334.917Z" transform="translate(416.276 -1331.764)" fill="#34a759"/>
    <path id="Path_88010" data-name="Path 88010" d="M-572.334,1393.41c-.142-2.16,1.594-6.315,3.1-7.526l2.833,2.824c-.06.085-.129.19-.206.29a8.24,8.24,0,0,0-1.66,4.024c-.036.285-.115.4-.424.395C-569.893,1393.4-571.1,1393.41-572.334,1393.41Z" transform="translate(572.375 -1381.625)" fill="#34a759"/>
    <path id="Path_88011" data-name="Path 88011" d="M-325.831,1386.039a12.475,12.475,0,0,1,3.077,7.514h-3.723c-.167,0-.316.023-.369-.227a8.457,8.457,0,0,0-1.855-4.433Z" transform="translate(347.767 -1381.768)" fill="#34a759"/>
    <path id="Path_88012" data-name="Path 88012" d="M-322.6,1500.7a12.488,12.488,0,0,1-3.091,7.529l-2.843-2.888s.069-.1.143-.2a8.265,8.265,0,0,0,1.679-4.057c.036-.291.126-.393.428-.389C-325.078,1500.705-323.871,1500.7-322.6,1500.7Z" transform="translate(347.614 -1487.46)" fill="#34a759"/>
    <path id="Path_88013" data-name="Path 88013" d="M-395.518,1578.063a12.434,12.434,0,0,1-7.494,3.088v-4.057a8.523,8.523,0,0,0,4.635-1.912Z" transform="translate(416.273 -1556.134)" fill="#34a759"/>
    <path id="Path_88014" data-name="Path 88014" d="M-510.859,1331.367c0,.807,0,1.558,0,2.31,0,.494.014.989-.012,1.481a.4.4,0,0,1-.244.29,8.589,8.589,0,0,0-4.356,1.851.38.38,0,0,1-.091.043l-2.83-2.872A12.5,12.5,0,0,1-510.859,1331.367Z" transform="translate(522.639 -1331.367)" fill="#34a759"/>
    <path id="Path_88015" data-name="Path 88015" d="M-515.519,1575.189a8.4,8.4,0,0,0,3.39,1.692c.328.077.666.113.994.191.1.024.266.125.267.193.016,1.283.012,2.567.012,3.891a12.456,12.456,0,0,1-7.529-3.1Z" transform="translate(522.633 -1556.141)" fill="#34a759"/>
  </g>
</svg>
