<svg xmlns="http://www.w3.org/2000/svg" width="43" height="43" viewBox="0 0 43 43">
  <g id="Group_27395" data-name="Group 27395" transform="translate(-287 -415)">
    <circle id="Ellipse_2473" data-name="Ellipse 2473" cx="21.5" cy="21.5" r="21.5" transform="translate(287 415)" fill="#34a759"/>
    <path id="Path_98791" data-name="Path 98791" d="M7575.737,5054.372H7572.2c-.122,0-.245,0-.366,0-.427-.021-.591-.279-.4-.662.5-1.016,1.007-2.028,1.513-3.04,1.382-2.766,2.771-5.527,4.142-8.3a.782.782,0,0,1,.812-.513c1.9.022,3.805,0,5.708.018.186,0,.472.071.529.193a.74.74,0,0,1-.1.588c-1.376,2.2-2.77,4.389-4.158,6.581-.077.121-.15.246-.271.445h.441c1.317,0,2.634-.009,3.951.01a.716.716,0,0,1,.547.224c.065.129-.045.417-.167.561q-6.089,7.257-12.2,14.5c-.039.046-.071.119-.12.134-.17.052-.37.155-.514.107-.228-.076-.243-.306-.15-.525q.674-1.6,1.346-3.2,1.424-3.38,2.846-6.762C7575.633,5054.634,7575.671,5054.534,7575.737,5054.372Z" transform="translate(-7269.457 -4616.858)" fill="#fff"/>
  </g>
</svg>
