<svg xmlns="http://www.w3.org/2000/svg" width="24.382" height="26.001" viewBox="0 0 24.382 26.001">
  <g id="Group_26806" data-name="Group 26806" transform="translate(-7248.829 -4849.381)">
    <path id="Path_98519" data-name="Path 98519" d="M7260.987,5013.107c3.385,0,6.77.031,10.153-.017a1.955,1.955,0,0,1,2.07,2.064c-.03,2.856-.008,5.713-.01,8.57a1.86,1.86,0,0,1-2.056,2.065h-20.267a1.85,1.85,0,0,1-2.036-2.041c0-2.87.025-5.741-.013-8.61a1.956,1.956,0,0,1,2.045-2.047C7254.245,5013.138,7257.616,5013.107,7260.987,5013.107Zm6.327,3.912h.479c.744,0,1.488.008,2.232,0a.8.8,0,0,0,.815-.788.776.776,0,0,0-.783-.77q-1.785-.015-3.571,0a.737.737,0,0,0-.752.747q-.015,3.226,0,6.453a.744.744,0,0,0,.775.766q1.7.015,3.409,0a.752.752,0,0,0,.795-.784.731.731,0,0,0-.771-.759c-.73-.013-1.461,0-2.191-.006-.143,0-.286-.012-.422-.018v-2.039h.476c.554,0,1.11.013,1.664-.006a.767.767,0,0,0,.828-.839.786.786,0,0,0-.867-.722c-.7-.008-1.4,0-2.115,0Zm-5.257,2.746-.091,0c-.02-.058-.041-.115-.059-.174-.357-1.176-.708-2.353-1.072-3.526a.793.793,0,0,0-1-.586c-.459.145-.632.585-.454,1.176q.906,3,1.816,6.008c.157.518.421.754.826.75s.646-.241.806-.775q.319-1.066.642-2.133.6-2,1.207-3.992a.689.689,0,0,0-.215-.84,1.227,1.227,0,0,0-.781-.161c-.334.052-.457.373-.55.687C7262.78,5017.392,7262.417,5018.578,7262.058,5019.766Zm-9.295,2.113v-.545c0-1.677,0-3.354,0-5.032a.765.765,0,0,0-.779-.847.776.776,0,0,0-.774.854q-.007,3.125,0,6.249a.79.79,0,0,0,.884.87q1.339.006,2.678,0a.8.8,0,0,0,.9-.779c0-.461-.351-.766-.9-.77C7254.118,5021.875,7253.471,5021.879,7252.763,5021.879Zm5.339-2.385q0-1.542,0-3.086c0-.608-.3-.96-.809-.952-.48.007-.768.352-.769.948q-.005,3.045,0,6.091c0,.584.3.934.784.933s.791-.36.792-.929C7258.1,5021.5,7258.1,5020.5,7258.1,5019.494Z" transform="translate(0 -150.41)" fill="#34a759"/>
    <path id="Path_98520" data-name="Path 98520" d="M7456.911,4855.149a8.25,8.25,0,0,1-2.308,5.91.789.789,0,1,1-1.135-1.08,6.368,6.368,0,0,0,1.638-2.9,6.492,6.492,0,0,0-1.556-6.175,1.45,1.45,0,0,1-.352-.771.658.658,0,0,1,.518-.651.77.77,0,0,1,.846.231,7.827,7.827,0,0,1,2.149,3.973C7456.829,4854.257,7456.87,4854.839,7456.911,4855.149Z" transform="translate(-187.745 -0.056)" fill="#34a759"/>
    <path id="Path_98521" data-name="Path 98521" d="M7298.729,4855.327a7.989,7.989,0,0,1,2.28-5.606.8.8,0,0,1,1.085-.206.788.788,0,0,1,.076,1.259,6.552,6.552,0,0,0-.145,9c.488.554.558.978.177,1.337s-.843.277-1.349-.283A8.058,8.058,0,0,1,7298.729,4855.327Z" transform="translate(-45.846)" fill="#34a759"/>
    <path id="Path_98522" data-name="Path 98522" d="M7334.38,4876.457a3.172,3.172,0,0,1,.669.566.712.712,0,0,1-.164.919,3.287,3.287,0,0,0-.061,4.512.823.823,0,0,1,.052,1.245c-.359.313-.807.244-1.208-.187a4.828,4.828,0,0,1,.022-6.581A4.445,4.445,0,0,1,7334.38,4876.457Z" transform="translate(-76.768 -24.876)" fill="#34a759"/>
    <path id="Path_98523" data-name="Path 98523" d="M7434.185,4881.54a4.737,4.737,0,0,1-1.275,3.352.8.8,0,1,1-1.171-1.042,3.265,3.265,0,0,0,.011-4.485c-.388-.441-.41-.886-.061-1.214a.832.832,0,0,1,1.214.152A4.654,4.654,0,0,1,7434.185,4881.54Z" transform="translate(-167.777 -26.247)" fill="#34a759"/>
    <path id="Path_98524" data-name="Path 98524" d="M7381.909,4904.191a1.647,1.647,0,1,1-1.625-1.678A1.666,1.666,0,0,1,7381.909,4904.191Z" transform="translate(-119.244 -48.816)" fill="#34a759"/>
  </g>
</svg>
