<svg xmlns="http://www.w3.org/2000/svg" width="43" height="43" viewBox="0 0 43 43">
  <g id="Group_27397" data-name="Group 27397" transform="translate(-741 -415)">
    <circle id="Ellipse_2475" data-name="Ellipse 2475" cx="21.5" cy="21.5" r="21.5" transform="translate(741 415)" fill="#34a759"/>
    <g id="Group_27308" data-name="Group 27308" transform="translate(-7272.76 -4543.918)">
      <path id="Path_98796" data-name="Path 98796" d="M8024.01,4976.867c0-.773-.009-1.547,0-2.321a2.9,2.9,0,0,1,2.958-3.057,10.851,10.851,0,0,0,6.188-2.28c.3-.239.586-.5.877-.758a1.7,1.7,0,0,1,2.484.016,10.652,10.652,0,0,0,5.394,2.8c.7.132,1.418.2,2.13.282a2.8,2.8,0,0,1,2.483,2.845c-.019,2.25.019,4.508-.167,6.747a14.471,14.471,0,0,1-4.063,9.366,16.307,16.307,0,0,1-6.446,3.845,1.945,1.945,0,0,1-1.175-.006,15.744,15.744,0,0,1-7.223-4.707,14.441,14.441,0,0,1-3.045-6.834A29.122,29.122,0,0,1,8024.01,4976.867Zm17.875,4.326a6.612,6.612,0,1,0-6.624,6.61A6.639,6.639,0,0,0,8041.885,4981.193Z" transform="translate(0)" fill="#fff"/>
      <path id="Path_98797" data-name="Path 98797" d="M8109.159,5072.125a5.053,5.053,0,1,1-5.052-5.065A5.061,5.061,0,0,1,8109.159,5072.125Zm-6.267,1.064c-.153-.191-.268-.347-.4-.49a4.511,4.511,0,0,0-.413-.407.769.769,0,0,0-1.081,1.093q.683.721,1.406,1.4a.712.712,0,0,0,1.044.009q1.857-1.829,3.685-3.688a.686.686,0,0,0,.046-.946.72.72,0,0,0-.88-.275,1.372,1.372,0,0,0-.458.341C8104.887,5071.183,8103.936,5072.143,8102.893,5073.19Z" transform="translate(-68.833 -90.923)" fill="#fff"/>
    </g>
  </g>
</svg>
