<svg xmlns="http://www.w3.org/2000/svg" width="29.518" height="29.518" viewBox="0 0 29.518 29.518">
  <g id="Group_26811" data-name="Group 26811" transform="translate(-560 -132)">
    <path id="Path_82204" data-name="Path 82204" d="M4.74-12.312V0H1.776V-12.312ZM5.184-15.9a1.689,1.689,0,0,1-.156.72,1.979,1.979,0,0,1-.414.588,1.979,1.979,0,0,1-.606.4,1.859,1.859,0,0,1-.744.15,1.788,1.788,0,0,1-.726-.15,1.923,1.923,0,0,1-.594-.4,1.944,1.944,0,0,1-.4-.588,1.746,1.746,0,0,1-.15-.72,1.859,1.859,0,0,1,.15-.744,1.9,1.9,0,0,1,.4-.6,1.923,1.923,0,0,1,.594-.4,1.788,1.788,0,0,1,.726-.15,1.859,1.859,0,0,1,.744.15,1.979,1.979,0,0,1,.606.4,1.936,1.936,0,0,1,.414.6A1.8,1.8,0,0,1,5.184-15.9Z" transform="translate(578 138) rotate(180)" fill="#cf0c33"/>
    <g id="Group_5679" data-name="Group 5679" transform="translate(-1033.016 -452.016)">
      <path id="Path_64284" data-name="Path 64284" d="M1607.786,584.016a14.759,14.759,0,1,1-14.771,14.689A14.777,14.777,0,0,1,1607.786,584.016Zm.027,1.842a12.917,12.917,0,1,0,12.879,12.984A12.946,12.946,0,0,0,1607.813,585.858Z" fill="#cf0c33"/>
    </g>
  </g>
</svg>
