<svg xmlns="http://www.w3.org/2000/svg" width="12.153" height="11.636" viewBox="0 0 12.153 11.636">
  <path id="Path_98561" data-name="Path 98561" d="M711.077,1252.535c.092-.41.2-.9.313-1.393.145-.638.288-1.276.44-1.912a.292.292,0,0,0-.125-.323c-.8-.7-1.6-1.409-2.408-2.11a.656.656,0,0,1,.375-1.208c1.023-.086,2.045-.187,3.069-.272a.486.486,0,0,0,.484-.341c.382-.951.8-1.887,1.2-2.832a.667.667,0,0,1,1.292,0c.407.966.827,1.927,1.23,2.9a.354.354,0,0,0,.336.261c.772.061,1.542.134,2.313.2.315.029.629.061.944.09a.616.616,0,0,1,.573.455.608.608,0,0,1-.2.682c-.633.561-1.271,1.117-1.906,1.676a1.99,1.99,0,0,1-.286.248.734.734,0,0,0-.327.969c.247.912.431,1.841.643,2.763a.668.668,0,0,1-.229.763.661.661,0,0,1-.794-.012c-.919-.554-1.845-1.1-2.762-1.658a.3.3,0,0,0-.359,0q-1.4.847-2.8,1.678A.65.65,0,0,1,711.077,1252.535Zm-1.153-6.208c.1.1.169.159.238.22.7.615,1.4,1.237,2.109,1.839a.855.855,0,0,1,.313.959c-.248,1-.462,2.009-.7,3.05.1-.059.176-.1.248-.141.827-.493,1.658-.979,2.478-1.485a.794.794,0,0,1,.924,0c.82.5,1.651.991,2.478,1.485.069.041.14.078.24.132-.238-1.043-.455-2.052-.7-3.053a.842.842,0,0,1,.306-.939c.712-.6,1.407-1.224,2.109-1.839.073-.064.142-.134.241-.228-1.086-.1-2.121-.209-3.159-.289a.779.779,0,0,1-.731-.53c-.376-.9-.764-1.8-1.149-2.7-.026-.061-.058-.12-.1-.21-.052.11-.09.185-.123.262-.385.9-.771,1.8-1.151,2.7a.681.681,0,0,1-.6.467Z" transform="translate(-708.993 -1241.645)" fill="#fff"/>
</svg>
