<svg xmlns="http://www.w3.org/2000/svg" xmlns:xlink="http://www.w3.org/1999/xlink" width="80" height="80" viewBox="0 0 80 80">
  <defs>
    <filter id="Ellipse_2460" x="8" y="11" width="65" height="65" filterUnits="userSpaceOnUse">
      <feOffset dy="3" input="SourceAlpha"/>
      <feGaussianBlur stdDeviation="3" result="blur"/>
      <feFlood flood-opacity="0.302"/>
      <feComposite operator="in" in2="blur"/>
      <feComposite in="SourceGraphic"/>
    </filter>
  </defs>
  <g id="Group_27396" data-name="Group 27396" transform="translate(-3738.446 2037.517)">
    <circle id="Ellipse_2458" data-name="Ellipse 2458" cx="40" cy="40" r="40" transform="translate(3738.446 -2037.517)" fill="#e84141"/>
    <g transform="matrix(1, 0, 0, 1, 3738.45, -2037.52)" filter="url(#Ellipse_2460)">
      <circle id="Ellipse_2460-2" data-name="Ellipse 2460" cx="23.5" cy="23.5" r="23.5" transform="translate(17 17)" fill="#fff"/>
    </g>
    <path id="Path_98771" data-name="Path 98771" d="M4312.28,2821.561c-1.934,1.939-3.621,3.633-5.311,5.322a10.9,10.9,0,0,1-.989.93,2.559,2.559,0,0,1-3.448-.187,2.5,2.5,0,0,1-.139-3.443c.844-.978,1.8-1.864,2.712-2.778,1.094-1.093,2.2-2.173,3.61-3.564a13.523,13.523,0,0,1-1.528-1.1q-2.268-2.2-4.469-4.459a2.6,2.6,0,1,1,3.685-3.642c1.885,1.863,3.74,3.757,5.68,5.709.327-.3.591-.515.834-.757,1.675-1.668,3.33-3.356,5.021-5.006a2.588,2.588,0,0,1,3.813-.131,2.619,2.619,0,0,1-.169,3.818c-.178.188-.364.369-.546.552q-2.233,2.231-4.465,4.463c-.224.224-.429.464-.87.943.542.437,1.079.8,1.536,1.248,1.483,1.447,2.955,2.906,4.4,4.4a2.592,2.592,0,1,1-3.68,3.637c-1.67-1.626-3.308-3.285-4.945-4.944A8.8,8.8,0,0,1,4312.28,2821.561Z" transform="translate(-533.692 -4815.055)" fill="#e84141"/>
  </g>
</svg>
