<svg xmlns="http://www.w3.org/2000/svg" width="23.258" height="23.234" viewBox="0 0 23.258 23.234">
  <path id="Path_98469" data-name="Path 98469" d="M-1159.437,874.775a9.43,9.43,0,0,1-1.76,5.684c-.175.243-.147.367.053.565,1.933,1.918,3.854,3.849,5.783,5.771a1.228,1.228,0,0,1,.428,1.235,1.156,1.156,0,0,1-1.958.524c-.8-.774-1.578-1.571-2.366-2.359-1.181-1.181-2.366-2.358-3.539-3.547a.337.337,0,0,0-.537-.046,9.355,9.355,0,0,1-14.715-6.229,9.368,9.368,0,0,1,7.52-10.541,9.335,9.335,0,0,1,10.955,7.639C-1159.483,873.982-1159.465,874.5-1159.437,874.775Zm-2.328.236A7.014,7.014,0,0,0-1168.79,868a7.023,7.023,0,0,0-7.028,7.048,7.027,7.027,0,0,0,7.046,6.994A7.013,7.013,0,0,0-1161.765,875.01Z" transform="translate(1178.153 -865.674)" fill="#455364"/>
</svg>
