<svg xmlns="http://www.w3.org/2000/svg" width="79" height="79" viewBox="0 0 79 79">
  <g id="Group_27602" data-name="Group 27602" transform="translate(-1322 -267)">
    <circle id="Ellipse_2095" data-name="Ellipse 2095" cx="39.5" cy="39.5" r="39.5" transform="translate(1322 267)" fill="#f3f3f3"/>
    <g id="Group_26728" data-name="Group 26728" transform="translate(1337.842 278.758)">
      <path id="Path_88035" data-name="Path 88035" d="M-1415.725,462.072c0-2.046-.043-4.094.009-6.139.093-3.662,2.129-5.955,5.757-6.363a31.915,31.915,0,0,0,7.982-1.647,22.262,22.262,0,0,0,6.745-4.055c.357-.312.7-.636,1.064-.945a3.64,3.64,0,0,1,5.21-.013c.653.559,1.28,1.15,1.953,1.683a23.127,23.127,0,0,0,12.951,4.865,7.555,7.555,0,0,1,4.04,1.178,5.675,5.675,0,0,1,2.557,4.479c.239,6.761.379,13.522-1.088,20.194-2.276,10.353-8.432,17.5-18.025,21.791a23.361,23.361,0,0,1-3.472,1.36,4.982,4.982,0,0,1-2.679.1,33.84,33.84,0,0,1-15.036-9.44,30.58,30.58,0,0,1-7.107-15.188A56.754,56.754,0,0,1-1415.725,462.072Zm24.276-5.96a14.264,14.264,0,0,0-14.3,14.047,14.259,14.259,0,0,0,14.089,14.347,14.26,14.26,0,0,0,14.3-14.046A14.264,14.264,0,0,0-1391.449,456.112Z" transform="translate(1415.749 -441.82)" fill="#34a759"/>
      <path id="Path_88036" data-name="Path 88036" d="M-1330,562.621a10.9,10.9,0,0,1-10.8-10.926,10.894,10.894,0,0,1,10.949-10.78A10.892,10.892,0,0,1-1319.1,551.8,10.893,10.893,0,0,1-1330,562.621Zm-2.378-8.779c-.114-.015-.151-.009-.167-.024-.535-.511-1.061-1.031-1.6-1.535a1.688,1.688,0,0,0-2.456-.1,1.667,1.667,0,0,0,.113,2.451c.862.9,1.746,1.775,2.637,2.643a1.7,1.7,0,0,0,2.77.007q3.692-3.663,7.356-7.354a1.678,1.678,0,0,0,.186-2.573,1.692,1.692,0,0,0-2.518.2c-1.9,1.876-3.775,3.769-5.662,5.654C-1331.948,553.442-1332.185,553.658-1332.378,553.842Z" transform="translate(1354.142 -523.277)" fill="#34a759"/>
    </g>
  </g>
</svg>
