<svg xmlns="http://www.w3.org/2000/svg" width="30" height="30" viewBox="0 0 30 30">
  <g id="Group_27563" data-name="Group 27563" transform="translate(-914 -408)">
    <circle id="Ellipse_1436" data-name="Ellipse 1436" cx="15" cy="15" r="15" transform="translate(914 408)" fill="#f1f4fe"/>
    <g id="Group_15424" data-name="Group 15424" transform="translate(1292.08 189.339)">
      <path id="Path_81829" data-name="Path 81829" d="M-329.585,228.419l3.919,3.919a.361.361,0,0,0,.51,0l2.066-2.066a.361.361,0,0,0,0-.51l-6.5-6.5a.361.361,0,0,0-.511,0l-6.493,6.494a.361.361,0,0,0,0,.51l2.066,2.066a.361.361,0,0,0,.51,0l3.917-3.917a.36.36,0,0,1,.511,0Zm0,0" transform="translate(-33.239 0)" fill="#f0b90d"/>
      <path id="Path_81830" data-name="Path 81830" d="M-372.157,298.826l-2.066,2.066a.362.362,0,0,0,0,.51l2.066,2.066a.361.361,0,0,0,.51,0l2.065-2.066a.361.361,0,0,0,0-.51l-2.065-2.066a.361.361,0,0,0-.51,0Zm0,0" transform="translate(0 -66.737)" fill="#f0b90d"/>
      <path id="Path_81831" data-name="Path 81831" d="M-329.609,345.524l6.5-6.5a.361.361,0,0,0,0-.51l-2.067-2.065a.361.361,0,0,0-.51,0l-3.919,3.919a.36.36,0,0,1-.511,0l-3.917-3.917a.361.361,0,0,0-.51,0l-2.069,2.064a.36.36,0,0,0,0,.51l6.5,6.5a.361.361,0,0,0,.511,0Zm0,0" transform="translate(-33.216 -99.969)" fill="#f0b90d"/>
      <path id="Path_81832" data-name="Path 81832" d="M-221.058,298.834l-2.065,2.066a.36.36,0,0,0,0,.51l2.065,2.066a.361.361,0,0,0,.51,0l2.066-2.066a.362.362,0,0,0,0-.51l-2.066-2.066a.361.361,0,0,0-.51,0Zm0,0" transform="translate(-133.454 -66.745)" fill="#f0b90d"/>
      <path id="Path_81833" data-name="Path 81833" d="M-294.29,300.6l-2.105-2.106a.361.361,0,0,0-.511,0l-2.1,2.106a.361.361,0,0,0,0,.51l2.1,2.106a.361.361,0,0,0,.511,0l2.105-2.106a.36.36,0,0,0,0-.51Zm0,0" transform="translate(-66.429 -66.441)" fill="#f0b90d"/>
    </g>
  </g>
</svg>
