<svg xmlns="http://www.w3.org/2000/svg" width="71" height="71" viewBox="0 0 71 71">
  <g id="Group_27738" data-name="Group 27738" transform="translate(-488 -927)">
    <circle id="Ellipse_2164" data-name="Ellipse 2164" cx="35.5" cy="35.5" r="35.5" transform="translate(488 927)" fill="#34a759"/>
    <g id="Group_26829" data-name="Group 26829" transform="translate(503.729 942.975)">
      <path id="Path_98455" data-name="Path 98455" d="M5298.223,4409.781a17.145,17.145,0,0,1-1.568,6.422,43.472,43.472,0,0,1-8.008,12.1,1.37,1.37,0,0,0-.4,1.487c.187.58.283,1.188.424,1.783a2.559,2.559,0,0,1-.742,2.544q-4.364,4.359-8.723,8.724a3.051,3.051,0,0,1-.3.283c-.457.345-.844.229-.955-.342-.221-1.144-.4-2.3-.58-3.445-.154-.955-.276-1.914-.447-2.866a2.94,2.94,0,0,1,.569-2.456.59.59,0,0,0-.047-.92c-2.313-2.3-4.612-4.615-6.935-6.906-.153-.151-.577-.273-.685-.183a4,4,0,0,1-3.548.57c-1.673-.286-3.353-.538-5.028-.809a2.789,2.789,0,0,1-.516-.124c-.46-.17-.557-.468-.275-.874a3.775,3.775,0,0,1,.437-.482c2.824-2.826,5.659-5.642,8.469-8.481a2.823,2.823,0,0,1,2.908-.831c.554.143,1.12.245,1.663.42a1.642,1.642,0,0,0,1.673-.423c1.9-1.544,3.775-3.129,5.774-4.539a29.683,29.683,0,0,1,9.522-4.667,8.36,8.36,0,0,1,4.557-.183,3.652,3.652,0,0,1,2.661,3.16C5298.192,4409.131,5298.2,4409.529,5298.223,4409.781Zm-9.31,8.983a3.922,3.922,0,1,0,0-7.845,3.922,3.922,0,1,0,0,7.845Z" transform="translate(-5260.303 -4405.339)" fill="#fff"/>
      <path id="Path_98456" data-name="Path 98456" d="M5291.158,4615.661c.313-.951.574-1.924.95-2.85a22.306,22.306,0,0,1,4.126-6.935c.456-.493.627-.511,1.116-.029q2.087,2.063,4.149,4.15c.463.469.432.668-.023,1.13a12.919,12.919,0,0,1-4.708,2.994c-1.62.616-3.2,1.347-4.79,2.035C5291.355,4616.426,5291.238,4616.359,5291.158,4615.661Z" transform="translate(-5287.496 -4581.742)" fill="#fff"/>
    </g>
  </g>
</svg>
