<svg xmlns="http://www.w3.org/2000/svg" width="31.5" height="40.26" viewBox="0 0 31.5 40.26">
  <g id="Group_14710" data-name="Group 14710" transform="translate(-379 -164)">
    <path id="Path_64264" data-name="Path 64264" d="M394.751,164c-7.024,0-12.737,5.281-12.737,11.774V182.5a.32.32,0,0,1-.182.23c-.689.213-1.248.4-1.76.578A1.636,1.636,0,0,0,379,184.761v15.451a1.647,1.647,0,0,0,1.064,1.456,42.9,42.9,0,0,0,29.372,0,1.646,1.646,0,0,0,1.064-1.456V184.761a1.636,1.636,0,0,0-1.072-1.455c-.511-.183-1.072-.367-1.76-.578a.32.32,0,0,1-.181-.23v-6.724c0-6.492-5.714-11.774-12.737-11.774Zm-3.47,25.467a3.48,3.48,0,0,1,6.938,0,3.13,3.13,0,0,1-1.734,2.715v5.3a1.74,1.74,0,0,1-3.47,0v-5.3a3.131,3.131,0,0,1-1.734-2.715Zm11.826-13.693v5.8a42.945,42.945,0,0,0-16.714,0v-5.8c0-4.259,3.748-7.726,8.357-7.726s8.358,3.466,8.358,7.726Zm0,0" transform="translate(0 0)" fill="#34a759"/>
  </g>
</svg>
