<svg xmlns="http://www.w3.org/2000/svg" width="113.072" height="113.072" viewBox="0 0 113.072 113.072">
  <g id="Group_14852" data-name="Group 14852" transform="translate(-99 -222.89)">
    <path id="Path_82277" data-name="Path 82277" d="M283.67,243.864a5.374,5.374,0,0,1-5.471-5.472v-10.03a5.472,5.472,0,0,1,10.943,0v10.03a5.488,5.488,0,0,1-5.472,5.472Zm0,0" transform="translate(-128.135 0)" fill="#6ad114"/>
    <path id="Path_82278" data-name="Path 82278" d="M283.67,567.063a5.374,5.374,0,0,1-5.471-5.471V551.56a5.472,5.472,0,0,1,10.943,0v10.032a5.374,5.374,0,0,1-5.472,5.471Zm0,0" transform="translate(-128.135 -231.1)" fill="#1085bd"/>
    <path id="Path_82279" data-name="Path 82279" d="M199.077,266.808a5.494,5.494,0,0,1-4.741-2.736l-4.924-8.571a5.474,5.474,0,1,1,9.484-5.471l4.924,8.571a5.582,5.582,0,0,1-2.006,7.477,6.751,6.751,0,0,1-2.736.73Zm0,0" transform="translate(-64.15 -17.474)" fill="#83eb2c"/>
    <path id="Path_82280" data-name="Path 82280" d="M361,546.488a5.5,5.5,0,0,1-4.742-2.736l-4.924-8.571a5.474,5.474,0,1,1,9.484-5.471l4.925,8.571a5.585,5.585,0,0,1-2.006,7.478,5.157,5.157,0,0,1-2.736.729Zm0,0" transform="translate(-179.93 -217.456)" fill="#1894cf"/>
    <path id="Path_82281" data-name="Path 82281" d="M137.447,328.439a5.141,5.141,0,0,1-2.736-.73l-8.571-4.924a5.474,5.474,0,1,1,5.471-9.484l8.571,4.924a5.583,5.583,0,0,1,2.006,7.477,5.5,5.5,0,0,1-4.741,2.736Zm0,0" transform="translate(-17.474 -64.15)" fill="#beff88"/>
    <path id="Path_82282" data-name="Path 82282" d="M417.309,490.359a5.151,5.151,0,0,1-2.736-.729l-8.753-4.925a5.474,5.474,0,1,1,5.471-9.484l8.571,4.924a5.586,5.586,0,0,1,2.007,7.478,5.016,5.016,0,0,1-4.559,2.735Zm0,0" transform="translate(-217.456 -179.93)" fill="#34a759"/>
    <path id="Path_82283" data-name="Path 82283" d="M114.5,413.032h-10.03a5.472,5.472,0,0,1,0-10.943H114.5a5.374,5.374,0,0,1,5.472,5.471,5.488,5.488,0,0,1-5.472,5.472Zm0,0" transform="translate(0 -128.135)" fill="#d6fdb5"/>
    <path id="Path_82284" data-name="Path 82284" d="M437.7,413.032H427.67a5.472,5.472,0,0,1,0-10.943H437.7a5.472,5.472,0,0,1,0,10.943Zm0,0" transform="translate(-231.1 -128.135)" fill="#3fc76b"/>
    <path id="Path_82285" data-name="Path 82285" d="M128.234,490.359a5.5,5.5,0,0,1-4.742-2.735,5.586,5.586,0,0,1,2.007-7.478l8.571-4.924a5.474,5.474,0,1,1,5.471,9.484l-8.571,4.925a4.4,4.4,0,0,1-2.736.729Zm0,0" transform="translate(-17.015 -179.93)" fill="#08638f"/>
    <path id="Path_82286" data-name="Path 82286" d="M408.555,328.439a5.5,5.5,0,0,1-4.742-2.736,5.584,5.584,0,0,1,2.007-7.477l8.571-4.924a5.474,5.474,0,1,1,5.471,9.484l-8.571,4.924a5.144,5.144,0,0,1-2.736.73Zm0,0" transform="translate(-217.456 -64.15)" fill="#43d873"/>
    <path id="Path_82287" data-name="Path 82287" d="M194.154,546.488a5.153,5.153,0,0,1-2.736-.729,5.584,5.584,0,0,1-2.006-7.478l4.924-8.571a5.474,5.474,0,1,1,9.483,5.471l-4.924,8.571a5.5,5.5,0,0,1-4.742,2.736Zm0,0" transform="translate(-64.15 -217.456)" fill="#0f72a2"/>
    <path id="Path_82288" data-name="Path 82288" d="M356.074,266.808a5.141,5.141,0,0,1-2.735-.73,5.584,5.584,0,0,1-2.007-7.477l4.924-8.571a5.474,5.474,0,1,1,9.484,5.471l-4.925,8.571a5.922,5.922,0,0,1-4.742,2.736Zm0,0" transform="translate(-179.93 -17.474)" fill="#51e17f"/>
  </g>
</svg>
