<svg xmlns="http://www.w3.org/2000/svg" xmlns:xlink="http://www.w3.org/1999/xlink" width="221.449" height="52.585" viewBox="0 0 221.449 52.585">
  <defs>
    <linearGradient id="linear-gradient" x1="0.986" y1="0.015" x2="-0.476" y2="1.453" gradientUnits="objectBoundingBox">
      <stop offset="0" stop-color="#6ad114"/>
      <stop offset="0.541" stop-color="#34a759"/>
      <stop offset="1" stop-color="#08638f"/>
    </linearGradient>
    <linearGradient id="linear-gradient-2" x1="0.948" y1="-0.036" x2="-0.034" y2="0.956" xlink:href="#linear-gradient"/>
    <linearGradient id="linear-gradient-3" x1="1.02" y1="0.028" x2="0.062" y2="1.087" xlink:href="#linear-gradient"/>
    <linearGradient id="linear-gradient-4" x1="0.842" y1="0.201" x2="0.019" y2="1.024" xlink:href="#linear-gradient"/>
    <linearGradient id="linear-gradient-5" x1="0.838" y1="-0.132" x2="-0.059" y2="0.814" xlink:href="#linear-gradient"/>
    <linearGradient id="linear-gradient-6" x1="1.137" y1="0.164" x2="0.173" y2="1.048" xlink:href="#linear-gradient"/>
  </defs>
  <g id="Group_27543" data-name="Group 27543" transform="translate(-39.994 -23.924)">
    <path id="Path_98976" data-name="Path 98976" d="M6.6-13.294v-7.378h2.04a3.209,3.209,0,0,1,2.618.952,4.3,4.3,0,0,1,.782,2.788,3.713,3.713,0,0,1-.9,2.754,3.229,3.229,0,0,1-2.363.884ZM1.7-24.276V0H6.6V-9.69H9.214a10.661,10.661,0,0,0,3.162-.442,6.55,6.55,0,0,0,2.431-1.326,5.922,5.922,0,0,0,1.564-2.278A8.709,8.709,0,0,0,16.932-17a10.574,10.574,0,0,0-.34-2.669A6.446,6.446,0,0,0,15.47-22a5.738,5.738,0,0,0-2.057-1.649,7.069,7.069,0,0,0-3.145-.629Zm22.576,0h-4.9V-7.344a10.345,10.345,0,0,0,.646,3.978A5.67,5.67,0,0,0,21.76-1,5.873,5.873,0,0,0,24.242.1a15.06,15.06,0,0,0,2.89.272,13.442,13.442,0,0,0,2.89-.306A5.879,5.879,0,0,0,32.5-1.122a6.1,6.1,0,0,0,1.734-2.4,9.794,9.794,0,0,0,.646-3.825V-24.276h-4.9V-7.344a10.988,10.988,0,0,1-.119,1.683,3.81,3.81,0,0,1-.442,1.326,2.4,2.4,0,0,1-.867.884,2.776,2.776,0,0,1-1.428.323,2.8,2.8,0,0,1-1.411-.323,2.364,2.364,0,0,1-.884-.884A3.81,3.81,0,0,1,24.4-5.661a10.987,10.987,0,0,1-.119-1.683ZM42.262-7.582h-4.9V-6.6a7.034,7.034,0,0,0,1.785,5.168q1.785,1.8,5.933,1.8a9.809,9.809,0,0,0,6.205-1.751q2.227-1.751,2.227-5.593a9.422,9.422,0,0,0-.2-2.04,4.757,4.757,0,0,0-.731-1.683,6.217,6.217,0,0,0-1.411-1.428A11.568,11.568,0,0,0,48.892-13.4l-3.774-1.632a4.267,4.267,0,0,1-2.04-1.411,3.507,3.507,0,0,1-.476-1.887,4.623,4.623,0,0,1,.119-1.054,2.167,2.167,0,0,1,.442-.9,2.29,2.29,0,0,1,.867-.629,3.4,3.4,0,0,1,1.36-.238,2.253,2.253,0,0,1,2.04.935,4.87,4.87,0,0,1,.612,2.669h4.692v-.68a7.184,7.184,0,0,0-.561-2.975,5.408,5.408,0,0,0-1.564-2.04,6.305,6.305,0,0,0-2.38-1.156,11.972,11.972,0,0,0-3.009-.357,8.041,8.041,0,0,0-5.508,1.768,6.789,6.789,0,0,0-2.006,5.372,8.449,8.449,0,0,0,.374,2.635,5.418,5.418,0,0,0,1.173,2.006,7.61,7.61,0,0,0,1.989,1.513,17.619,17.619,0,0,0,2.822,1.19,19.246,19.246,0,0,1,2.057.8,5.187,5.187,0,0,1,1.343.867A2.786,2.786,0,0,1,48.2-7.531a4.054,4.054,0,0,1,.221,1.411,2.74,2.74,0,0,1-.9,2.261,3.129,3.129,0,0,1-2.023.731A4,4,0,0,1,43.911-3.4a2.514,2.514,0,0,1-1-.748,2.7,2.7,0,0,1-.51-1.173,8.1,8.1,0,0,1-.136-1.547ZM56.3-24.276V0h4.9V-10.778h5.712V0h4.9V-24.276h-4.9v9.282H61.2v-9.282ZM87.992-7.582H83.1V-6.6a7.034,7.034,0,0,0,1.785,5.168q1.785,1.8,5.933,1.8a9.809,9.809,0,0,0,6.2-1.751q2.227-1.751,2.227-5.593a9.422,9.422,0,0,0-.2-2.04,4.757,4.757,0,0,0-.731-1.683A6.217,6.217,0,0,0,96.9-12.121,11.568,11.568,0,0,0,94.622-13.4l-3.774-1.632a4.267,4.267,0,0,1-2.04-1.411,3.507,3.507,0,0,1-.476-1.887,4.624,4.624,0,0,1,.119-1.054,2.167,2.167,0,0,1,.442-.9,2.29,2.29,0,0,1,.867-.629,3.4,3.4,0,0,1,1.36-.238,2.253,2.253,0,0,1,2.04.935,4.87,4.87,0,0,1,.612,2.669h4.692v-.68A7.184,7.184,0,0,0,97.9-21.2a5.408,5.408,0,0,0-1.564-2.04,6.305,6.305,0,0,0-2.38-1.156,11.972,11.972,0,0,0-3.009-.357,8.041,8.041,0,0,0-5.508,1.768,6.789,6.789,0,0,0-2.006,5.372,8.449,8.449,0,0,0,.374,2.635,5.418,5.418,0,0,0,1.173,2.006,7.61,7.61,0,0,0,1.989,1.513,17.619,17.619,0,0,0,2.822,1.19,19.246,19.246,0,0,1,2.057.8,5.187,5.187,0,0,1,1.343.867,2.786,2.786,0,0,1,.731,1.071,4.054,4.054,0,0,1,.221,1.411,2.74,2.74,0,0,1-.9,2.261,3.129,3.129,0,0,1-2.023.731A4,4,0,0,1,89.641-3.4a2.514,2.514,0,0,1-1-.748,2.7,2.7,0,0,1-.51-1.173,8.1,8.1,0,0,1-.136-1.547Zm12.614-16.694L105.026,0H110.5l2.72-17.612h.068L116.008,0h5.474l4.42-24.276H121.21L118.524-6.324h-.068L115.6-24.276h-4.692L108.052-6.324h-.068L105.3-24.276Zm37.128,15.13L135.388-20.06h-.068L132.974-9.146Zm.646-15.13L144.806,0h-5.1l-1.122-5.134h-6.46L131,0h-5.1l6.426-24.276Zm13.362,10.982v-7.378h2.04a3.209,3.209,0,0,1,2.618.952,4.3,4.3,0,0,1,.782,2.788,3.713,3.713,0,0,1-.9,2.754,3.229,3.229,0,0,1-2.363.884Zm-4.9-10.982V0h4.9V-9.69h2.618a10.661,10.661,0,0,0,3.162-.442,6.55,6.55,0,0,0,2.431-1.326,5.922,5.922,0,0,0,1.564-2.278A8.709,8.709,0,0,0,162.078-17a10.574,10.574,0,0,0-.34-2.669A6.446,6.446,0,0,0,160.616-22a5.738,5.738,0,0,0-2.057-1.649,7.069,7.069,0,0,0-3.145-.629Z" transform="translate(99.365 62.367)"/>
    <g id="Group_26354" data-name="Group 26354" transform="translate(39.994 23.924)">
      <g id="Group_26352" data-name="Group 26352" transform="translate(2.032 4.914)">
        <path id="Path_97906" data-name="Path 97906" d="M122.794,274.649a43.363,43.363,0,0,1-6.948,4.328l-.01,0c-4.312,2.269-9.028,4.333-11.3,5.381a1.993,1.993,0,0,1-2.383-.513l-1.7-2.059,16.173-12.137.407,2.98c4.754-3.931,5.355-10.177,5.355-10.177s-6.249-.583-11,3.347l2.85.96-14.959,13.6-1.7-2.059a2,2,0,0,1-.056-2.437c1.452-2.027,4.358-6.26,7.392-10.062a.108.108,0,0,1,.017-.02,43.349,43.349,0,0,1,5.562-6.021,21.518,21.518,0,0,1,3.419-2.291l0,0c5.325-2.9,12.3-4.148,17.6-2.561.562,5.505-1.968,12.121-5.823,16.805h0A21.518,21.518,0,0,1,122.794,274.649Z" transform="translate(-82.073 -254.219)" fill="url(#linear-gradient)"/>
        <path id="Path_97907" data-name="Path 97907" d="M105.576,263.455c.737-.543,1.9-2.355,2.748-2.811l1.113-.863-7.925-.6L87.122,278.77l5.532-1.134C93.711,276.611,101.037,266.8,105.576,263.455Z" transform="translate(-78.21 -256.135)" fill="url(#linear-gradient-2)"/>
        <path id="Path_97908" data-name="Path 97908" d="M124.136,286.681c.672-.621,2.67-1.425,3.278-2.171l1.056-.93-.9,7.9-21.942,10.453,2.153-5.22C108.985,295.862,119.994,290.51,124.136,286.681Z" transform="translate(-85.352 -265.552)" fill="url(#linear-gradient-3)"/>
        <path id="Path_97909" data-name="Path 97909" d="M81.476,308.592l4.324-4.4L72.607,310.86l9.033-11.7L76.5,302.576a16.272,16.272,0,0,1,9.655-9.316l2.616,3.165-7.857,7.566,8.908-6.3,2.617,3.166A16.276,16.276,0,0,1,81.476,308.592Z" transform="translate(-72.607 -269.289)" fill="url(#linear-gradient-4)"/>
      </g>
      <g id="Group_26353" data-name="Group 26353">
        <path id="Path_97910" data-name="Path 97910" d="M107.561,249.1l-.192-.1A26.283,26.283,0,0,0,73.076,286.07l.721-2.136a10.012,10.012,0,0,1,.4-.966,23.813,23.813,0,0,1,32.049-31.763h0c.055.027.111.056.166.085a29.111,29.111,0,0,1,3.284-.962,26.8,26.8,0,0,1,6.126-.744q.451,0,.89.018C113.486,248.433,109.207,248.869,107.561,249.1Z" transform="translate(-69.298 -246.215)" fill="url(#linear-gradient-5)"/>
        <path id="Path_97911" data-name="Path 97911" d="M126.63,272.087a20.582,20.582,0,0,0,1.17-9.7,26.338,26.338,0,0,1-2.068,6.907,28.878,28.878,0,0,1-1.584,3.063c.019.064.035.128.052.192a23.811,23.811,0,0,1-37.093,25.392,11.145,11.145,0,0,1-1.1.227l-2.183.3a26.283,26.283,0,0,0,42.861-26.164C126.67,272.232,126.649,272.16,126.63,272.087Z" transform="translate(-74.907 -252.459)" fill="url(#linear-gradient-6)"/>
      </g>
    </g>
  </g>
</svg>
