<svg xmlns="http://www.w3.org/2000/svg" xmlns:xlink="http://www.w3.org/1999/xlink" width="141.385" height="140.21" viewBox="0 0 141.385 140.21">
  <defs>
    <linearGradient id="linear-gradient" x1="0.986" y1="0.015" x2="-0.476" y2="1.453" gradientUnits="objectBoundingBox">
      <stop offset="0" stop-color="#6ad114"/>
      <stop offset="0.541" stop-color="#34a759"/>
      <stop offset="1" stop-color="#08638f"/>
    </linearGradient>
    <linearGradient id="linear-gradient-2" x1="0.948" y1="-0.036" x2="-0.034" y2="0.956" xlink:href="#linear-gradient"/>
    <linearGradient id="linear-gradient-3" x1="1.02" y1="0.028" x2="0.062" y2="1.087" xlink:href="#linear-gradient"/>
    <linearGradient id="linear-gradient-4" x1="0.842" y1="0.201" x2="0.019" y2="1.024" xlink:href="#linear-gradient"/>
    <linearGradient id="linear-gradient-5" x1="0.838" y1="-0.132" x2="-0.059" y2="0.814" xlink:href="#linear-gradient"/>
    <linearGradient id="linear-gradient-6" x1="1.137" y1="0.164" x2="0.173" y2="1.048" xlink:href="#linear-gradient"/>
  </defs>
  <g id="Group_27203" data-name="Group 27203" opacity="0.14">
    <g id="Group_26352" data-name="Group 26352" transform="translate(5.417 13.103)">
      <path id="Path_97906" data-name="Path 97906" d="M165.556,308.693c-4.478,3.7-11.286,7.729-18.526,11.54a.19.19,0,0,1-.026.013c-11.5,6.051-24.072,11.553-30.118,14.348a5.314,5.314,0,0,1-6.354-1.369l-4.54-5.491,43.122-32.361,1.085,7.945c12.675-10.481,14.279-27.135,14.279-27.135s-16.661-1.555-29.336,8.924l7.6,2.56-39.887,36.272-4.54-5.491a5.322,5.322,0,0,1-.151-6.5c3.872-5.406,11.62-16.692,19.709-26.829a.287.287,0,0,1,.046-.052c5.109-6.406,10.35-12.349,14.831-16.054a57.374,57.374,0,0,1,9.117-6.108l0,0c14.2-7.745,32.792-11.06,46.926-6.828,1.5,14.678-5.249,32.318-15.525,44.808l0,0A57.374,57.374,0,0,1,165.556,308.693Z" transform="translate(-56.982 -254.219)" fill="url(#linear-gradient)"/>
      <path id="Path_97907" data-name="Path 97907" d="M136.326,270.574c1.965-1.449,5.07-6.278,7.328-7.5l2.966-2.3-21.13-1.595L87.122,311.409l14.749-3.024C104.692,305.653,124.224,279.5,136.326,270.574Z" transform="translate(-63.359 -251.056)" fill="url(#linear-gradient-2)"/>
      <path id="Path_97908" data-name="Path 97908" d="M154.979,291.849c1.793-1.657,7.12-3.8,8.741-5.789l2.816-2.48-2.4,21.053L105.626,332.5l5.74-13.917C114.581,316.329,143.936,302.058,154.979,291.849Z" transform="translate(-51.57 -235.512)" fill="url(#linear-gradient-3)"/>
      <path id="Path_97909" data-name="Path 97909" d="M96.254,334.14,107.782,322.4,72.607,340.188l24.084-31.205L82.99,318.1a43.386,43.386,0,0,1,25.744-24.838l6.976,8.438-20.95,20.174,23.753-16.785,6.979,8.441A43.4,43.4,0,0,1,96.254,334.14Z" transform="translate(-72.607 -229.345)" fill="url(#linear-gradient-4)"/>
    </g>
    <g id="Group_26353" data-name="Group 26353">
      <path id="Path_97910" data-name="Path 97910" d="M171.32,253.916c-.17-.088-.339-.178-.511-.265a70.078,70.078,0,0,0-91.438,98.831l1.922-5.7a26.694,26.694,0,0,1,1.059-2.575,63.494,63.494,0,0,1,85.453-84.69h.007c.147.072.3.149.444.226a77.606,77.606,0,0,1,8.755-2.565,71.459,71.459,0,0,1,16.334-1.982q1.2,0,2.372.049C187.117,252.128,175.709,253.292,171.32,253.916Z" transform="translate(-69.298 -246.215)" fill="url(#linear-gradient-5)"/>
      <path id="Path_97911" data-name="Path 97911" d="M197.953,288.244c4.034-9.672,3.713-20.24,3.12-25.853a70.229,70.229,0,0,1-5.514,18.416,77.008,77.008,0,0,1-4.224,8.166c.051.17.093.341.137.511a63.488,63.488,0,0,1-98.9,67.7,29.7,29.7,0,0,1-2.921.6l-5.822.8a70.08,70.08,0,0,0,114.281-69.761C198.06,288.631,198,288.438,197.953,288.244Z" transform="translate(-60.041 -235.909)" fill="url(#linear-gradient-6)"/>
    </g>
  </g>
</svg>
