<svg xmlns="http://www.w3.org/2000/svg" xmlns:xlink="http://www.w3.org/1999/xlink" width="246.371" height="52.585" viewBox="0 0 246.371 52.585">
  <defs>
    <linearGradient id="linear-gradient" x1="0.986" y1="0.015" x2="-0.476" y2="1.453" gradientUnits="objectBoundingBox">
      <stop offset="0" stop-color="#6ad114"/>
      <stop offset="0.541" stop-color="#34a759"/>
      <stop offset="1" stop-color="#08638f"/>
    </linearGradient>
    <linearGradient id="linear-gradient-2" x1="0.948" y1="-0.036" x2="-0.034" y2="0.956" xlink:href="#linear-gradient"/>
    <linearGradient id="linear-gradient-3" x1="1.02" y1="0.028" x2="0.062" y2="1.087" xlink:href="#linear-gradient"/>
    <linearGradient id="linear-gradient-4" x1="0.842" y1="0.201" x2="0.019" y2="1.024" xlink:href="#linear-gradient"/>
    <linearGradient id="linear-gradient-5" x1="0.838" y1="-0.132" x2="-0.059" y2="0.814" xlink:href="#linear-gradient"/>
    <linearGradient id="linear-gradient-6" x1="1.137" y1="0.164" x2="0.173" y2="1.048" xlink:href="#linear-gradient"/>
  </defs>
  <g id="Group_26429" data-name="Group 26429" transform="translate(-69.298 -246.215)">
    <text id="PUSH_SWAP" data-name="PUSH SWAP" transform="translate(128.669 284.658)" fill="#fff" font-size="34" font-family="SegoeUI, Segoe UI" letter-spacing="0.01em"><tspan x="0" y="0">PUSH SWAP</tspan></text>
    <g id="Group_26354" data-name="Group 26354" transform="translate(69.298 246.215)">
      <g id="Group_26352" data-name="Group 26352" transform="translate(2.032 4.914)">
        <path id="Path_97906" data-name="Path 97906" d="M122.794,274.649a43.363,43.363,0,0,1-6.948,4.328l-.01,0c-4.312,2.269-9.028,4.333-11.3,5.381a1.993,1.993,0,0,1-2.383-.513l-1.7-2.059,16.173-12.137.407,2.98c4.754-3.931,5.355-10.177,5.355-10.177s-6.249-.583-11,3.347l2.85.96-14.959,13.6-1.7-2.059a2,2,0,0,1-.056-2.437c1.452-2.027,4.358-6.26,7.392-10.062a.108.108,0,0,1,.017-.02,43.349,43.349,0,0,1,5.562-6.021,21.518,21.518,0,0,1,3.419-2.291l0,0c5.325-2.9,12.3-4.148,17.6-2.561.562,5.505-1.968,12.121-5.823,16.805h0A21.518,21.518,0,0,1,122.794,274.649Z" transform="translate(-82.073 -254.219)" fill="url(#linear-gradient)"/>
        <path id="Path_97907" data-name="Path 97907" d="M105.576,263.455c.737-.543,1.9-2.355,2.748-2.811l1.113-.863-7.925-.6L87.122,278.77l5.532-1.134C93.711,276.611,101.037,266.8,105.576,263.455Z" transform="translate(-78.21 -256.135)" fill="url(#linear-gradient-2)"/>
        <path id="Path_97908" data-name="Path 97908" d="M124.136,286.681c.672-.621,2.67-1.425,3.278-2.171l1.056-.93-.9,7.9-21.942,10.453,2.153-5.22C108.985,295.862,119.994,290.51,124.136,286.681Z" transform="translate(-85.352 -265.552)" fill="url(#linear-gradient-3)"/>
        <path id="Path_97909" data-name="Path 97909" d="M81.476,308.592l4.324-4.4L72.607,310.86l9.033-11.7L76.5,302.576a16.272,16.272,0,0,1,9.655-9.316l2.616,3.165-7.857,7.566,8.908-6.3,2.617,3.166A16.276,16.276,0,0,1,81.476,308.592Z" transform="translate(-72.607 -269.289)" fill="url(#linear-gradient-4)"/>
      </g>
      <g id="Group_26353" data-name="Group 26353">
        <path id="Path_97910" data-name="Path 97910" d="M107.561,249.1l-.192-.1A26.283,26.283,0,0,0,73.076,286.07l.721-2.136a10.012,10.012,0,0,1,.4-.966,23.813,23.813,0,0,1,32.049-31.763h0c.055.027.111.056.166.085a29.111,29.111,0,0,1,3.284-.962,26.8,26.8,0,0,1,6.126-.744q.451,0,.89.018C113.486,248.433,109.207,248.869,107.561,249.1Z" transform="translate(-69.298 -246.215)" fill="url(#linear-gradient-5)"/>
        <path id="Path_97911" data-name="Path 97911" d="M126.63,272.087a20.582,20.582,0,0,0,1.17-9.7,26.338,26.338,0,0,1-2.068,6.907,28.878,28.878,0,0,1-1.584,3.063c.019.064.035.128.052.192a23.811,23.811,0,0,1-37.093,25.392,11.145,11.145,0,0,1-1.1.227l-2.183.3a26.283,26.283,0,0,0,42.861-26.164C126.67,272.232,126.649,272.16,126.63,272.087Z" transform="translate(-74.907 -252.459)" fill="url(#linear-gradient-6)"/>
      </g>
    </g>
  </g>
</svg>
