<svg xmlns="http://www.w3.org/2000/svg" width="80.064" height="80.166" viewBox="0 0 80.064 80.166">
  <path id="Path_92519" data-name="Path 92519" d="M-421.826-1860.78a13.666,13.666,0,0,1,19.961,13.179c1.426.13,2.876.157,4.285.411a12.056,12.056,0,0,1,9.683,12.74,12.117,12.117,0,0,1-11.576,11.071c-1.986.045-3.974.007-5.557.007a48.415,48.415,0,0,1,6.263,3.572,15.389,15.389,0,0,1,4.86,17.258,15.638,15.638,0,0,1-14.5,10.434c-12.094.034-24.188.014-36.283.009-1.944,0-2.771-.9-2.773-3.007q-.011-13.325,0-26.649c0-1.607,0-1.577-1.642-1.615a68.109,68.109,0,0,1-9.347-.35c-5.424-.886-9.424-6.01-9.474-11.517a12.049,12.049,0,0,1,9.254-11.864c1.057-.232,1.187-.707,1.215-1.609a58.544,58.544,0,0,1,.474-8.84c1.44-7.746,7.822-13.439,15.861-14.552a18.623,18.623,0,0,1,18.4,9.595C-422.429-1861.961-422.15-1861.406-421.826-1860.78Zm-25.6,32.617c-.312-1.8.709-2.816,1.784-3.862q5.556-5.409,11.039-10.893a3.786,3.786,0,0,1,2.892-1.181c6.754.032,13.509.012,20.263.017,2.348,0,3.109.782,3.113,3.178q.009,5.628,0,11.257v1.572c2.937,0,5.683.031,8.427-.007a7.322,7.322,0,0,0,7.316-7.2,7.359,7.359,0,0,0-7.193-7.466c-1.457-.053-2.918-.015-4.377-.019-2.666-.009-3.515-1.129-2.819-3.72a8.693,8.693,0,0,0-7.869-11.1,8.666,8.666,0,0,0-6.518,2.348c-1.671,1.476-3.519.871-4.091-1.265-.086-.322-.165-.646-.254-.967A13.823,13.823,0,0,0-442.6-1867a13.751,13.751,0,0,0-10.158,13.316c-.045,2.709.009,5.42-.022,8.13-.022,1.916-.853,2.728-2.745,2.79-.292.01-.584.008-.875.031a7.39,7.39,0,0,0-6.8,6.966,7.122,7.122,0,0,0,6.085,7.541A96.041,96.041,0,0,0-447.428-1828.163ZM-430.1-1839.3c0,3.131,0,6.128,0,9.125,0,2.6-.715,3.3-3.364,3.307-2.585,0-5.173.057-7.756-.025-1.173-.037-1.576.264-1.569,1.508.051,9.049.026,18.1.031,27.148,0,.44.051.88.079,1.342h22.413c.021-.125.046-.176.03-.2a5.362,5.362,0,0,0-.359-.51,15.214,15.214,0,0,1-3.711-9.354c-.046-1.051-.474-1.223-1.376-1.209-2.71.042-5.421.017-8.132.011a2.408,2.408,0,0,1-2.551-1.615,2.316,2.316,0,0,1,2.406-3.078c3.127-.041,6.255,0,9.383-.035.407,0,1.016-.142,1.183-.424.772-1.31,1.421-2.692,2.209-4.234h-1.42c-3.67,0-7.339.009-11.009-.006-1.818-.007-2.907-.937-2.88-2.4.027-1.429,1.056-2.274,2.839-2.28,3.545-.012,7.09.027,10.634-.017,1.9-.023,3.764-.1,4.07,2.315,1.692-.881,3.24-1.776,4.867-2.494a1.45,1.45,0,0,0,1.056-1.562q-.053-7.068,0-14.137c.009-.978-.287-1.291-1.28-1.281-4.879.045-9.758.019-14.637.023C-429.265-1839.374-429.591-1839.332-430.1-1839.3Zm21.38,20.6a10.935,10.935,0,0,0-10.924,11.006,10.97,10.97,0,0,0,10.935,10.887,10.955,10.955,0,0,0,10.98-10.96A10.921,10.921,0,0,0-408.716-1818.7Zm-26.088-17.073-4.187,4.189c1.24,0,2.421.031,3.6-.028a.854.854,0,0,0,.562-.61C-434.773-1833.368-434.8-1834.517-434.8-1835.774Z" transform="translate(467.926 1872.254)" fill="#ebebeb"/>
</svg>
