<svg id="Group_26343" data-name="Group 26343" xmlns="http://www.w3.org/2000/svg" width="25.064" height="25.301" viewBox="0 0 25.064 25.301">
  <path id="Path_97884" data-name="Path 97884" d="M4.507,3.953a3.312,3.312,0,1,1,6.562-.633V7.432c.474,0,.949-.079,1.423-.079a7.671,7.671,0,0,1,1.344.079V3.321A3.341,3.341,0,0,1,17.157,0a3.419,3.419,0,0,1,3.321,3.953l-.87,4.823c3.084,1.344,5.455,3.716,5.455,6.641v1.818c0,2.451-1.581,4.507-3.874,5.851a16.5,16.5,0,0,1-8.7,2.214,16.5,16.5,0,0,1-8.7-2.214C1.581,21.743,0,19.687,0,17.236V15.418c0-2.925,2.293-5.3,5.376-6.641ZM18.422,9.409,19.45,3.716A2.337,2.337,0,0,0,17.157.949a2.3,2.3,0,0,0-2.293,2.293V8.46a4.508,4.508,0,0,0-1.028-.079c-.474,0-.87-.079-1.344-.079a8.593,8.593,0,0,0-1.423.079c-.316,0-.712.079-1.028.079V3.321A2.28,2.28,0,1,0,5.535,3.8L6.562,9.488C3.242,10.753,1.028,12.967,1.028,15.5v1.818c0,3.874,5.139,7.037,11.464,7.037s11.464-3.163,11.464-7.037V15.5C24.036,12.888,21.822,10.674,18.422,9.409Z" fill="#633001"/>
  <path id="Path_97885" data-name="Path 97885" d="M24.329,21.318c0,3.874-5.139,7.037-11.464,7.037S1.4,25.193,1.4,21.318V19.5H24.408v1.818Z" transform="translate(-0.293 -4.082)" fill="#fedc90"/>
  <path id="Path_97886" data-name="Path 97886" d="M5.828,4.067a2.28,2.28,0,1,1,4.507-.474V8.811a23.944,23.944,0,0,1,2.451-.158c.791,0,1.581.079,2.372.158V3.593A2.3,2.3,0,0,1,17.45,1.3a2.379,2.379,0,0,1,2.293,2.767L18.715,9.76c3.321,1.265,5.614,3.479,5.614,6.009,0,3.874-5.139,7.037-11.464,7.037S1.4,19.643,1.4,15.769c0-2.53,2.214-4.744,5.535-6.009Z" transform="translate(-0.293 -0.272)" fill="#d1884f"/>
  <path id="Path_97887" data-name="Path 97887" d="M11.13,18.4c0,1.028-.553,1.9-1.265,1.9S8.6,19.425,8.6,18.4s.553-1.9,1.265-1.9S11.13,17.37,11.13,18.4Z" transform="translate(-1.8 -3.454)" fill="#633001"/>
  <path id="Path_97888" data-name="Path 97888" d="M22.23,18.4c0,1.028-.553,1.9-1.265,1.9s-1.265-.87-1.265-1.9.553-1.9,1.265-1.9S22.23,17.37,22.23,18.4Z" transform="translate(-4.124 -3.454)" fill="#633001"/>
</svg>
