<svg xmlns="http://www.w3.org/2000/svg" width="16.636" height="10.848" viewBox="0 0 16.636 10.848">
  <g id="Group_424" data-name="Group 424" transform="translate(-2094.997 -116.866)">
    <path id="Path_2527" data-name="Path 2527" d="M2169.409,233.237h-4.156c-.474,0-.56-.092-.543-.57a4.695,4.695,0,0,1,9.238-.964,5.873,5.873,0,0,1,.142,1.051c.025.368-.1.481-.472.482Q2171.514,233.239,2169.409,233.237Z" transform="translate(-66.086 -105.524)"/>
    <path id="Path_2528" data-name="Path 2528" d="M2211.3,119.4a2.535,2.535,0,1,1-2.528-2.53A2.535,2.535,0,0,1,2211.3,119.4Z" transform="translate(-105.453 0)"/>
    <path id="Path_2529" data-name="Path 2529" d="M2123.821,174.244a1.809,1.809,0,1,1,1.793,1.811A1.814,1.814,0,0,1,2123.821,174.244Z" transform="translate(-27.325 -52.68)"/>
    <path id="Path_2530" data-name="Path 2530" d="M2319.4,172.437a1.81,1.81,0,1,1-1.8,1.826A1.815,1.815,0,0,1,2319.4,172.437Z" transform="translate(-211.03 -52.682)"/>
    <path id="Path_2531" data-name="Path 2531" d="M2098.878,255.89a5.589,5.589,0,0,0-.985,3.532h-.325c-.694,0-1.386,0-2.08,0-.385,0-.5-.119-.491-.5a3.272,3.272,0,0,1,3.657-3.09C2098.729,255.844,2098.8,255.87,2098.878,255.89Z" transform="translate(0 -131.709)"/>
    <path id="Path_2532" data-name="Path 2532" d="M2340.683,259.578a5.378,5.378,0,0,0-1-3.5,2.946,2.946,0,0,1,1.339-.016,3.275,3.275,0,0,1,2.575,3.094c0,.3-.117.444-.41.447-.789.007-1.577,0-2.366,0A.992.992,0,0,1,2340.683,259.578Z" transform="translate(-231.967 -131.89)"/>
  </g>
</svg>
