<svg xmlns="http://www.w3.org/2000/svg" width="12.391" height="21.084" viewBox="0 0 12.391 21.084">
  <path id="Path_87902" data-name="Path 87902" d="M-1318.862,50.411c-1.087-1.081-2.145-2.132-3.2-3.186q-2.26-2.256-4.515-4.516a1.193,1.193,0,0,1,0-1.936c.147-.148.294-.3.442-.442a1.164,1.164,0,0,1,1.819,0c1,.989,1.988,1.985,2.981,2.978l6.144,6.146a1.2,1.2,0,0,1-.007,1.962l-9.055,9.055a1.2,1.2,0,0,1-1.96,0c-.156-.155-.313-.308-.465-.466a1.152,1.152,0,0,1,0-1.748c.972-.983,1.953-1.958,2.93-2.935l4.632-4.632C-1319.041,50.608-1318.97,50.526-1318.862,50.411Z" transform="translate(1327.081 -39.89)"/>
</svg>
