<svg xmlns="http://www.w3.org/2000/svg" xmlns:xlink="http://www.w3.org/1999/xlink" width="36" height="36" viewBox="0 0 36 36">
  <defs>
    <linearGradient id="linear-gradient" x1="-0.553" y1="1.443" x2="0.644" y2="0.371" gradientUnits="objectBoundingBox">
      <stop offset="0" stop-color="#6ad114"/>
      <stop offset="0.541" stop-color="#34a759"/>
      <stop offset="1" stop-color="#08638f"/>
    </linearGradient>
    <linearGradient id="linear-gradient-2" x1="0.128" y1="0.834" x2="0.872" y2="0.166" xlink:href="#linear-gradient"/>
  </defs>
  <g id="Group_27017" data-name="Group 27017" transform="translate(-55 -1090)">
    <g id="Group_26654" data-name="Group 26654" transform="translate(55 1090)">
      <g id="Group_26398" data-name="Group 26398" transform="translate(0 0)">
        <circle id="Ellipse_1976" data-name="Ellipse 1976" cx="16.079" cy="16.079" r="16.079" transform="translate(1.949 1.949)" fill="#08638f"/>
        <path id="Ellipse_1976_-_Outline" data-name="Ellipse 1976 - Outline" d="M13-5A18,18,0,1,1-5,13,18.02,18.02,0,0,1,13-5Zm0,32.975A14.975,14.975,0,1,0-1.975,13,14.992,14.992,0,0,0,13,27.975Z" transform="translate(5 5)" fill="#2f98c1"/>
        <path id="Ellipse_1977" data-name="Ellipse 1977" d="M14.943-2A16.866,16.866,0,0,1,24.416.894a16.99,16.99,0,0,1,6.138,7.454,16.921,16.921,0,0,1-1.562,16.068,16.99,16.99,0,0,1-7.454,6.138A16.921,16.921,0,0,1,5.469,28.991,16.99,16.99,0,0,1-.668,21.537,16.921,16.921,0,0,1,.894,5.469,16.99,16.99,0,0,1,8.348-.668,16.837,16.837,0,0,1,14.943-2Zm0,32.675A15.732,15.732,0,1,0-.79,14.943,15.75,15.75,0,0,0,14.943,30.675Z" transform="translate(3.057 3.057)" fill="#014763"/>
        <circle id="Ellipse_1978" data-name="Ellipse 1978" cx="15.388" cy="15.388" r="15.388" transform="translate(2.612 2.612)" fill="url(#linear-gradient)"/>
        <circle id="Ellipse_1979" data-name="Ellipse 1979" cx="15.874" cy="15.874" r="15.874" transform="translate(2.126 2.126)" fill="#36aace"/>
        <circle id="Ellipse_1980" data-name="Ellipse 1980" cx="15.63" cy="15.63" r="15.63" transform="translate(2.37 2.37)" fill="url(#linear-gradient-2)"/>
      </g>
      <g id="Group_26401" data-name="Group 26401" transform="translate(8.968 9.043)">
        <g id="Group_26399" data-name="Group 26399" transform="translate(0 0)">
          <path id="Path_97939" data-name="Path 97939" d="M631.9,187.535h0c-.074.04-.146.083-.218.125l-2.56-.193-4.683,6.375,1.8-.369c.242-.234,1.486-1.873,2.717-3.207-.982,1.233-1.921,2.6-2.391,3.257a.65.65,0,0,0,.018.793l.554.67L632,190.558l-.928-.312a5.4,5.4,0,0,1,3.581-1.09,5.4,5.4,0,0,1-1.743,3.312l-.133-.97-5.264,3.95.554.67a.649.649,0,0,0,.776.167c.733-.339,2.25-1,3.645-1.735-1.542.958-3.383,1.871-3.658,2.064l-.7,1.7,7.142-3.4.291-2.551c.055-.063.11-.125.164-.19h0a7.991,7.991,0,0,0,1.9-5.47A7.992,7.992,0,0,0,631.9,187.535Z" transform="translate(-620.57 -184.573)" fill="#176329"/>
          <path id="Path_97939_-_Outline" data-name="Path 97939 - Outline" d="M635.264,185.475h0a6.115,6.115,0,0,1,1.75.239.3.3,0,0,1,.214.259,8.267,8.267,0,0,1-1.963,5.693l0,0c-.034.042-.069.082-.1.122l-.281,2.457a.3.3,0,0,1-.17.239l-7.142,3.4a.3.3,0,0,1-.41-.388l.639-1.55a.937.937,0,0,1-.655-.337l-.554-.67a.206.206,0,1,0-.172-.354.3.3,0,0,1-.212-.109l-.554-.67a.939.939,0,0,1-.207-.706l-1.643.337a.3.3,0,0,1-.3-.475l4.683-6.375a.3.3,0,0,1,.267-.123l2.466.186.14-.079,0,0A9.08,9.08,0,0,1,635.264,185.475Zm1.379.764a5.683,5.683,0,0,0-1.379-.159,8.457,8.457,0,0,0-3.916,1.021l-.005,0c-.063.034-.125.07-.19.109l-.019.011a.3.3,0,0,1-.176.041l-2.393-.181-4.119,5.607.937-.192c.109-.123.318-.38.553-.669.524-.645,1.317-1.621,2.1-2.466a.3.3,0,0,1,.459.394c-.786.987-1.552,2.07-2.058,2.787q-.187.265-.324.457a.348.348,0,0,0,.006.424l.352.426,4.254-3.868-.44-.148a.3.3,0,0,1-.1-.52,5.627,5.627,0,0,1,3.485-1.169c.195,0,.313.011.318.011a.3.3,0,0,1,.273.33,5.6,5.6,0,0,1-.308,1.251A5.233,5.233,0,0,1,632.409,192a.3.3,0,0,1-.492-.192l-.063-.46-4.6,3.451.352.426a.336.336,0,0,0,.26.12.367.367,0,0,0,.155-.035l.522-.238c.8-.361,2-.907,3.11-1.49a.3.3,0,0,1,.3.525c-.977.607-2.082,1.2-2.814,1.594-.328.176-.619.333-.76.417l-.364.884,6.281-2.992.272-2.384a.3.3,0,0,1,.073-.165l.008-.009c.052-.059.1-.116.149-.174l0,0A7.767,7.767,0,0,0,636.643,186.24Zm-4.208,4.9a5.212,5.212,0,0,0,1.169-2.392,5.219,5.219,0,0,0-2.569.7l.366.123a.3.3,0,0,1,.107.511l-4.846,4.407,5.239-3.931a.3.3,0,0,1,.481.2Z" transform="translate(-619.873 -183.876)" fill="#176329"/>
          <path id="Path_97940" data-name="Path 97940" d="M612.806,230.506a5.3,5.3,0,0,0,3.569-2.516l-.852-1.031-2.9,2.049,2.558-2.463-.852-1.03a5.3,5.3,0,0,0-3.143,3.032l1.672-1.113-2.94,3.809,4.294-2.172Z" transform="translate(-608.955 -215.812)" fill="#176329"/>
          <path id="Path_97940_-_Outline" data-name="Path 97940 - Outline" d="M609.222,230.85a.3.3,0,0,1-.24-.487l1.817-2.355-.143.1a.3.3,0,0,1-.454-.349,5.14,5.14,0,0,1,.715-1.286,5.522,5.522,0,0,1,2.615-1.935.3.3,0,0,1,.333.093l.852,1.03a.3.3,0,0,0,.342.414l.852,1.031a.3.3,0,0,1,.029.344,5.522,5.522,0,0,1-2.392,2.2,5.142,5.142,0,0,1-1.4.46.3.3,0,0,1-.257-.512l.12-.122-2.655,1.343A.3.3,0,0,1,609.222,230.85Zm2.94-4.415a.3.3,0,0,1,.24.487l-2.123,2.751,3.1-1.569a.3.3,0,0,1,.352.482l-.558.568.131-.062a4.843,4.843,0,0,0,2-1.774l-.536-.649-2.671,1.887a.3.3,0,0,1-.384-.465l2.356-2.268-.536-.648a4.92,4.92,0,0,0-2.2,1.749l.661-.44A.3.3,0,0,1,612.161,226.435Z" transform="translate(-608.258 -215.114)" fill="#176329"/>
          <path id="Path_97941" data-name="Path 97941" d="M608.075,190.748a3.169,3.169,0,0,1,.129-.315A7.751,7.751,0,0,1,618.636,180.1h0l.054.027a9.47,9.47,0,0,1,1.069-.313,8.736,8.736,0,0,1,1.994-.242q.146,0,.29.006a6.881,6.881,0,0,0-2.978-.163l-.062-.032a8.555,8.555,0,0,0-11.162,12.065Z" transform="translate(-606.308 -178.168)" fill="#176329"/>
          <path id="Path_97941_-_Outline" data-name="Path 97941 - Outline" d="M607.143,191.048a.3.3,0,0,1-.259-.146,8.856,8.856,0,0,1,11.537-12.5,9.424,9.424,0,0,1,1.2-.08,5.4,5.4,0,0,1,1.823.271.3.3,0,0,1-.116.587c-.089,0-.182-.006-.276-.006a8.4,8.4,0,0,0-1.924.234h0a9.188,9.188,0,0,0-1.035.3.3.3,0,0,1-.241-.016l-.005,0-.031-.016-.016-.007a7.347,7.347,0,0,0-3.331-.788,7.46,7.46,0,0,0-7.451,7.451,7.36,7.36,0,0,0,.758,3.271.3.3,0,0,1,0,.261,2.858,2.858,0,0,0-.116.281v0l-.235.7a.3.3,0,0,1-.254.2Zm7.329-12.972a8.253,8.253,0,0,0-7.4,11.921l.014-.042c.005-.016.031-.093.083-.214a7.957,7.957,0,0,1-.758-3.409,8.065,8.065,0,0,1,8.056-8.056,7.945,7.945,0,0,1,3.542.822q.138-.048.279-.091a.3.3,0,0,1-.063-.024l-.035-.018-.027-.014A8.154,8.154,0,0,0,614.472,178.076Z" transform="translate(-605.611 -177.471)" fill="#176329"/>
          <path id="Path_97942" data-name="Path 97942" d="M635.072,197.8a6.7,6.7,0,0,0,.381-3.156,8.567,8.567,0,0,1-.673,2.248,9.437,9.437,0,0,1-.516,1c.006.021.011.042.017.062a7.75,7.75,0,0,1-12.073,8.264,3.621,3.621,0,0,1-.357.074l-.711.1a8.555,8.555,0,0,0,13.951-8.516C635.085,197.851,635.078,197.828,635.072,197.8Z" transform="translate(-617.934 -191.113)" fill="#176329"/>
          <path id="Path_97942_-_Outline" data-name="Path 97942 - Outline" d="M634.755,193.648h.006a.3.3,0,0,1,.295.271,7.089,7.089,0,0,1-.364,3.208,8.854,8.854,0,0,1-14.45,8.793.3.3,0,0,1,.159-.527l.709-.1c.091-.013.206-.037.326-.068a.3.3,0,0,1,.253.05,7.382,7.382,0,0,0,4.408,1.448,7.452,7.452,0,0,0,7.194-9.389v0c0-.018-.009-.036-.015-.054a.3.3,0,0,1,.031-.238,9.165,9.165,0,0,0,.5-.965v0a8.327,8.327,0,0,0,.65-2.168A.3.3,0,0,1,634.755,193.648ZM626.1,207.531a8.254,8.254,0,0,0,8-10.279v0c0-.012-.006-.023-.009-.035l-.008-.031a.3.3,0,0,1,.014-.193,4.564,4.564,0,0,0,.155-.432c-.109.23-.229.458-.358.682a8.05,8.05,0,0,1-12.446,8.609c-.089.02-.172.035-.245.046h-.005l-.019,0A8.237,8.237,0,0,0,626.1,207.531Z" transform="translate(-617.236 -190.415)" fill="#176329"/>
        </g>
        <g id="Group_26400" data-name="Group 26400" transform="translate(0.502 0.496)">
          <path id="Path_97943" data-name="Path 97943" d="M632.9,188.505h0c-.074.04-.146.083-.218.125l-2.56-.193-4.683,6.375,1.8-.369c.242-.234,1.486-1.873,2.717-3.207-.982,1.233-1.921,2.6-2.391,3.257a.649.649,0,0,0,.018.793l.554.67L633,191.528l-.928-.312a5.4,5.4,0,0,1,3.581-1.09,5.4,5.4,0,0,1-1.743,3.312l-.133-.97-5.264,3.95.554.67a.649.649,0,0,0,.776.167c.733-.339,2.25-1,3.645-1.735-1.542.958-3.383,1.871-3.658,2.064l-.7,1.7,7.142-3.4.291-2.551c.055-.063.11-.125.164-.19h0a7.991,7.991,0,0,0,1.9-5.47A7.991,7.991,0,0,0,632.9,188.505Z" transform="translate(-621.873 -185.846)" fill="#fff"/>
          <path id="Path_97944" data-name="Path 97944" d="M613.806,231.477a5.3,5.3,0,0,0,3.569-2.516l-.852-1.031-2.9,2.049,2.558-2.463-.852-1.03a5.3,5.3,0,0,0-3.143,3.032l1.672-1.113-2.94,3.809,4.294-2.172Z" transform="translate(-610.258 -217.085)" fill="#fff"/>
          <path id="Path_97945" data-name="Path 97945" d="M609.075,191.718a3.153,3.153,0,0,1,.129-.315,7.751,7.751,0,0,1,10.431-10.338h0l.054.027a9.468,9.468,0,0,1,1.069-.313,8.725,8.725,0,0,1,1.994-.242c.1,0,.194,0,.29.006a6.881,6.881,0,0,0-2.978-.163l-.062-.032a8.555,8.555,0,0,0-11.162,12.065Z" transform="translate(-607.611 -179.441)" fill="#fff"/>
          <path id="Path_97946" data-name="Path 97946" d="M636.072,198.774a6.7,6.7,0,0,0,.381-3.156,8.579,8.579,0,0,1-.673,2.248,9.418,9.418,0,0,1-.516,1c.006.021.011.042.017.062a7.75,7.75,0,0,1-12.073,8.264,3.57,3.57,0,0,1-.357.074l-.711.1a8.555,8.555,0,0,0,13.951-8.516C636.085,198.821,636.078,198.8,636.072,198.774Z" transform="translate(-619.236 -192.385)" fill="#fff"/>
        </g>
      </g>
    </g>
  </g>
</svg>
