<svg xmlns="http://www.w3.org/2000/svg" width="15.453" height="15.453" viewBox="0 0 15.453 15.453">
  <g id="Group_564" data-name="Group 564" transform="translate(-2304.967 -567.015)">
    <path id="Path_2525" data-name="Path 2525" d="M2312.694,567.015a7.726,7.726,0,1,1-7.727,7.726A7.739,7.739,0,0,1,2312.694,567.015Zm-6.617,7.721a6.617,6.617,0,1,0,6.628-6.612A6.629,6.629,0,0,0,2306.076,574.736Z" fill="#fff"/>
    <path id="Path_2526" data-name="Path 2526" d="M2449,633.6c0-.74-.006-1.48,0-2.22a.557.557,0,1,1,1.111,0c0,.072,0,.145,0,.217v3.161c0,.541,0,.541.549.541h2.871a2.319,2.319,0,0,1,.265.007.554.554,0,0,1,.5.558.545.545,0,0,1-.521.532c-.265.012-.531.005-.8.005q-1.653,0-3.306,0c-.476,0-.671-.2-.673-.677C2449,635.017,2449,634.309,2449,633.6Z" transform="translate(-137.081 -60.687)" fill="#fff"/>
  </g>
</svg>
