<svg xmlns="http://www.w3.org/2000/svg" width="26.466" height="21.829" viewBox="0 0 26.466 21.829">
  <path id="Path_97958" data-name="Path 97958" d="M-422.842,1370.4a11.756,11.756,0,0,0,7.77-2.338c-2.893-.7-4.513-1.957-4.943-3.867h2.118l.042-.126a5.693,5.693,0,0,1-4.152-5.347l2.235.614.079-.144a5.859,5.859,0,0,1-2.261-4.248,5.318,5.318,0,0,1,.761-2.961,15.52,15.52,0,0,0,11.076,5.681,17.488,17.488,0,0,1,.331-2.793,5.446,5.446,0,0,1,8.842-2.557.843.843,0,0,0,.97.235c.923-.353,1.857-.677,2.857-1.038a5.413,5.413,0,0,1-2.123,2.76l.078.127,2.674-.734.114.107a27.739,27.739,0,0,1-2.01,2.068,1.8,1.8,0,0,0-.713,1.522,15.44,15.44,0,0,1-11,14.739,15.5,15.5,0,0,1-12.37-1.455C-422.6,1370.579-422.718,1370.488-422.842,1370.4Z" transform="translate(422.842 -1350.949)" fill="#fff"/>
</svg>
