<svg xmlns="http://www.w3.org/2000/svg" width="28.78" height="20.405" viewBox="0 0 28.78 20.405">
  <path id="Path_99124" data-name="Path 99124" d="M2927.229,1520.7c2.128.086,5.181.194,8.231.344a9.62,9.62,0,0,1,2.209.337,3.439,3.439,0,0,1,2.537,2.949,41.224,41.224,0,0,1,.417,9.759c-.083,1.237-.257,2.471-.46,3.694a3.493,3.493,0,0,1-2.8,2.767,22.938,22.938,0,0,1-2.67.322c-4.983.3-9.97.288-14.956.1-1.343-.052-2.685-.2-4.022-.351a3.641,3.641,0,0,1-3.238-3.217,40.817,40.817,0,0,1-.417-9.4,35.166,35.166,0,0,1,.516-3.956,3.453,3.453,0,0,1,3.055-2.81c1.4-.164,2.8-.307,4.2-.367C2921.988,1520.773,2924.146,1520.761,2927.229,1520.7Zm-3.735,5.868v8.72l7.492-4.353Z" transform="translate(-2911.956 -1520.696)" fill="#fff"/>
</svg>
