<svg xmlns="http://www.w3.org/2000/svg" width="19.729" height="19.733" viewBox="0 0 19.729 19.733">
  <g id="Group_27014" data-name="Group 27014" transform="translate(-5179.997 -4511.936)">
    <path id="Path_98573" data-name="Path 98573" d="M5352.984,4687.222a1.882,1.882,0,0,1-.333-.218c-1.543-1.539-3.079-3.087-4.624-4.625a.913.913,0,1,1,1.245-1.328c.746.724,1.477,1.462,2.215,2.194l2.549,2.526c.084.083.173.16.312.287,0-.789-.008-1.511,0-2.232a.9.9,0,1,1,1.8-.038c.009,1.476.013,2.952,0,4.428a.966.966,0,0,1-1,.935q-2.231.022-4.461,0a.9.9,0,1,1,.017-1.8c.726-.013,1.453,0,2.179,0Z" transform="translate(-156.433 -157.491)" fill="#767676"/>
    <path id="Path_98574" data-name="Path 98574" d="M5181.8,4516.233c0,.786.008,1.474-.006,2.162a1.432,1.432,0,0,1-.122.579.852.852,0,0,1-.993.434.91.91,0,0,1-.682-.923c-.007-.983,0-1.968,0-2.951,0-.458,0-.917,0-1.375a.923.923,0,0,1,.977-1q2.163-.012,4.326,0a.9.9,0,1,1-.022,1.795c-.7,0-1.408,0-2.194,0,.117.129.189.215.269.294q2.369,2.372,4.736,4.746a1.444,1.444,0,0,1,.358.548.845.845,0,0,1-.419,1,.881.881,0,0,1-1.125-.2q-1.486-1.478-2.963-2.965Z" transform="translate(0 -1.137)" fill="#767676"/>
    <path id="Path_98575" data-name="Path 98575" d="M5181.98,4685.489c.136-.128.218-.2.294-.276q2.373-2.37,4.746-4.74a.9.9,0,0,1,1.572.323.933.933,0,0,1-.335.986q-2.3,2.3-4.6,4.6a2.622,2.622,0,0,1-.38.268l.081.111c.094.006.188.017.282.017.638,0,1.275-.009,1.912,0a.9.9,0,1,1,.042,1.793q-2.264.026-4.528,0a.868.868,0,0,1-.865-.928q-.022-2.214,0-4.428a.877.877,0,0,1,.913-.912.894.894,0,0,1,.866.958C5181.986,4683.978,5181.98,4684.692,5181.98,4685.489Z" transform="translate(-0.178 -156.917)" fill="#767676"/>
    <path id="Path_98576" data-name="Path 98576" d="M5353.528,4515.041c-.129.119-.21.188-.285.264q-2.4,2.4-4.794,4.787a1.461,1.461,0,0,1-.551.355.854.854,0,0,1-.976-.411.885.885,0,0,1,.121-1.056c.354-.374.723-.731,1.087-1.1l3.84-3.844c.076-.076.146-.158.271-.292-.776,0-1.486,0-2.2,0a.9.9,0,0,1-.948-.644.888.888,0,0,1,.866-1.154q2.231-.025,4.461,0a.9.9,0,0,1,.9.964q.011,2.18,0,4.361a.9.9,0,1,1-1.8,0c-.009-.615,0-1.23,0-1.845Z" transform="translate(-155.612)" fill="#767676"/>
  </g>
</svg>
