<?xml version="1.0" encoding="utf-8"?>
<!-- Generator: Adobe Illustrator 23.0.0, SVG Export Plug-In . SVG Version: 6.00 Build 0)  -->
<svg version="1.1" id="Layer_1" xmlns="http://www.w3.org/2000/svg" xmlns:xlink="http://www.w3.org/1999/xlink" x="0px" y="0px"
	 viewBox="0 0 418.21 418.21" style="enable-background:new 0 0 418.21 418.21;" xml:space="preserve">
<style type="text/css">
	.st0{fill:#0E1621;}
	.st1{fill:#989898;}
</style>
<path class="st0" d="M209.11,418.21L209.11,418.21C93.62,418.21,0,324.59,0,209.11v0C0,93.62,93.62,0,209.11,0h0
	c115.49,0,209.11,93.62,209.11,209.11v0C418.21,324.59,324.59,418.21,209.11,418.21z"/>
<g>
	<path class="st1" d="M224.75,167.89c4.25,3.06,7.16,7.92,7.55,13.56c0.69,10.05-6.9,18.76-16.95,19.45
		c-10.05,0.69-18.76-6.9-19.45-16.95c-0.69-10.05,6.9-18.76,16.95-19.45c4.35-0.3,8.44,0.95,11.74,3.28
		c-7.1-4.93-15.86-7.58-25.16-6.94c-21.72,1.49-38.11,20.31-36.61,42.02c1.49,21.72,20.31,38.11,42.02,36.61
		c21.71-1.49,38.11-20.31,36.61-42.02C240.61,185.11,234.15,174.49,224.75,167.89z"/>
	<g>
		<path class="st1" d="M253.88,122.41c-44.66-0.59-62.11-46.92-62.11-46.92c-17.96,50.63-36.08,73.04-46.85,82.67
			c4.01-2.38,10.76-5.7,20.19-8c17.48-25.06,26.42-59.67,26.42-59.67c36.05,53.85,61.46,45.52,61.46,45.52
			C258.92,131.94,253.88,122.41,253.88,122.41z M181.78,147.5c-3.93,0.27-7.78,0.8-11.52,1.58c8.39-1.54,18.52-2.2,30.35-0.88
			c-3.41-0.51-6.9-0.8-10.42-0.88c9.46-7.56,17.24-17.62,23.27-27.34l-4.37-4.81C197.49,135.02,187.41,143.79,181.78,147.5z"/>
		<path class="st1" d="M286.28,118.9c-43.82-3.02-57.75-45.95-57.75-45.95c-4.69,12.65-9.38,23.22-13.92,32.1l0,0
			c0,0,2.08,2.26,5.05,4.01c6.3-12.1,9.5-21.61,9.5-21.61c31.62,51.59,54.82,45.88,54.82,45.88
			C291.89,128.66,286.28,118.9,286.28,118.9z"/>
	</g>
	<path class="st1" d="M271.35,207.57c7.14-12.7,8.68-19.76,8.41-23.65c-0.28-4-2.47-4.66-2.47-4.66
		c-13.88-1.01-26.34-7.4-34.13-12.36c-2.66-2.15-5.44-4.15-8.32-6c-0.01,0-0.03-0.01-0.03-0.01l-0.01,0.01
		c-10.56-6.7-22.62-11.14-35.46-12.84c-10.87-1.1-20.29-0.57-28.21,0.77c-2.16,0.42-4.3,0.88-6.41,1.44
		c0.04-0.04,0.06-0.09,0.1-0.14c-9.46,2.32-16.23,5.66-20.2,8.02c-0.36,0.32-0.72,0.63-1.06,0.92c-3.05,1.77-5.98,3.72-8.78,5.84
		c-0.01,0-0.01,0-0.02,0.01c-23.02,17.34-37.1,45.59-34.98,76.48c3.35,48.56,45.41,85.21,93.97,81.87
		c3.61-0.25,7.15-0.71,10.62-1.38c-1.98-7.21-1.49-14.95,1.38-21.85l0.3-0.7c1.74-4.19,2.01-8.9,0.75-13.26l-3.63-12.59
		c-1.52-5.25,1.52-10.75,6.77-12.26c0.89-0.26,1.82-0.39,2.75-0.39c4.39,0,8.3,2.94,9.51,7.17l5.1,17.67
		c0.67,2.31,2.81,3.93,5.2,3.93c0.4,0,0.8-0.04,1.19-0.14c0,0,0.07-0.02,0.23-0.09l25.95-12.45c0.23-0.11,0.44-0.28,0.6-0.48
		l6.45-9.11c1.11-1.5,2.53-2.6,4.1-3.19c1.57-4.56,2.79-9.29,3.6-14.13c-3.01-2.07-12.38-7.47-27.53-5.73
		c-1.68,0.2-3.27-1.35-3.53-3.45c-0.26-2.1,0.87-4.03,2.58-4.15c15.62-1.81,25.5,3.25,29.42,5.71c0.34-4.29,0.37-8.66,0.06-13.07
		C275.09,221.73,273.63,214.45,271.35,207.57z M202.28,250.26c-25.94,1.79-48.41-17.79-50.19-43.72
		c-1.79-25.94,17.79-48.41,43.72-50.19c25.94-1.79,48.41,17.79,50.19,43.72C247.79,226,228.21,248.47,202.28,250.26z"/>
	<g>
		<path class="st1" d="M263.38,335.88L263.38,335.88c3.24-0.93,5.13-4.35,4.19-7.59l0,0c-0.93-3.24-4.35-5.13-7.59-4.19l0,0
			l2.95-0.85l0,0c3.24-0.93,5.13-4.35,4.19-7.59l0,0c-0.93-3.24-4.35-5.13-7.59-4.19l0,0l2.95-0.85c3.24-0.93,5.13-4.35,4.19-7.59
			l0,0c-0.28-0.97-0.78-1.82-1.44-2.51c-2.07-2.18-9,0.35,0.51-6.96c0,0,16.3-14.3,12.47-22.32l0,0c-0.05-0.16-0.1-0.32-0.16-0.48
			c-1.49-3.93-5.61-4.57-8.11-1.2l-6.43,9.09c-0.53,0.71-1.22,1.28-2.01,1.66l-25.95,12.45c-0.33,0.16-0.67,0.29-1.02,0.37
			c-4.71,1.07-9.5-1.72-10.86-6.42l-5.1-17.67c-0.94-3.25-4.34-5.13-7.59-4.19l0,0c-3.25,0.94-5.13,4.34-4.19,7.59l3.63,12.59
			c1.5,5.2,1.19,10.75-0.89,15.75l-0.29,0.7c-2.61,6.28-3.01,13.27-1.12,19.8l1.53,5.3c2.92,13.78,10.22,23.15,29.5,16.29
			L263.38,335.88L263.38,335.88z"/>
	</g>
	<g>
		<path class="st1" d="M267.58,328.29l-5.89,1.7l-29.46,8.5c-6.5,1.87-13.31-1.89-15.18-8.38l-3.56-12.35
			c-1.15-4-0.91-8.32,0.69-12.16l1.76-4.22c2.13-5.12,2.45-10.88,0.92-16.21l-5.86-20.31c-3.25,0.94-5.13,4.34-4.19,7.59l3.76,13.64
			c2.85,8.61-2.04,17.16-2.04,17.16c-2.14,5.14-1.72,12.57-0.92,16.21l3.56,12.35c2.91,11.57,13.01,15.39,22.77,12.57l29.46-8.5
			C266.62,334.95,268.51,331.53,267.58,328.29z"/>
		<path class="st1" d="M278.21,271.24c0,0-1.26,8.57-8.28,15.19c-7.51,7.09-17.83,10.32-17.59,11.16c0.47,1.63,2.17,2.57,3.8,2.1
			l2.95-0.85c0,0,5.55-3.63,11.5-10.02C276.75,282.18,280.34,274.69,278.21,271.24z"/>
		<path class="st1" d="M252.79,310.22c0.47,1.63,2.17,2.57,3.8,2.1l2.95-0.85l2.95-0.85c3.24-0.93,5.13-4.35,4.19-7.59l-11.78,3.4
			C253.26,306.89,252.32,308.59,252.79,310.22z"/>
		<path class="st1" d="M253.24,322.85c0.47,1.63,2.17,2.57,3.8,2.1l2.95-0.85l2.95-0.85c3.24-0.93,5.13-4.35,4.19-7.59l-11.78,3.4
			C253.71,319.53,252.77,321.23,253.24,322.85z"/>
	</g>
	<g>
		<path class="st1" d="M267.58,328.29l-5.89,1.7l-29.46,8.5c-6.5,1.87-13.31-1.89-15.18-8.38l-3.56-12.35
			c-1.15-4-0.91-8.32,0.69-12.16l1.76-4.22c2.13-5.12,2.45-10.88,0.92-16.21l-5.86-20.31c-3.25,0.94-5.13,4.34-4.19,7.59l3.76,13.64
			c2.85,8.61-2.04,17.16-2.04,17.16c-2.14,5.14-1.72,12.57-0.92,16.21l3.56,12.35c2.91,11.57,13.01,15.39,22.77,12.57l29.46-8.5
			C266.62,334.95,268.51,331.53,267.58,328.29z"/>
		<path class="st1" d="M278.21,271.24c0,0-2.52,9.2-9.54,15.82c-7.51,7.09-16.58,9.69-16.33,10.53c0.47,1.63,2.17,2.57,3.8,2.1
			l2.95-0.85c0,0,5.55-3.63,11.5-10.02C276.75,282.18,280.34,274.69,278.21,271.24z"/>
		<path class="st1" d="M252.79,310.22c0.47,1.63,2.17,2.57,3.8,2.1l2.95-0.85l2.95-0.85c3.24-0.93,5.13-4.35,4.19-7.59l-11.78,3.4
			C253.26,306.89,252.32,308.59,252.79,310.22z"/>
		<path class="st1" d="M253.24,322.85c0.47,1.63,2.17,2.57,3.8,2.1l2.95-0.85l2.95-0.85c3.24-0.93,5.13-4.35,4.19-7.59l-11.78,3.4
			C253.71,319.53,252.77,321.23,253.24,322.85z"/>
	</g>
	<g>
		<g>
			<path class="st1" d="M309.27,102.24c4.09-2.14,8.86-2.38,14.31-0.73c5.23,1.59,8.99,4.05,11.28,7.37
				c2.29,3.32,2.76,7.2,1.41,11.63c-0.62,2.03-1.51,3.71-2.67,5.05c-1.17,1.34-2.4,2.39-3.72,3.16c-1.31,0.77-3.02,1.62-5.11,2.56
				c-2.77,1.26-4.9,2.45-6.38,3.57c-1.48,1.13-2.54,2.73-3.17,4.81l-9.21-2.8c0.65-2.14,1.52-3.9,2.61-5.29
				c1.09-1.39,2.24-2.47,3.44-3.24c1.2-0.77,2.73-1.64,4.59-2.59c2.18-1.03,3.84-2,4.99-2.9c1.15-0.9,1.98-2.21,2.5-3.92
				c0.57-1.87,0.43-3.44-0.4-4.72c-0.84-1.27-2.27-2.22-4.3-2.84c-4.59-1.4-7.73,0.39-9.42,5.36l-9.51-2.98
				C302.26,108.22,305.18,104.38,309.27,102.24z M312.24,148.2c0.79,1.52,0.9,3.22,0.34,5.09c-0.57,1.87-1.61,3.23-3.12,4.08
				c-1.51,0.85-3.18,1-4.99,0.45c-1.76-0.54-3.05-1.6-3.85-3.18c-0.8-1.58-0.93-3.29-0.38-5.1c0.57-1.87,1.62-3.21,3.15-4.03
				c1.53-0.82,3.18-0.96,4.94-0.42C310.14,145.64,311.45,146.68,312.24,148.2z"/>
		</g>
	</g>
</g>
</svg>
