<svg xmlns="http://www.w3.org/2000/svg" xmlns:xlink="http://www.w3.org/1999/xlink" width="135" height="135" viewBox="0 0 135 135">
  <defs>
    <linearGradient id="linear-gradient" x1="-0.553" y1="1.443" x2="0.644" y2="0.371" gradientUnits="objectBoundingBox">
      <stop offset="0" stop-color="#6ad114"/>
      <stop offset="0.541" stop-color="#34a759"/>
      <stop offset="1" stop-color="#08638f"/>
    </linearGradient>
    <linearGradient id="linear-gradient-2" x1="0.128" y1="0.834" x2="0.872" y2="0.166" xlink:href="#linear-gradient"/>
  </defs>
  <g id="Group_26402" data-name="Group 26402" transform="translate(-562.792 -134.278)" opacity="0.6">
    <g id="Group_26398" data-name="Group 26398" transform="translate(567.792 139.278)">
      <circle id="Ellipse_1976" data-name="Ellipse 1976" cx="62.5" cy="62.5" r="62.5" transform="translate(0 0)" fill="#08638f" stroke="#2f98c1" stroke-miterlimit="10" stroke-width="10"/>
      <circle id="Ellipse_1977" data-name="Ellipse 1977" cx="61.932" cy="61.932" r="61.932" transform="translate(0.568 0.568)" fill="none" stroke="#014763" stroke-miterlimit="10" stroke-width="4"/>
      <circle id="Ellipse_1978" data-name="Ellipse 1978" cx="58.333" cy="58.333" r="58.333" transform="translate(4.167 4.167)" fill="url(#linear-gradient)"/>
      <circle id="Ellipse_1979" data-name="Ellipse 1979" cx="60.176" cy="60.176" r="60.176" transform="translate(2.325 2.325)" fill="#36aace"/>
      <circle id="Ellipse_1980" data-name="Ellipse 1980" cx="59.249" cy="59.249" r="59.249" transform="translate(3.251 3.251)" fill="url(#linear-gradient-2)"/>
    </g>
    <g id="Group_26401" data-name="Group 26401" transform="translate(597.2 168.97)">
      <g id="Group_26399" data-name="Group 26399" transform="translate(0)">
        <path id="Path_97939" data-name="Path 97939" d="M652.721,190.494l0,0c-.28.152-.552.313-.825.473l-9.705-.733L624.435,214.4l6.824-1.4c.916-.887,5.633-7.1,10.3-12.158-3.723,4.673-7.282,9.855-9.065,12.345a2.461,2.461,0,0,0,.07,3.006l2.1,2.541,18.458-16.785-3.517-1.184c5.866-4.85,13.576-4.13,13.576-4.13s-.742,7.708-6.608,12.557l-.5-3.676-19.954,14.975,2.1,2.541a2.461,2.461,0,0,0,2.94.633c2.777-1.283,8.528-3.8,13.816-6.576-5.844,3.631-12.823,7.092-13.865,7.824l-2.656,6.44,27.073-12.9,1.1-9.67c.208-.238.417-.475.62-.722l0,0c4.756-5.78,7.879-13.942,7.185-20.735C667.9,185.376,659.291,186.909,652.721,190.494Z" transform="translate(-610.932 -180.411)" fill="#176329" stroke="#176329" stroke-linejoin="round" stroke-width="2"/>
        <path id="Path_97940" data-name="Path 97940" d="M620.862,244.433a20.081,20.081,0,0,0,13.53-9.538l-3.23-3.907-10.992,7.768,9.7-9.336-3.228-3.9a20.077,20.077,0,0,0-11.913,11.494l6.339-4.218-11.145,14.441L626.2,239Z" transform="translate(-607.413 -189.876)" fill="#176329" stroke="#176329" stroke-linejoin="round" stroke-width="2"/>
        <path id="Path_97941" data-name="Path 97941" d="M612.162,225.011a12.016,12.016,0,0,1,.49-1.192A29.382,29.382,0,0,1,652.2,184.629h0c.069.033.137.068.206.1a35.874,35.874,0,0,1,4.052-1.187,33.112,33.112,0,0,1,7.558-.917c.37,0,.737.008,1.1.023-3.979-1.444-9.258-.906-11.29-.617l-.236-.123a32.43,32.43,0,0,0-42.314,45.735Z" transform="translate(-606.611 -178.471)" fill="#176329" stroke="#176329" stroke-linejoin="round" stroke-width="2"/>
        <path id="Path_97942" data-name="Path 97942" d="M673.952,206.611a25.4,25.4,0,0,0,1.444-11.963,32.5,32.5,0,0,1-2.552,8.521,35.787,35.787,0,0,1-1.955,3.78c.023.079.043.158.064.236a29.379,29.379,0,0,1-45.767,31.329,13.733,13.733,0,0,1-1.352.28l-2.694.369a32.429,32.429,0,0,0,52.883-32.283C674,206.79,673.976,206.7,673.952,206.611Z" transform="translate(-610.133 -182.393)" fill="#176329" stroke="#176329" stroke-linejoin="round" stroke-width="2"/>
      </g>
      <g id="Group_26400" data-name="Group 26400" transform="translate(0.758 0.735)">
        <path id="Path_97943" data-name="Path 97943" d="M653.721,191.464l0,0c-.28.153-.552.313-.825.473l-9.705-.733-17.754,24.167,6.824-1.4c.916-.887,5.633-7.1,10.3-12.158-3.723,4.673-7.282,9.855-9.065,12.345a2.461,2.461,0,0,0,.07,3.006l2.1,2.541,18.458-16.785-3.517-1.184c5.866-4.85,13.576-4.13,13.576-4.13s-.742,7.708-6.608,12.557l-.5-3.676-19.954,14.975,2.1,2.541a2.461,2.461,0,0,0,2.94.633c2.777-1.283,8.528-3.8,13.816-6.576-5.844,3.631-12.823,7.092-13.865,7.824l-2.656,6.44,27.073-12.9,1.1-9.67c.208-.238.417-.475.62-.722l0,0c4.756-5.78,7.879-13.942,7.185-20.735C668.9,186.346,660.291,187.879,653.721,191.464Z" transform="translate(-611.932 -181.381)" fill="#fff"/>
        <path id="Path_97944" data-name="Path 97944" d="M621.862,245.4a20.081,20.081,0,0,0,13.53-9.538l-3.23-3.907-10.992,7.768,9.7-9.336-3.228-3.9a20.075,20.075,0,0,0-11.913,11.493l6.339-4.218L610.919,248.2,627.2,239.97Z" transform="translate(-608.413 -190.846)" fill="#fff"/>
        <path id="Path_97945" data-name="Path 97945" d="M613.162,225.981a12.008,12.008,0,0,1,.49-1.192A29.382,29.382,0,0,1,653.2,185.6h0c.069.033.137.068.206.1a35.865,35.865,0,0,1,4.052-1.186,33.07,33.07,0,0,1,7.558-.918c.37,0,.737.008,1.1.023-3.98-1.444-9.258-.906-11.29-.617l-.236-.123a32.43,32.43,0,0,0-42.314,45.735Z" transform="translate(-607.611 -179.441)" fill="#fff"/>
        <path id="Path_97946" data-name="Path 97946" d="M674.952,207.581a25.4,25.4,0,0,0,1.444-11.963,32.5,32.5,0,0,1-2.552,8.521,35.707,35.707,0,0,1-1.955,3.78c.023.079.043.158.064.236a29.379,29.379,0,0,1-45.767,31.329,13.478,13.478,0,0,1-1.352.28l-2.694.369a32.429,32.429,0,0,0,52.883-32.283C675,207.76,674.976,207.671,674.952,207.581Z" transform="translate(-611.133 -183.363)" fill="#fff"/>
      </g>
    </g>
  </g>
</svg>
