<svg xmlns="http://www.w3.org/2000/svg" width="216.351" height="289.886" viewBox="0 0 216.351 289.886">
  <g id="Group_27374" data-name="Group 27374" transform="translate(-858.75 -558.717)">
    <g id="Group_27372" data-name="Group 27372" transform="translate(858.75 558.717)" opacity="0.5">
      <g id="Group_27369" data-name="Group 27369">
        <g id="Group_27352" data-name="Group 27352" transform="translate(20.143 41.822)">
          <g id="Group_27330" data-name="Group 27330" transform="translate(61.009)">
            <g id="Group_27313" data-name="Group 27313" transform="translate(46.222 5.973)">
              <g id="Group_27312" data-name="Group 27312">
                <path id="Path_98798" data-name="Path 98798" d="M828.857,378.2l-3.586,2.069-1.793-1.036Z" transform="translate(-823.479 -378.198)" fill="#387c00"/>
                <g id="Group_27311" data-name="Group 27311" transform="translate(1.793)">
                  <g id="Group_27310" data-name="Group 27310">
                    <path id="Path_98799" data-name="Path 98799" d="M839.106,391.148v31.159l-8.767-5.031V386.117Z" transform="translate(-830.34 -384.047)" fill="#6ad114"/>
                    <path id="Path_98800" data-name="Path 98800" d="M842.692,383.226l-3.585,2.07-8.767-5.031,3.585-2.07Z" transform="translate(-830.34 -378.195)" fill="#50a10c"/>
                    <path id="Path_98801" data-name="Path 98801" d="M870.753,400.554v31.159l1.793-3.105V397.449Z" transform="translate(-860.194 -392.418)" fill="#ed76cd"/>
                  </g>
                </g>
                <path id="Path_98802" data-name="Path 98802" d="M863.892,405.372v31.159l1.793,1.035V406.407Z" transform="translate(-853.332 -398.271)" fill="#99f34d"/>
                <path id="Path_98803" data-name="Path 98803" d="M865.685,400.554l-1.793-1.035,3.585-2.07Z" transform="translate(-853.332 -392.418)" fill="#387c00"/>
              </g>
              <path id="Path_98804" data-name="Path 98804" d="M823.479,382.153l1.793,1.036v31.159l-1.793-1.036Z" transform="translate(-823.479 -381.119)" fill="#99f34d"/>
            </g>
            <g id="Group_27317" data-name="Group 27317">
              <g id="Group_27316" data-name="Group 27316">
                <path id="Path_98805" data-name="Path 98805" d="M680.127,355.339l3.586,2.069,1.793-1.036Z" transform="translate(-671.361 -355.338)" fill="#387c00"/>
                <g id="Group_27315" data-name="Group 27315">
                  <g id="Group_27314" data-name="Group 27314">
                    <path id="Path_98806" data-name="Path 98806" d="M660.3,368.288v31.159l8.767-5.031V363.257Z" transform="translate(-656.713 -361.187)" fill="#6ad114"/>
                    <path id="Path_98807" data-name="Path 98807" d="M646.577,360.365l3.585,2.07,8.767-5.031-3.585-2.07Z" transform="translate(-646.577 -355.334)" fill="#50a10c"/>
                    <path id="Path_98808" data-name="Path 98808" d="M648.369,377.694v31.159l-1.793-3.105V374.589Z" transform="translate(-646.577 -369.558)" fill="#314d48"/>
                  </g>
                </g>
                <path id="Path_98809" data-name="Path 98809" d="M655.23,382.512v31.159l-1.793,1.035V383.547Z" transform="translate(-651.645 -375.411)" fill="#99f34d"/>
                <path id="Path_98810" data-name="Path 98810" d="M648.369,377.694l1.793-1.035-3.585-2.07Z" transform="translate(-646.577 -369.558)" fill="#387c00"/>
              </g>
              <path id="Path_98811" data-name="Path 98811" d="M695.643,359.292l-1.793,1.036v31.159l1.793-1.036Z" transform="translate(-681.499 -358.258)" fill="#99f34d"/>
              <path id="Path_98812" data-name="Path 98812" d="M664,360.328l-8.767,5.031-1.793,1.035v31.159l1.793-1.035L664,391.487h0l1.793-1.036V359.292Z" transform="translate(-651.645 -358.258)" fill="#6ad114" style="mix-blend-mode: multiply;isolation: isolate"/>
            </g>
            <g id="Group_27319" data-name="Group 27319" transform="translate(22.819 79.302)">
              <g id="Group_27318" data-name="Group 27318">
                <path id="Path_98813" data-name="Path 98813" d="M738.114,670.555v32.7l-4.2-2.427v-32.7Z" transform="translate(-733.909 -665.701)" fill="#d0e7ff"/>
                <path id="Path_98814" data-name="Path 98814" d="M742.318,661.265l-4.2,2.427-4.2-2.427,4.2-2.427Z" transform="translate(-733.909 -658.838)" fill="#dcedff"/>
                <path id="Path_98815" data-name="Path 98815" d="M750,670.555v32.7l4.2-2.427v-32.7Z" transform="translate(-745.796 -665.701)" fill="#adcef0"/>
              </g>
            </g>
            <g id="Group_27321" data-name="Group 27321" transform="translate(24.537 61.23)">
              <g id="Group_27320" data-name="Group 27320">
                <path id="Path_98816" data-name="Path 98816" d="M742.97,591.111v20.551l-2.486-1.436V589.675Z" transform="translate(-740.484 -589.675)" fill="#adcef0"/>
                <path id="Path_98817" data-name="Path 98817" d="M750,591.111v20.551l2.486-1.436V589.675Z" transform="translate(-747.513 -589.675)" fill="#adcef0"/>
              </g>
            </g>
            <g id="Group_27323" data-name="Group 27323" transform="translate(23.438 39.254)">
              <g id="Group_27322" data-name="Group 27322">
                <path id="Path_98818" data-name="Path 98818" d="M739.863,515.56v20.056l-3.585-2.07V513.49Z" transform="translate(-736.278 -511.42)" fill="#d0e7ff"/>
                <path id="Path_98819" data-name="Path 98819" d="M743.449,507.638l-3.585,2.07-3.585-2.07,3.585-2.07Z" transform="translate(-736.278 -505.568)" fill="#dcedff"/>
                <path id="Path_98820" data-name="Path 98820" d="M750,515.56v20.056l3.585-2.07V513.49Z" transform="translate(-746.415 -511.42)" fill="#adcef0"/>
              </g>
            </g>
            <g id="Group_27325" data-name="Group 27325" transform="translate(24.537 20.635)">
              <g id="Group_27324" data-name="Group 27324">
                <path id="Path_98821" data-name="Path 98821" d="M742.97,435.744V456.3l-2.486-1.436V434.308Z" transform="translate(-740.484 -434.308)" fill="#adcef0"/>
                <path id="Path_98822" data-name="Path 98822" d="M750,435.744V456.3l2.486-1.436V434.308Z" transform="translate(-747.513 -434.308)" fill="#adcef0"/>
              </g>
            </g>
            <g id="Group_27326" data-name="Group 27326" transform="translate(7.462 13.73)">
              <path id="Path_98823" data-name="Path 98823" d="M722.131,415.151v2.531l-46.995-7.27v-2.531Z" transform="translate(-675.137 -407.881)" fill="#adcef0"/>
              <path id="Path_98824" data-name="Path 98824" d="M675.137,407.881l12.592,27.133,34.4-19.863Zm1.88,1.414,41.829,6.472-30.621,17.679Z" transform="translate(-675.137 -407.881)" fill="#dcedff"/>
              <path id="Path_98825" data-name="Path 98825" d="M675.137,407.881v2.531l12.592,27.133v-2.531Z" transform="translate(-675.137 -407.881)" fill="#d0e7ff"/>
              <path id="Path_98826" data-name="Path 98826" d="M757.731,435.705v2.531l-34.4,19.863v-2.531Z" transform="translate(-710.736 -428.435)" fill="#adcef0"/>
            </g>
            <g id="Group_27329" data-name="Group 27329" transform="translate(9.342 27.296)">
              <path id="Path_98827" data-name="Path 98827" d="M685.918,460.838l-3.586,2.069,1.793-3.1Z" transform="translate(-682.332 -459.803)" fill="#387c00"/>
              <g id="Group_27328" data-name="Group 27328" transform="translate(0 1.034)">
                <g id="Group_27327" data-name="Group 27327">
                  <path id="Path_98828" data-name="Path 98828" d="M691.1,476.713v31.159l-8.767-5.031V471.682Z" transform="translate(-682.332 -469.612)" fill="#6ad114"/>
                  <path id="Path_98829" data-name="Path 98829" d="M694.684,468.79l-3.585,2.07-8.767-5.031,3.585-2.07Z" transform="translate(-682.332 -463.759)" fill="#50a10c"/>
                </g>
              </g>
              <path id="Path_98830" data-name="Path 98830" d="M715.885,488.011v31.159l5.378-1.035V486.976Z" transform="translate(-707.118 -479.876)" fill="#347552"/>
              <path id="Path_98831" data-name="Path 98831" d="M721.263,484.049l-5.378,1.035,3.585-2.07Z" transform="translate(-707.118 -476.95)" fill="#387c00"/>
            </g>
          </g>
          <g id="Group_27351" data-name="Group 27351" transform="translate(0 84.312)">
            <g id="Group_27332" data-name="Group 27332" transform="translate(106.522 42.972)">
              <g id="Group_27331" data-name="Group 27331">
                <path id="Path_98832" data-name="Path 98832" d="M834.575,880.963v74.852l-13.81-7.973V872.99Z" transform="translate(-820.765 -865.016)" fill="#d0e7ff"/>
                <path id="Path_98833" data-name="Path 98833" d="M848.385,850.447l-13.81,7.973-13.81-7.973,13.81-7.973Z" transform="translate(-820.765 -842.474)" fill="#dcedff"/>
                <path id="Path_98834" data-name="Path 98834" d="M873.618,880.963v74.852l13.81-7.973V872.99Z" transform="translate(-859.808 -865.016)" fill="#adcef0"/>
              </g>
            </g>
            <g id="Group_27334" data-name="Group 27334" transform="translate(19.738 36.875)">
              <g id="Group_27333" data-name="Group 27333">
                <path id="Path_98835" data-name="Path 98835" d="M500.687,876.733v63.906l-12.065-6.934V869.8Z" transform="translate(-488.622 -856.562)" fill="#d0e7ff"/>
                <path id="Path_98836" data-name="Path 98836" d="M523.613,826.075l-22.926,13.237-12.065-6.935,22.926-13.236Z" transform="translate(-488.622 -819.14)" fill="#dcedff"/>
                <path id="Path_98837" data-name="Path 98837" d="M534.8,858.916v63.906l22.926-13.236V845.68Z" transform="translate(-522.732 -838.745)" fill="#adcef0"/>
              </g>
            </g>
            <g id="Group_27336" data-name="Group 27336" transform="translate(56.92)">
              <g id="Group_27335" data-name="Group 27335">
                <path id="Path_98838" data-name="Path 98838" d="M748.389,746.557l-6.934,89.634,15.2-8.736V741.828Z" transform="translate(-712.575 -725.154)" fill="#adcef0"/>
                <path id="Path_98839" data-name="Path 98839" d="M657.464,682.741l28.88,16.674,8.264-4.728-28.88-16.674Z" transform="translate(-650.53 -678.013)" fill="#dcedff"/>
                <path id="Path_98840" data-name="Path 98840" d="M666.74,712.783l-6.934,89.634-28.88-16.674,6.934-89.634Z" transform="translate(-630.926 -691.381)" fill="#d0e7ff"/>
              </g>
            </g>
            <g id="Group_27338" data-name="Group 27338" transform="translate(44.181 81.074)">
              <g id="Group_27337" data-name="Group 27337">
                <path id="Path_98841" data-name="Path 98841" d="M601.735,1042.82v26.756l-19.562-11.295v-26.755Z" transform="translate(-582.173 -1020.231)" fill="#d0e7ff"/>
                <path id="Path_98842" data-name="Path 98842" d="M621.3,999.593l-19.562,11.295-19.562-11.295L601.735,988.3Z" transform="translate(-582.173 -988.299)" fill="#dcedff"/>
                <path id="Path_98843" data-name="Path 98843" d="M657.042,1042.82v26.756l19.562-11.295v-26.755Z" transform="translate(-637.48 -1020.231)" fill="#adcef0"/>
              </g>
            </g>
            <g id="Group_27340" data-name="Group 27340" transform="translate(30.571 116.138)">
              <g id="Group_27339" data-name="Group 27339">
                <path id="Path_98844" data-name="Path 98844" d="M549.646,1177.021v17.6l-19.562-11.295v-17.6Z" transform="translate(-530.083 -1154.432)" fill="#d0e7ff"/>
                <path id="Path_98845" data-name="Path 98845" d="M569.208,1133.794l-19.562,11.295-19.562-11.295,19.562-11.295Z" transform="translate(-530.083 -1122.499)" fill="#dcedff"/>
                <path id="Path_98846" data-name="Path 98846" d="M604.953,1177.021v17.6l19.562-11.295v-17.6Z" transform="translate(-585.39 -1154.432)" fill="#adcef0"/>
              </g>
            </g>
            <g id="Group_27342" data-name="Group 27342" transform="translate(94.466 81.238)">
              <g id="Group_27341" data-name="Group 27341">
                <path id="Path_98847" data-name="Path 98847" d="M791.866,1048.219v35.21l-17.244-9.956v-46.44Z" transform="translate(-774.621 -1017.077)" fill="#d0e7ff"/>
                <path id="Path_98848" data-name="Path 98848" d="M809.11,1010.114l-17.244,9.956-17.244-21.186,17.244-9.956Z" transform="translate(-774.621 -988.928)" fill="#dcedff"/>
                <path id="Path_98849" data-name="Path 98849" d="M840.62,1079.969v35.21l17.244-9.956v-35.21Z" transform="translate(-823.375 -1048.826)" fill="#adcef0"/>
              </g>
            </g>
            <g id="Group_27344" data-name="Group 27344" transform="translate(72.054 62.475)">
              <g id="Group_27343" data-name="Group 27343">
                <path id="Path_98850" data-name="Path 98850" d="M702.657,955.607v74.852l-13.81-7.973V947.634Z" transform="translate(-688.847 -939.66)" fill="#d0e7ff"/>
                <path id="Path_98851" data-name="Path 98851" d="M716.467,925.091l-13.81,7.973-13.81-7.973,13.81-7.973Z" transform="translate(-688.847 -917.118)" fill="#dcedff"/>
                <path id="Path_98852" data-name="Path 98852" d="M741.7,955.607v74.852l13.81-7.973V947.634Z" transform="translate(-727.89 -939.66)" fill="#adcef0"/>
              </g>
            </g>
            <g id="Group_27346" data-name="Group 27346" transform="translate(123.817 122.897)">
              <g id="Group_27345" data-name="Group 27345">
                <path id="Path_98853" data-name="Path 98853" d="M901.063,1187.68v12.688l-14.107-8.145v-12.688Z" transform="translate(-886.957 -1171.391)" fill="#d0e7ff"/>
                <path id="Path_98854" data-name="Path 98854" d="M915.17,1156.509l-14.106,8.145-14.107-8.145,14.107-8.145Z" transform="translate(-886.957 -1148.364)" fill="#dcedff"/>
                <path id="Path_98855" data-name="Path 98855" d="M940.945,1187.68v12.688l14.106-8.145v-12.688Z" transform="translate(-926.839 -1171.391)" fill="#adcef0"/>
              </g>
            </g>
            <g id="Group_27348" data-name="Group 27348" transform="translate(55.341 134.775)">
              <g id="Group_27347" data-name="Group 27347">
                <path id="Path_98856" data-name="Path 98856" d="M638.991,1233.141v12.688l-14.107-8.145V1225Z" transform="translate(-624.884 -1216.852)" fill="#d0e7ff"/>
                <path id="Path_98857" data-name="Path 98857" d="M653.1,1201.97l-14.107,8.144-14.107-8.144,14.107-8.145Z" transform="translate(-624.884 -1193.826)" fill="#dcedff"/>
                <path id="Path_98858" data-name="Path 98858" d="M678.873,1233.141v12.688l14.106-8.145V1225Z" transform="translate(-664.766 -1216.852)" fill="#adcef0"/>
              </g>
            </g>
            <g id="Group_27350" data-name="Group 27350" transform="translate(0 100.185)">
              <g id="Group_27349" data-name="Group 27349">
                <path id="Path_98859" data-name="Path 98859" d="M427.188,1100.758v12.688l-14.106-8.145v-12.688Z" transform="translate(-413.082 -1084.469)" fill="#d0e7ff"/>
                <path id="Path_98860" data-name="Path 98860" d="M441.295,1069.587l-14.107,8.145-14.106-8.145,14.106-8.145Z" transform="translate(-413.082 -1061.443)" fill="#dcedff"/>
                <path id="Path_98861" data-name="Path 98861" d="M467.07,1100.758v12.688l14.107-8.145v-12.688Z" transform="translate(-452.963 -1084.469)" fill="#adcef0"/>
              </g>
            </g>
          </g>
        </g>
        <g id="Group_27368" data-name="Group 27368" style="mix-blend-mode: multiply;isolation: isolate">
          <g id="Group_27357" data-name="Group 27357">
            <g id="Group_27353" data-name="Group 27353" transform="translate(56.973)">
              <path id="Path_98862" data-name="Path 98862" d="M655.509,205.106a5.037,5.037,0,0,1-3.7.335c-29.153-8.66-63.969-8.661-93.129,0a4.524,4.524,0,0,1-4.285-.794c-.8-.9-.187-2,1.376-2.474,30.981-9.2,67.973-9.2,98.947,0,1.564.464,2.177,1.572,1.375,2.474A2.376,2.376,0,0,1,655.509,205.106Z" transform="translate(-554.039 -195.273)" fill="#c7ead2"/>
            </g>
            <g id="Group_27354" data-name="Group 27354" transform="translate(0 32.894)">
              <path id="Path_98863" data-name="Path 98863" d="M353.021,379.751a3.723,3.723,0,0,1-.795.334,4.522,4.522,0,0,1-4.286-.794c-15.937-17.884-15.935-39.241,0-57.129a4.532,4.532,0,0,1,4.285-.794c1.564.464,2.177,1.572,1.375,2.474-15,16.836-15,36.937,0,53.769C354.249,378.339,353.974,379.2,353.021,379.751Z" transform="translate(-335.989 -321.166)" fill="#c7ead2"/>
            </g>
            <g id="Group_27355" data-name="Group 27355" transform="translate(56.976 114.542)">
              <path id="Path_98864" data-name="Path 98864" d="M655.517,636.785a3.759,3.759,0,0,1-.8.335c-30.981,9.2-67.972,9.2-98.947,0-1.565-.464-2.178-1.572-1.374-2.475a4.526,4.526,0,0,1,4.284-.793c29.153,8.66,63.969,8.661,93.129,0a4.523,4.523,0,0,1,4.285.794C656.745,635.373,656.468,636.235,655.517,636.785Z" transform="translate(-554.047 -633.648)" fill="#c7ead2"/>
            </g>
            <g id="Group_27356" data-name="Group 27356" transform="translate(198.387 32.895)">
              <path id="Path_98865" data-name="Path 98865" d="M1100.69,379.756a5.037,5.037,0,0,1-3.7.335c-1.565-.464-2.177-1.572-1.376-2.474,15-16.836,15-36.937,0-53.769-.8-.9-.187-2,1.376-2.474a4.523,4.523,0,0,1,4.285.794c15.937,17.884,15.935,39.241,0,57.129A2.369,2.369,0,0,1,1100.69,379.756Z" transform="translate(-1095.258 -321.171)" fill="#c7ead2"/>
            </g>
          </g>
          <g id="Group_27362" data-name="Group 27362" transform="translate(31.277 18.058)">
            <g id="Group_27358" data-name="Group 27358" transform="translate(97.369)">
              <path id="Path_98866" data-name="Path 98866" d="M883.837,296.427a4.019,4.019,0,0,1-1.274.449c-1.674.309-3.465-.222-4-1.188-7.3-13.142-25.247-23.5-48.008-27.718-1.672-.311-2.592-1.345-2.057-2.312s2.331-1.5,4-1.187c24.711,4.577,44.194,15.826,52.121,30.093C885,295.243,884.655,295.955,883.837,296.427Z" transform="translate(-828.342 -264.384)" fill="#c7ead2"/>
            </g>
            <g id="Group_27359" data-name="Group 27359" transform="translate(0.001 0.001)">
              <path id="Path_98867" data-name="Path 98867" d="M511.19,267.525a4.009,4.009,0,0,1-1.275.449c-22.764,4.212-40.711,14.574-48.006,27.717-.527.962-2.327,1.5-4,1.188s-2.593-1.345-2.057-2.312c7.923-14.267,27.409-25.517,52.119-30.092,1.674-.309,3.467.223,4,1.188C512.348,266.341,512.007,267.053,511.19,267.525Z" transform="translate(-455.697 -264.387)" fill="#c7ead2"/>
            </g>
            <g id="Group_27360" data-name="Group 27360" transform="translate(0 56.217)">
              <path id="Path_98868" data-name="Path 98868" d="M511.19,511.581a4.952,4.952,0,0,1-3.225.452c-24.71-4.577-44.194-15.826-52.122-30.093-.534-.968.387-2,2.057-2.312s3.465.222,4,1.188c7.3,13.142,25.247,23.5,48.008,27.718,1.672.311,2.593,1.345,2.057,2.312A2.022,2.022,0,0,1,511.19,511.581Z" transform="translate(-455.691 -479.54)" fill="#c7ead2"/>
            </g>
            <g id="Group_27361" data-name="Group 27361" transform="translate(97.371 56.218)">
              <path id="Path_98869" data-name="Path 98869" d="M864.86,500.623A102.416,102.416,0,0,1,832.5,512.034c-1.674.309-3.467-.223-4-1.187s.393-2,2.057-2.311c22.764-4.212,40.711-14.574,48.006-27.717.534-.96,2.331-1.5,4-1.188s2.593,1.345,2.057,2.312C880.662,489.076,873.811,495.454,864.86,500.623Z" transform="translate(-828.351 -479.544)" fill="#c7ead2"/>
            </g>
          </g>
          <g id="Group_27367" data-name="Group 27367" transform="translate(53.997 31.176)">
            <g id="Group_27363" data-name="Group 27363" transform="translate(27.672)">
              <path id="Path_98870" data-name="Path 98870" d="M700.631,320.977a5.036,5.036,0,0,1-3.7.335,79.92,79.92,0,0,0-43.739,0,4.522,4.522,0,0,1-4.285-.794c-.8-.9-.189-2,1.375-2.474a90.566,90.566,0,0,1,49.557,0c1.564.464,2.177,1.572,1.375,2.474A2.371,2.371,0,0,1,700.631,320.977Z" transform="translate(-648.55 -314.589)" fill="#c7ead2"/>
            </g>
            <g id="Group_27364" data-name="Group 27364" transform="translate(0 15.976)">
              <path id="Path_98871" data-name="Path 98871" d="M553.711,405.8a3.731,3.731,0,0,1-.8.335,4.523,4.523,0,0,1-4.285-.794c-7.98-8.959-7.98-19.653,0-28.613a4.524,4.524,0,0,1,4.285-.794c1.564.464,2.177,1.572,1.375,2.474-7.044,7.906-7.044,17.347,0,25.253C554.939,404.39,554.662,405.253,553.711,405.8Z" transform="translate(-542.646 -375.732)" fill="#c7ead2"/>
            </g>
            <g id="Group_27365" data-name="Group 27365" transform="translate(26.493 55.635)">
              <path id="Path_98872" data-name="Path 98872" d="M700.639,530.652a3.744,3.744,0,0,1-.8.335,90.566,90.566,0,0,1-49.557,0c-1.564-.464-2.178-1.572-1.375-2.474a4.53,4.53,0,0,1,4.285-.794,79.92,79.92,0,0,0,43.739,0,4.523,4.523,0,0,1,4.285.794C701.867,529.24,701.591,530.1,700.639,530.652Z" transform="translate(-648.559 -527.516)" fill="#c7ead2"/>
            </g>
            <g id="Group_27366" data-name="Group 27366" transform="translate(96.36 15.978)">
              <path id="Path_98873" data-name="Path 98873" d="M916.869,405.809a5.036,5.036,0,0,1-3.7.335c-1.564-.464-2.177-1.572-1.375-2.474,7.044-7.906,7.044-17.347,0-25.253-.8-.9-.185-2,1.375-2.474a4.522,4.522,0,0,1,4.285.794c7.98,8.959,7.98,19.654,0,28.612A2.36,2.36,0,0,1,916.869,405.809Z" transform="translate(-911.437 -375.739)" fill="#c7ead2"/>
            </g>
          </g>
        </g>
      </g>
      <path id="Path_98874" data-name="Path 98874" d="M752.486,485.929,750,487.364h2.219l2.487-1.435Z" transform="translate(-641.824 -409.984)" fill="#adcef0"/>
      <g id="Group_27370" data-name="Group 27370" transform="translate(108.176 79.78)" opacity="0.6" style="mix-blend-mode: multiply;isolation: isolate">
        <path id="Path_98875" data-name="Path 98875" d="M750,510.893c1.2,0,2.39-.07,3.584-.122v-6.8l-1.1-.634-.04-2.732L750,502.02v3.252h1.243l-1.243.772Z" transform="translate(-750 -500.608)" fill="#34a759" style="mix-blend-mode: multiply;isolation: isolate"/>
        <path id="Path_98876" data-name="Path 98876" d="M752.486,581.145V563.783l1.1-.634v-9.585c-1.2.045-2.387.122-3.584.122v27.5C750.829,581.187,751.657,581.156,752.486,581.145Z" transform="translate(-750 -539.727)" fill="#34a759" style="mix-blend-mode: multiply;isolation: isolate"/>
      </g>
      <path id="Path_98877" data-name="Path 98877" d="M752.486,434.308,750,435.744v13.488l2.486-1.435Z" transform="translate(-641.824 -371.851)" fill="#34a759" opacity="0.6" style="mix-blend-mode: multiply;isolation: isolate"/>
      <path id="Path_98878" data-name="Path 98878" d="M736.467,453.586v2.531l30.97-17.881v-2.531Z" transform="translate(-631.828 -372.883)" fill="#34a759" opacity="0.6" style="mix-blend-mode: multiply;isolation: isolate"/>
      <path id="Path_98879" data-name="Path 98879" d="M703.949,416.637l-14.99-.911-5.923-.916-.7-1.517Z" transform="translate(-591.837 -356.327)" fill="#34a759" opacity="0.6" style="mix-blend-mode: multiply;isolation: isolate"/>
      <path id="Path_98880" data-name="Path 98880" d="M745.457,430.249l-2.487,1.436-2.486-1.436,2.486-1.436Z" transform="translate(-634.795 -367.793)" fill="#dcedff"/>
      <g id="Group_27371" data-name="Group 27371" transform="translate(99.262 76.218)" style="mix-blend-mode: multiply;isolation: isolate">
        <path id="Path_98881" data-name="Path 98881" d="M721.263,500.7V486.976l-5.378,1.035v12.282Q718.56,500.585,721.263,500.7Z" transform="translate(-715.885 -486.976)" fill="#34a759" style="mix-blend-mode: multiply;isolation: isolate"/>
        <path id="Path_98882" data-name="Path 98882" d="M715.885,552.2v15.151l5.378-1.035V552.558Q718.559,552.456,715.885,552.2Z" transform="translate(-715.885 -535.158)" fill="#34a759" style="mix-blend-mode: multiply;isolation: isolate"/>
      </g>
      <path id="Path_98883" data-name="Path 98883" d="M870.753,400.554v31.159l1.793-3.105V397.449Z" transform="translate(-731.026 -344.623)" fill="#34a759" style="mix-blend-mode: multiply;isolation: isolate"/>
      <path id="Path_98884" data-name="Path 98884" d="M751.9,673.11l-1.9,1.1v9.344l4.2,2.427V673.071Q753.051,673.1,751.9,673.11Z" transform="translate(-641.823 -548.229)" fill="#34a759" opacity="0.6" style="mix-blend-mode: multiply;isolation: isolate"/>
    </g>
    <g id="Group_27373" data-name="Group 27373" transform="translate(893 701.525)" opacity="0.5" style="mix-blend-mode: multiply;isolation: isolate">
      <path id="Path_98885" data-name="Path 98885" d="M849.241,880.963v32.913l8.622,10.593-17.244,9.956v35.21l12.107-6.99v-9.559l5.137-2.966,5.188-3.068V872.99Z" transform="translate(-743.016 -838.719)" fill="rgba(52,167,89,0.6)" style="mix-blend-mode: multiply;isolation: isolate"/>
      <path id="Path_98886" data-name="Path 98886" d="M940.945,1187.68v12.688l14.106-8.145v-12.688Z" transform="translate(-817.128 -1065.168)" fill="rgba(52,167,89,0.6)" style="mix-blend-mode: multiply;isolation: isolate"/>
      <path id="Path_98887" data-name="Path 98887" d="M741.7,955.607v74.852l13.81-7.973V947.634Z" transform="translate(-669.943 -893.859)" fill="rgba(52,167,89,0.6)" style="mix-blend-mode: multiply;isolation: isolate"/>
      <path id="Path_98888" data-name="Path 98888" d="M678.873,1233.141v12.688l14.106-8.145V1225Z" transform="translate(-623.531 -1098.751)" fill="rgba(52,167,89,0.6)" style="mix-blend-mode: multiply;isolation: isolate"/>
      <path id="Path_98889" data-name="Path 98889" d="M610.161,1181.213l14.106-8.144.248.143v-7.485l-19.562,11.295v17.6l5.208-3.007Z" transform="translate(-568.926 -1054.967)" fill="rgba(52,167,89,0.6)" style="mix-blend-mode: multiply;isolation: isolate"/>
      <path id="Path_98890" data-name="Path 98890" d="M662.6,1084.732l2.749-1.587v-26.756l-8.31,4.8v20.334Z" transform="translate(-607.405 -974.198)" fill="rgba(52,167,89,0.6)" style="mix-blend-mode: multiply;isolation: isolate"/>
      <path id="Path_98891" data-name="Path 98891" d="M758.563,746.557l-3.335,43.113L765.5,795.6v17.739l1.324-.765V741.828Z" transform="translate(-679.936 -741.828)" fill="rgba(52,167,89,0.6)" style="mix-blend-mode: multiply;isolation: isolate"/>
      <path id="Path_98892" data-name="Path 98892" d="M547.176,894.239l10.547-6.089V845.68L534.8,858.916v63.906l12.379-7.147Z" transform="translate(-517.101 -818.545)" fill="rgba(52,167,89,0.6)" style="mix-blend-mode: multiply;isolation: isolate"/>
      <path id="Path_98893" data-name="Path 98893" d="M467.07,1100.758v12.688l14.107-8.145v-12.688Z" transform="translate(-467.07 -1000.958)" fill="rgba(52,167,89,0.6)" style="mix-blend-mode: multiply;isolation: isolate"/>
    </g>
  </g>
</svg>
