<svg xmlns="http://www.w3.org/2000/svg" width="11.307" height="12.365" viewBox="0 0 11.307 12.365">
  <g id="Group_27255" data-name="Group 27255" transform="translate(-5142.292 -4261.397)">
    <path id="Path_98748" data-name="Path 98748" d="M5181.8,4406.994l-.169.143c.338.411.667.807.992,1.208a.922.922,0,0,1,.167.266.45.45,0,0,1-.779.42c-.329-.388-.649-.784-.973-1.175-.038-.046-.079-.089-.128-.146l-.161.125a.479.479,0,0,0,.037.069c.245.3.493.6.734.9a.447.447,0,0,1-.045.681.471.471,0,0,1-.664-.112c-.263-.314-.521-.631-.789-.958l-.17.141c.184.23.364.443.531.667a.425.425,0,0,1,0,.529.445.445,0,0,1-.508.162.646.646,0,0,1-.15-.093c.277-.179.458-.4.372-.728a.561.561,0,0,0-.526-.423,58.842,58.842,0,0,1-1.068-1.473c-.058-.7-.442-.914-1.049-.532-.107-.286-.215-.562-.308-.844-.011-.032.05-.1.092-.138q.938-.777,1.883-1.547a.23.23,0,0,1,.157-.06c.41.068.818.146,1.227.222l.013.066c-.124.078-.246.158-.371.232a.8.8,0,1,0,.806,1.368c.26-.155.52-.313.78-.469a.619.619,0,0,1,.059-.026c.066.084.135.173.205.261q.919,1.146,1.839,2.291a.477.477,0,0,1-.01.706.463.463,0,0,1-.693-.125c-.393-.473-.781-.95-1.172-1.424C5181.908,4407.119,5181.858,4407.063,5181.8,4406.994Z" transform="translate(-33.259 -136.17)" fill="#fff"/>
    <path id="Path_98749" data-name="Path 98749" d="M5212.021,4263.89a2.508,2.508,0,1,1-2.5-2.493A2.511,2.511,0,0,1,5212.021,4263.89Zm-2.735-1.558a.926.926,0,0,0-.681.844c-.027.423.265.635.585.818.026.015.054.027.081.042.179.1.362.191.535.3a.311.311,0,0,1,.122.435.44.44,0,0,1-.458.271.447.447,0,0,1-.41-.419c-.023-.157-.085-.272-.254-.253-.185.021-.221.164-.2.323a.857.857,0,0,0,.429.664c.159.088.289.155.263.38-.008.063.125.19.21.208.137.028.219-.081.229-.222.005-.083,0-.165,0-.243a.927.927,0,0,0,.681-.845c.026-.422-.264-.635-.584-.818-.027-.015-.054-.027-.081-.042-.179-.1-.363-.19-.535-.3a.312.312,0,0,1-.122-.435.437.437,0,0,1,.458-.27.445.445,0,0,1,.41.418c.023.157.086.272.255.253s.221-.164.2-.323a.859.859,0,0,0-.429-.664c-.159-.088-.289-.155-.263-.38.007-.063-.126-.189-.211-.207-.136-.028-.218.08-.228.221C5209.281,4262.164,5209.286,4262.239,5209.286,4262.332Z" transform="translate(-61.761)" fill="#fff"/>
    <path id="Path_98750" data-name="Path 98750" d="M5242.1,4395.812l-1.928-2.541c-.4.239-.781.477-1.171.706a.56.56,0,0,1-.873-.355.469.469,0,0,1,.194-.543,8.655,8.655,0,0,1,2.256-1.2,7.624,7.624,0,0,1,1.074-.166.371.371,0,0,1,.277.131c.609.8,1.207,1.617,1.819,2.441A6.082,6.082,0,0,1,5242.1,4395.812Z" transform="translate(-91.448 -124.368)" fill="#fff"/>
    <path id="Path_98751" data-name="Path 98751" d="M5324.891,4370.148a.768.768,0,0,1-.126.172c-.227.177-.461.345-.692.518a.239.239,0,0,1-.385-.065q-.92-1.244-1.846-2.483a.237.237,0,0,1,.059-.386c.229-.163.453-.332.676-.5a.217.217,0,0,1,.35.047q.942,1.27,1.885,2.539A1.142,1.142,0,0,1,5324.891,4370.148Z" transform="translate(-171.292 -101.106)" fill="#fff"/>
    <path id="Path_98752" data-name="Path 98752" d="M5142.292,4379.408a1.054,1.054,0,0,1,.143-.185c.782-.648,1.568-1.292,2.351-1.938a.261.261,0,0,1,.428.033c.165.207.336.41.505.614a.246.246,0,0,1-.039.393l-2.389,1.963c-.114.094-.241.125-.345.007-.206-.233-.4-.477-.592-.72A.678.678,0,0,1,5142.292,4379.408Z" transform="translate(0 -110.512)" fill="#fff"/>
    <path id="Path_98753" data-name="Path 98753" d="M5182.776,4462.1a.762.762,0,0,1-.552.505.493.493,0,0,1-.353-.419c.01-.159.4-.449.585-.437A.345.345,0,0,1,5182.776,4462.1Z" transform="translate(-37.774 -191.211)" fill="#fff"/>
    <path id="Path_98754" data-name="Path 98754" d="M5206.724,4494.2c0,.183-.334.51-.537.519a.464.464,0,0,1-.367-.4c0-.148.353-.442.542-.452A.35.35,0,0,1,5206.724,4494.2Z" transform="translate(-60.632 -221.872)" fill="#fff"/>
    <path id="Path_98755" data-name="Path 98755" d="M5194.766,4478.014a.778.778,0,0,1-.543.517c-.146,0-.365-.247-.36-.412s.393-.46.573-.452A.363.363,0,0,1,5194.766,4478.014Z" transform="translate(-49.218 -206.408)" fill="#fff"/>
    <path id="Path_98756" data-name="Path 98756" d="M5218.262,4510.091a.332.332,0,0,1,.334.33.752.752,0,0,1-.56.521.516.516,0,0,1-.343-.406C5217.693,4510.372,5218.057,4510.088,5218.262,4510.091Z" transform="translate(-71.962 -237.353)" fill="#fff"/>
  </g>
</svg>
