<svg xmlns="http://www.w3.org/2000/svg" width="24.292" height="28.529" viewBox="0 0 24.292 28.529">
  <g id="Group_26591" data-name="Group 26591" transform="translate(-5746.884 -4193.341)">
    <path id="Path_98449" data-name="Path 98449" d="M5771.164,4203a29.839,29.839,0,0,1-.591,7.135,14.774,14.774,0,0,1-8.142,10.494,19.337,19.337,0,0,1-2.624,1.1,2.4,2.4,0,0,1-1.427.051,17.2,17.2,0,0,1-7.183-4.4,15.428,15.428,0,0,1-3.866-8.026,46.19,46.19,0,0,1-.413-9.072,3.094,3.094,0,0,1,3.189-3.1,11.687,11.687,0,0,0,6.7-2.487c.3-.24.585-.5.875-.76a1.835,1.835,0,0,1,2.708,0,10.815,10.815,0,0,0,4.394,2.627,17.225,17.225,0,0,0,3.093.593,3.2,3.2,0,0,1,3.289,3.479C5771.172,4201.428,5771.164,4202.216,5771.164,4203Zm-11.806-2.472a7.109,7.109,0,1,0,6.78,7.431A7.089,7.089,0,0,0,5759.357,4200.533Z" fill="#fff"/>
    <path id="Path_98450" data-name="Path 98450" d="M5832.935,4297.937a5.441,5.441,0,1,1-5.417-5.475A5.45,5.45,0,0,1,5832.935,4297.937Zm-6.711,1.089c-.307-.32-.555-.6-.821-.854a.838.838,0,1,0-1.176,1.181c.382.4.774.78,1.163,1.168.668.667,1.02.67,1.675.015l3.4-3.4c.589-.59.664-1.037.242-1.443q-.59-.57-1.419.261C5828.281,4296.957,5827.277,4297.967,5826.224,4299.026Z" transform="translate(-68.459 -90.273)" fill="#fff"/>
  </g>
</svg>
