<svg xmlns="http://www.w3.org/2000/svg" width="14.24" height="14.23" viewBox="0 0 14.24 14.23">
  <g id="Group_27166" data-name="Group 27166" transform="translate(0 0)">
    <path id="Path_98706" data-name="Path 98706" d="M7483.421,4229.544c0,.688.043,1.357-.012,2.017a1.067,1.067,0,0,1-1.15.979c-.541,0-1.083,0-1.625,0h-8.92a1.133,1.133,0,0,1-1.274-1.27v-7.653a1.137,1.137,0,0,1,1.258-1.268h10.478a1.14,1.14,0,0,1,1.257,1.253q0,.854,0,1.712c0,.013-.011.025-.027.062-.625,0-1.261-.01-1.895.006a2.385,2.385,0,0,0-.718.116,2.042,2.042,0,0,0-1.38,2.167,2.066,2.066,0,0,0,2.05,1.875c.57.014,1.142,0,1.713,0Z" transform="translate(-7470.439 -4218.31)" fill="#bcbcbc"/>
    <path id="Path_98707" data-name="Path 98707" d="M7510.626,4134.793h-.272c-1.135,0-2.269-.007-3.4.007-.213,0-.307-.068-.354-.259-.033-.129-.091-.25-.135-.376a.557.557,0,0,1,.373-.808q1.269-.467,2.54-.927c.708-.258,1.418-.512,2.127-.771a.591.591,0,0,1,.893.417c.026.075.047.152.085.27-.145,0-.266,0-.387,0a1.4,1.4,0,0,0-1.472,1.481C7510.643,4134.135,7510.626,4134.446,7510.626,4134.793Z" transform="translate(-7504.805 -4131.586)" fill="#bcbcbc"/>
    <path id="Path_98708" data-name="Path 98708" d="M7693.042,4309.038c.459,0,.919,0,1.378,0,.335,0,.485.157.487.493q0,.756,0,1.512a.441.441,0,0,1-.508.5q-1.321,0-2.646,0a1.253,1.253,0,1,1,0-2.5C7692.183,4309.036,7692.613,4309.039,7693.042,4309.038Zm-1.741,1.241a.4.4,0,0,0,.4.422.413.413,0,0,0,.426-.417.424.424,0,0,0-.41-.416A.417.417,0,0,0,7691.3,4310.279Z" transform="translate(-7680.669 -4301.141)" fill="#bcbcbc"/>
    <path id="Path_98709" data-name="Path 98709" d="M7624.669,4168.936H7619.8c0-.385-.022-.763.01-1.136a.521.521,0,0,1,.561-.465q1.856-.006,3.712,0a.544.544,0,0,1,.576.5C7624.688,4168.2,7624.669,4168.562,7624.669,4168.936Z" transform="translate(-7613.15 -4165.742)" fill="#bcbcbc"/>
  </g>
</svg>
