<svg xmlns="http://www.w3.org/2000/svg" width="15.444" height="15.433" viewBox="0 0 15.444 15.433">
  <g id="Group_27164" data-name="Group 27164" transform="translate(0)">
    <path id="Path_98706" data-name="Path 98706" d="M7484.518,4230.151c0,.746.045,1.472-.013,2.188a1.157,1.157,0,0,1-1.248,1.06c-.587,0-1.174,0-1.761,0h-9.674a1.229,1.229,0,0,1-1.384-1.378v-8.3a1.234,1.234,0,0,1,1.365-1.375h11.362a1.238,1.238,0,0,1,1.364,1.358c0,.619,0,1.238,0,1.857a.321.321,0,0,1-.029.067c-.679,0-1.367-.011-2.057.006a2.627,2.627,0,0,0-.777.126,2.215,2.215,0,0,0-1.5,2.351,2.241,2.241,0,0,0,2.224,2.034c.619.015,1.238,0,1.857,0Z" transform="translate(-7470.438 -4217.968)" fill="#34a759"/>
    <path id="Path_98707" data-name="Path 98707" d="M7510.982,4135.065h-.3c-1.229,0-2.459-.008-3.688.007a.327.327,0,0,1-.386-.282c-.035-.139-.1-.271-.146-.407a.605.605,0,0,1,.4-.876q1.377-.506,2.755-1.006c.769-.279,1.538-.555,2.306-.834a.641.641,0,0,1,.969.452c.029.082.052.166.092.292-.155,0-.287,0-.419,0a1.521,1.521,0,0,0-1.595,1.606C7511,4134.351,7510.982,4134.688,7510.982,4135.065Z" transform="translate(-7504.67 -4131.587)" fill="#34a759"/>
    <path id="Path_98708" data-name="Path 98708" d="M7693.26,4309.038c.5,0,1,0,1.5,0,.361,0,.526.169.527.535q0,.82,0,1.64a.478.478,0,0,1-.55.542q-1.434,0-2.869,0a1.359,1.359,0,1,1,0-2.716C7692.328,4309.035,7692.794,4309.039,7693.26,4309.038Zm-1.887,1.346a.436.436,0,0,0,.427.457.446.446,0,0,0,.462-.452.458.458,0,0,0-.444-.451A.45.45,0,0,0,7691.374,4310.384Z" transform="translate(-7679.841 -4300.474)" fill="#34a759"/>
    <path id="Path_98709" data-name="Path 98709" d="M7625.08,4169.071h-5.274c0-.418-.026-.827.008-1.231a.568.568,0,0,1,.608-.5q2.013-.005,4.025,0a.591.591,0,0,1,.626.548C7625.1,4168.272,7625.08,4168.666,7625.08,4169.071Z" transform="translate(-7612.588 -4165.607)" fill="#34a759"/>
  </g>
</svg>
