<svg xmlns="http://www.w3.org/2000/svg" width="28.51" height="28.529" viewBox="0 0 28.51 28.529">
  <g id="Group_26592" data-name="Group 26592" transform="translate(-5653.844 -4606.057)">
    <path id="Path_98451" data-name="Path 98451" d="M5724.312,4606.057A7.29,7.29,0,1,1,5717,4613.3,7.306,7.306,0,0,1,5724.312,4606.057Z" transform="translate(-56.864)" fill="#fff"/>
    <path id="Path_98452" data-name="Path 98452" d="M5669.236,4775.646h-12.858a2.253,2.253,0,0,1-2.534-2.543,12.97,12.97,0,0,1,.18-2.812,5.844,5.844,0,0,1,2.735-3.406,16.077,16.077,0,0,1,5.84-2.258,25.5,25.5,0,0,1,6.33-.422c.112,0,.225.028.392.051C5666.375,4768.024,5666.335,4771.786,5669.236,4775.646Z" transform="translate(0 -142.369)" fill="#fff"/>
    <path id="Path_98453" data-name="Path 98453" d="M5814.16,4759.6a6.968,6.968,0,1,1-13.936-.031,6.968,6.968,0,0,1,13.936.031Zm-7.684.354a.6.6,0,0,1-.11-.024c-.388-.252-.774-.508-1.164-.757a1,1,0,1,0-1.114,1.641c.56.383,1.127.755,1.692,1.131a1.063,1.063,0,0,0,1.623-.145q1.515-1.507,3.022-3.021c.035-.035.07-.07.1-.107a.991.991,0,1,0-1.389-1.412C5808.234,4758.159,5807.347,4759.073,5806.477,4759.956Z" transform="translate(-131.807 -131.972)" fill="#fff"/>
  </g>
</svg>
