<svg xmlns="http://www.w3.org/2000/svg" width="21.405" height="28.529" viewBox="0 0 21.405 28.529">
  <path id="Path_98454" data-name="Path 98454" d="M7124.372,4380.156c0-.944-.025-1.833,0-2.719a8.307,8.307,0,0,1,16.6.5c-.011.723,0,1.447,0,2.218.564,0,1.08,0,1.6,0,.579.006.789.206.79.774q0,7.307,0,14.616a2.347,2.347,0,0,1-2.457,2.438q-8.243.015-16.488,0a2.346,2.346,0,0,1-2.445-2.449q-.018-7.308,0-14.616c0-.547.212-.754.755-.763C7123.243,4380.15,7123.762,4380.156,7124.372,4380.156Zm13.038-.015c0-.634.033-1.227-.008-1.816a8.918,8.918,0,0,0-.269-2.1,4.725,4.725,0,0,0-9.193,1.351c-.03.852,0,1.706,0,2.567Zm-4.753,13.1c.356,0,.714.015,1.069,0,.55-.028.766-.3.7-.846-.107-.929-.233-1.854-.313-2.785a.88.88,0,0,1,.212-.611,2.374,2.374,0,1,0-3.335-3.38,2.343,2.343,0,0,0,.018,3.352.705.705,0,0,1,.221.667q-.168,1.391-.328,2.783c-.06.523.159.789.686.82C7131.943,4393.256,7132.3,4393.239,7132.657,4393.24Z" transform="translate(-7121.964 -4369.463)" fill="#fff"/>
</svg>
