<svg xmlns="http://www.w3.org/2000/svg" width="28.484" height="28.529" viewBox="0 0 28.484 28.529">
  <g id="Group_26599" data-name="Group 26599" transform="translate(-5260.303 -4405.339)">
    <path id="Path_98455" data-name="Path 98455" d="M5288.787,4408.676a12.872,12.872,0,0,1-1.178,4.824,32.651,32.651,0,0,1-6.016,9.09,1.029,1.029,0,0,0-.3,1.117c.14.436.213.893.318,1.339a1.922,1.922,0,0,1-.557,1.911q-3.278,3.275-6.552,6.553a2.271,2.271,0,0,1-.227.213c-.343.259-.634.172-.717-.257-.166-.859-.3-1.724-.436-2.587-.116-.717-.208-1.438-.335-2.153a2.208,2.208,0,0,1,.428-1.845.443.443,0,0,0-.036-.691c-1.737-1.729-3.464-3.467-5.209-5.187-.115-.113-.434-.206-.514-.138a3.005,3.005,0,0,1-2.666.428c-1.257-.215-2.518-.4-3.777-.607a2.1,2.1,0,0,1-.388-.093c-.346-.127-.418-.352-.207-.656a2.837,2.837,0,0,1,.328-.362c2.121-2.123,4.251-4.238,6.361-6.371a2.12,2.12,0,0,1,2.185-.624c.416.107.841.184,1.249.315a1.233,1.233,0,0,0,1.257-.318c1.427-1.16,2.836-2.351,4.338-3.41a22.3,22.3,0,0,1,7.152-3.506,6.279,6.279,0,0,1,3.423-.137,2.743,2.743,0,0,1,2,2.374C5288.765,4408.188,5288.771,4408.487,5288.787,4408.676Zm-6.993,6.748a2.946,2.946,0,1,0,0-5.893,2.946,2.946,0,1,0,0,5.893Z" fill="#fff"/>
    <path id="Path_98456" data-name="Path 98456" d="M5291.158,4613.132c.235-.714.432-1.445.714-2.141a16.755,16.755,0,0,1,3.1-5.209c.342-.37.471-.384.838-.022q1.569,1.549,3.117,3.118c.348.352.324.5-.018.849a9.7,9.7,0,0,1-3.537,2.249c-1.217.463-2.4,1.012-3.6,1.529C5291.307,4613.707,5291.219,4613.656,5291.158,4613.132Z" transform="translate(-28.105 -182.313)" fill="#fff"/>
  </g>
</svg>
