<svg xmlns="http://www.w3.org/2000/svg" width="28.891" height="29" viewBox="0 0 28.891 29">
  <g id="Group_27064" data-name="Group 27064" transform="translate(-5790.72 -4198.713)">
    <path id="Path_98650" data-name="Path 98650" d="M5805.184,4198.713a5.06,5.06,0,0,1,1.054.614q6.452,6.413,12.872,12.858a1.419,1.419,0,0,1,0,2.162q-6.425,6.44-12.864,12.865a1.417,1.417,0,0,1-2.161,0q-6.439-6.426-12.865-12.864a1.416,1.416,0,0,1,0-2.161q6.425-6.439,12.872-12.857A4.968,4.968,0,0,1,5805.184,4198.713Zm-4.058,15.2-.113.049c-.1-.145-.2-.287-.294-.434-.484-.761-.961-1.526-1.45-2.284a.74.74,0,0,0-.963-.382c-.263.132-.592.458-.6.71-.06,1.333-.034,2.67-.026,4.006a.552.552,0,0,0,1.1-.015c.007-.2.006-.4.006-.6q0-1.062,0-2.124a30.091,30.091,0,0,1,1.815,2.664.875.875,0,0,0,1.041.476.849.849,0,0,0,.622-.954q-.009-1.787,0-3.574c0-.417-.134-.757-.583-.744s-.566.358-.559.773C5801.136,4212.29,5801.126,4213.1,5801.126,4213.908Zm4.067-2.076c.6,0,1.174.011,1.748,0,.386-.011.686-.183.663-.617-.021-.392-.292-.549-.67-.547-.65,0-1.3-.007-1.95,0a.9.9,0,0,0-.982.976c-.016,1.264,0,2.528-.005,3.792,0,.4.17.7.581.706.445,0,.6-.318.59-.741-.012-.369,0-.739,0-1.137.414,0,.737-.005,1.061,0,.383.008.647-.149.656-.549s-.246-.571-.632-.568c-.354,0-.706,0-1.056,0Zm6.475.026a2.031,2.031,0,0,0,.74-.056c.223-.117.5-.344.533-.561.058-.33-.208-.566-.569-.572-.849-.011-1.7-.009-2.546,0-.36,0-.636.216-.578.558a1.018,1.018,0,0,0,.515.575,1.963,1.963,0,0,0,.737.06v1.312c0,.777,0,1.554,0,2.33a.571.571,0,0,0,.59.639c.379,0,.575-.26.574-.647,0-.181,0-.361,0-.542C5811.668,4213.927,5811.668,4212.9,5811.668,4211.858Z" transform="translate(0)" fill="#fff"/>
    <path id="Path_98651" data-name="Path 98651" d="M5828.074,4231.972l-5.065,5.084c0-1.333-.026-2.676.013-4.017a1.227,1.227,0,0,1,1.087-1.057C5825.436,4231.949,5826.764,4231.972,5828.074,4231.972Z" transform="translate(-28.781 -29.647)" fill="#fff"/>
    <path id="Path_98652" data-name="Path 98652" d="M5979.211,4231.929c1.187,0,2.5-.024,3.81.01a1.272,1.272,0,0,1,1.153,1.232c.023,1.279.007,2.559.007,3.749Z" transform="translate(-168.061 -29.609)" fill="#fff"/>
    <path id="Path_98653" data-name="Path 98653" d="M5827.84,4393.06c-1.175,0-2.5.028-3.832-.013a1.265,1.265,0,0,1-1.106-1.22c-.023-1.279-.007-2.559-.007-3.74Z" transform="translate(-28.683 -168.848)" fill="#fff"/>
    <path id="Path_98654" data-name="Path 98654" d="M5978.361,4392.339l5.044-5.054c0,1.314.025,2.659-.014,4a1.21,1.21,0,0,1-1.042,1.039C5981.007,4392.364,5979.664,4392.339,5978.361,4392.339Z" transform="translate(-167.303 -168.133)" fill="#fff"/>
  </g>
</svg>
