<svg xmlns="http://www.w3.org/2000/svg" width="20.258" height="23.248" viewBox="0 0 20.258 23.248">
  <path id="Path_98589" data-name="Path 98589" d="M7989.855,4925.324c0-.78,0-1.59,0-2.4a1.861,1.861,0,0,1,.093-.4,1.518,1.518,0,0,1,.413.146q2.642,1.928,5.273,3.871c.344.253.343.287,0,.54q-2.648,1.95-5.3,3.895a1.569,1.569,0,0,1-.349.143,1.371,1.371,0,0,1-.126-.385c-.012-.821-.006-1.642-.006-2.5a6.7,6.7,0,0,0-2.942.649,7.373,7.373,0,1,0,10.345,7.918,1.4,1.4,0,1,1,2.767.467,10.186,10.186,0,1,1-12.619-11.526C7988.184,4925.538,7989,4925.467,7989.855,4925.324Z" transform="translate(-7979.794 -4922.522)" fill="#08638f"/>
</svg>
