<svg xmlns="http://www.w3.org/2000/svg" width="28.5" height="28.389" viewBox="0 0 28.5 28.389">
  <path id="Path_98655" data-name="Path 98655" d="M6086.109,4682.189l-3.387-1.7c-.246-.123-.492-.244-.737-.368a1.252,1.252,0,0,1-.739-1.164,1.269,1.269,0,0,1,.767-1.2q1.8-.894,3.6-1.8c.142-.071.281-.149.486-.259-1.376-.687-2.708-1.323-4.008-2.02a1.788,1.788,0,0,1-.755-.816,1.219,1.219,0,0,1,.765-1.61q2.446-1.229,4.9-2.45c2.556-1.279,5.116-2.551,7.665-3.844a1.7,1.7,0,0,1,1.657,0q6.234,3.135,12.479,6.248c.8.4,1.125.974.839,1.663a1.9,1.9,0,0,1-.76.813c-.635.381-1.321.675-1.985,1.007-.649.325-1.3.652-2.01,1.009.381.2.716.373,1.054.543.982.493,1.961.99,2.948,1.47a1.324,1.324,0,0,1,.011,2.46c-1.317.646-2.629,1.308-4.023,2,1.047.528,2.026,1.023,3.007,1.516.289.145.575.3.871.424a1.383,1.383,0,0,1,.978,1.312,1.421,1.421,0,0,1-.959,1.276c-2.418,1.194-4.827,2.408-7.239,3.615-1.7.852-3.418,1.686-5.109,2.565a1.869,1.869,0,0,1-1.873-.01c-4.107-2.077-8.229-4.124-12.347-6.182-.806-.4-1.145-.963-.863-1.65a1.848,1.848,0,0,1,.787-.843C6083.406,4683.516,6084.729,4682.881,6086.109,4682.189Zm-.637,3.219c.1.066.15.107.206.136,3.177,1.59,6.352,3.186,9.538,4.757a.869.869,0,0,0,.661-.06q4.323-2.134,8.629-4.3c.321-.161.638-.332,1.007-.524-1.11-.556-2.154-1.067-3.185-1.6a.74.74,0,0,0-.759.011c-1.741.886-3.5,1.744-5.234,2.639a1.7,1.7,0,0,1-1.7,0c-1.75-.9-3.516-1.78-5.285-2.646a.8.8,0,0,0-.61-.031C6087.662,4684.3,6086.6,4684.845,6085.472,4685.408Zm0-6.47c.143.087.206.131.274.166,3.148,1.575,6.294,3.155,9.452,4.709a.921.921,0,0,0,.7-.057q4.6-2.274,9.191-4.583c.121-.061.232-.139.4-.241-1.087-.543-2.118-1.042-3.131-1.572a.774.774,0,0,0-.805,0c-1.77.9-3.553,1.774-5.324,2.671a1.516,1.516,0,0,1-1.477.005q-2.678-1.359-5.373-2.682a.778.778,0,0,0-.575-.072C6087.711,4677.8,6086.635,4678.355,6085.468,4678.938Z" transform="translate(-6081.232 -4664.754)" fill="#fff"/>
</svg>
