<svg xmlns="http://www.w3.org/2000/svg" width="12.927" height="14.23" viewBox="0 0 12.927 14.23">
  <g id="Group_27171" data-name="Group 27171" transform="translate(-6627.802 -4221.451)">
    <path id="Path_98715" data-name="Path 98715" d="M6634.225,4221.451a2.7,2.7,0,0,1,.423.165q2.871,1.713,5.736,3.436c.367.22.37.487.007.705q-3,1.8-5.992,3.6a.28.28,0,0,1-.339,0q-2.993-1.8-5.992-3.6c-.353-.211-.355-.477,0-.688q2.875-1.729,5.756-3.452A2.724,2.724,0,0,1,6634.225,4221.451Z" fill="#bcbcbc"/>
    <path id="Path_98716" data-name="Path 98716" d="M6634.234,4414.595a4.021,4.021,0,0,1-.425-.19q-2.87-1.715-5.736-3.438c-.349-.21-.344-.478.011-.689.237-.142.479-.378.721-.382s.467.236.7.375q2.272,1.363,4.541,2.732a.338.338,0,0,0,.405,0c1.677-1.014,3.36-2.02,5.037-3.033a.314.314,0,0,1,.4-.005c.155.115.33.2.5.3.382.232.384.488,0,.716q-1.893,1.137-3.786,2.272c-.642.385-1.282.773-1.928,1.153A3.723,3.723,0,0,1,6634.234,4414.595Z" transform="translate(-0.013 -178.913)" fill="#bcbcbc"/>
    <path id="Path_98717" data-name="Path 98717" d="M6640.732,4348.034a2.6,2.6,0,0,1-.364.339q-2.244,1.359-4.5,2.7c-.483.29-.97.574-1.448.872a.3.3,0,0,1-.36.009q-2.992-1.8-5.99-3.6c-.354-.213-.355-.476,0-.687.237-.143.479-.385.72-.386s.48.242.718.384q2.272,1.359,4.541,2.727a.319.319,0,0,0,.385,0c1.677-1.013,3.359-2.017,5.036-3.031a.333.333,0,0,1,.428,0c.177.128.381.217.557.345A2.025,2.025,0,0,1,6640.732,4348.034Z" transform="translate(-0.003 -119.47)" fill="#bcbcbc"/>
  </g>
</svg>
