<svg xmlns="http://www.w3.org/2000/svg" width="12.361" height="12.364" viewBox="0 0 12.361 12.364">
  <g id="Group_27102" data-name="Group 27102" transform="translate(-6942.671 -4862.059)">
    <path id="Path_98656" data-name="Path 98656" d="M6953.826,4864.618a1.9,1.9,0,0,1-.174.277,1.361,1.361,0,0,0,.683,2.317c.125.031.257.025.382.054a.349.349,0,0,1,.311.382c.006.406.007.813,0,1.219-.005.27-.126.381-.4.4a1.384,1.384,0,0,0-1.423,1.4,1.35,1.35,0,0,0,.372.912c.249.27.258.408.007.678s-.514.528-.786.775-.392.22-.651-.013a1.361,1.361,0,0,0-2.256.619,2.166,2.166,0,0,0-.06.419.348.348,0,0,1-.373.361c-.394.008-.788.012-1.181,0-.35-.01-.438-.1-.455-.459a1.4,1.4,0,0,0-.361-.917,1.382,1.382,0,0,0-1.937-.076c-.289.259-.411.269-.693.005-.264-.246-.518-.505-.76-.773s-.221-.392.018-.65a1.361,1.361,0,0,0-.441-2.186,1.431,1.431,0,0,0-.466-.11c-.359-.03-.5-.137-.507-.489-.014-.4-.006-.8.006-1.2a.321.321,0,0,1,.328-.337,1.9,1.9,0,0,0,.866-.246,1.35,1.35,0,0,0,.261-2.056c-.266-.294-.276-.417,0-.708.251-.269.516-.526.789-.772.237-.214.382-.2.622.015a1.369,1.369,0,0,0,2.325-.951c.019-.332.111-.428.437-.438.373-.011.748-.012,1.122,0,.35.011.438.1.454.46a1.4,1.4,0,0,0,.362.917,1.381,1.381,0,0,0,1.937.074c.286-.257.413-.268.693,0s.546.55.809.834A1.243,1.243,0,0,1,6953.826,4864.618Zm-3.059,6.624c-.505-.5-1.006-1.006-1.514-1.5-.033-.033-.114-.029-.17-.022a6.225,6.225,0,0,1-.857.113,2.169,2.169,0,0,1-2.017-2.674c.075-.291.259-.346.472-.137.268.263.543.519.792.8a.534.534,0,0,0,.547.19,3.836,3.836,0,0,0,.438-.081.265.265,0,0,0,.154-.16,3.02,3.02,0,0,0,.08-.594.439.439,0,0,0-.108-.285c-.291-.312-.6-.607-.9-.914-.181-.187-.125-.391.126-.445a2.467,2.467,0,0,1,.556-.069,2.19,2.19,0,0,1,2.04,2.909.207.207,0,0,0,.059.252c.451.444.9.895,1.346,1.342.034.034.075.061.115.093a3.6,3.6,0,1,0-1.161,1.187Z" transform="translate(0)" fill="#fff"/>
  </g>
</svg>
