<svg xmlns="http://www.w3.org/2000/svg" width="23.25" height="23.249" viewBox="0 0 23.25 23.249">
  <path id="Path_98588" data-name="Path 98588" d="M7458.81,5023.457a11.624,11.624,0,1,1,11.663-11.634A11.654,11.654,0,0,1,7458.81,5023.457Zm1.083-15.118h0c0-.937.009-1.873,0-2.81a1.041,1.041,0,1,0-2.082,0c-.009,2.083-.017,4.168.011,6.251a1.357,1.357,0,0,0,.347.838c1,1.05,2.035,2.068,3.072,3.083a1.272,1.272,0,0,0,.574.315,1.01,1.01,0,0,0,1.135-.521,1.089,1.089,0,0,0-.221-1.272c-.862-.873-1.74-1.73-2.592-2.611a.883.883,0,0,1-.229-.544C7459.88,5010.16,7459.892,5009.25,7459.892,5008.339Z" transform="translate(-7447.222 -5000.208)" fill="#08638f"/>
</svg>
