<svg id="Group_17294" data-name="Group 17294" xmlns="http://www.w3.org/2000/svg" width="26.336" height="27.934" viewBox="0 0 26.336 27.934">
  <path id="Path_82289" data-name="Path 82289" d="M1353.7,392.586c.165.084.306.153.444.228a1.309,1.309,0,0,1,.611,1.688,1.278,1.278,0,0,1-1.592.728q-1.814-.641-3.6-1.356a1.245,1.245,0,0,1-.724-1.667q.62-1.743,1.3-3.463a1.3,1.3,0,0,1,1.685-.8,1.332,1.332,0,0,1,.77,1.742c-.033.108-.058.218-.1.374.752-.162,1.461-.34,2.18-.466a13.168,13.168,0,1,1-9.42,6.567,1.325,1.325,0,1,1,2.295,1.293,10.534,10.534,0,1,0,11.331-5.173,10.357,10.357,0,0,0-4.748.1,2.206,2.206,0,0,0-.282.09A.9.9,0,0,0,1353.7,392.586Z" transform="translate(-1343.571 -387.858)" fill="#34a759"/>
  <path id="Path_82290" data-name="Path 82290" d="M1447.5,493.989c-.839,0-1.679.007-2.518,0a1.327,1.327,0,0,1-1.441-1.407q-.024-3.086,0-6.172a1.322,1.322,0,1,1,2.64.031c.016,1.448.024,2.9,0,4.345-.009.468.147.583.589.571,1.069-.028,2.139-.015,3.209-.007a1.307,1.307,0,0,1,1.46,1.319,1.326,1.326,0,0,1-1.466,1.32C1449.142,493.993,1448.319,493.989,1447.5,493.989Z" transform="translate(-1433.648 -475.423)" fill="#34a759"/>
</svg>
