<svg xmlns="http://www.w3.org/2000/svg" width="23" height="23" viewBox="0 0 23 23">
  <g id="Group_27263" data-name="Group 27263" transform="translate(-1020 -765)">
    <circle id="Ellipse_2437" data-name="Ellipse 2437" cx="11.5" cy="11.5" r="11.5" transform="translate(1020 765)" fill="#34a759"/>
    <g id="Group_27215" data-name="Group 27215" transform="translate(966.788 756.506)">
      <path id="Path_98732" data-name="Path 98732" d="M-4.184,2.6H4.1a.582.582,0,0,0,.473-.2.786.786,0,0,0,.167-.522.87.87,0,0,0-.153-.516.5.5,0,0,0-.431-.216H-4.128a.552.552,0,0,0-.459.205.824.824,0,0,0-.162.527.864.864,0,0,0,.148.511A.481.481,0,0,0-4.184,2.6Z" transform="translate(64.716 18.605)" fill="#fff"/>
    </g>
  </g>
</svg>
