<svg xmlns="http://www.w3.org/2000/svg" xmlns:xlink="http://www.w3.org/1999/xlink" width="80" height="80" viewBox="0 0 80 80">
  <defs>
    <filter id="Ellipse_655" x="8" y="11" width="65" height="65" filterUnits="userSpaceOnUse">
      <feOffset dy="3" input="SourceAlpha"/>
      <feGaussianBlur stdDeviation="3" result="blur"/>
      <feFlood flood-opacity="0.302"/>
      <feComposite operator="in" in2="blur"/>
      <feComposite in="SourceGraphic"/>
    </filter>
  </defs>
  <g id="Group_27397" data-name="Group 27397" transform="translate(-918 -360)">
    <circle id="Ellipse_654" data-name="Ellipse 654" cx="40" cy="40" r="40" transform="translate(918 360)" fill="#34a759"/>
    <g transform="matrix(1, 0, 0, 1, 918, 360)" filter="url(#Ellipse_655)">
      <circle id="Ellipse_655-2" data-name="Ellipse 655" cx="23.5" cy="23.5" r="23.5" transform="translate(17 17)" fill="#fff"/>
    </g>
    <path id="Path_97603" data-name="Path 97603" d="M5014.953,2501.65c1.129-1.18,2.134-2.261,3.173-3.308q3.9-3.931,7.833-7.835c1.291-1.283,2.939-1.377,4.021-.259s1.015,2.677-.257,3.952q-6.354,6.375-12.733,12.726a2.649,2.649,0,0,1-4.1.048q-3.141-3.084-6.229-6.222a2.65,2.65,0,1,1,3.708-3.751C5011.867,2498.479,5013.326,2500,5014.953,2501.65Z" transform="translate(-4059.715 -2098.198)" fill="#34a759"/>
  </g>
</svg>
