<svg xmlns="http://www.w3.org/2000/svg" xmlns:xlink="http://www.w3.org/1999/xlink" width="80" height="80" viewBox="0 0 80 80">
  <defs>
    <filter id="Ellipse_2459" x="8" y="11" width="65" height="65" filterUnits="userSpaceOnUse">
      <feOffset dy="3" input="SourceAlpha"/>
      <feGaussianBlur stdDeviation="3" result="blur"/>
      <feFlood flood-opacity="0.302"/>
      <feComposite operator="in" in2="blur"/>
      <feComposite in="SourceGraphic"/>
    </filter>
  </defs>
  <g id="Group_27398" data-name="Group 27398" transform="translate(-3922.446 2037.517)">
    <circle id="Ellipse_2457" data-name="Ellipse 2457" cx="40" cy="40" r="40" transform="translate(3922.446 -2037.517)" fill="#ffbc00"/>
    <g transform="matrix(1, 0, 0, 1, 3922.45, -2037.52)" filter="url(#Ellipse_2459)">
      <circle id="Ellipse_2459-2" data-name="Ellipse 2459" cx="23.5" cy="23.5" r="23.5" transform="translate(17 17)" fill="#fff"/>
    </g>
    <g id="Group_27292" data-name="Group 27292" transform="translate(-995.291 -4912.074)">
      <path id="Path_97605" data-name="Path 97605" d="M4955.722,2910.97c-.128-2.06-.275-4.119-.376-6.18a3.126,3.126,0,0,1,1.994-3.226,2.668,2.668,0,0,1,3.153.946,4.63,4.63,0,0,1,.642,2.394c-.081,2.976-.307,5.948-.474,8.921q-.1,1.855-.184,3.711a2.206,2.206,0,0,1-2.124,2.362,2.167,2.167,0,0,1-2.26-2.3c-.138-2.207-.253-4.416-.378-6.624Z" transform="translate(0)" fill="#ffbc00"/>
      <path id="Path_97606" data-name="Path 97606" d="M4961.424,3020.328a2.881,2.881,0,0,1-2.889,2.846,2.9,2.9,0,0,1,.022-5.8A2.855,2.855,0,0,1,4961.424,3020.328Z" transform="translate(-0.294 -95.456)" fill="#ffbc00"/>
    </g>
  </g>
</svg>
