<svg xmlns="http://www.w3.org/2000/svg" xmlns:xlink="http://www.w3.org/1999/xlink" width="26.113" height="26.126" viewBox="0 0 26.113 26.126">
  <defs>
    <linearGradient id="linear-gradient" x1="0.5" x2="0.5" y2="1" gradientUnits="objectBoundingBox">
      <stop offset="0" stop-color="#6ad114"/>
      <stop offset="0.67" stop-color="#34a759"/>
      <stop offset="1" stop-color="#08638f"/>
    </linearGradient>
  </defs>
  <g id="Group_25447" data-name="Group 25447" transform="translate(-153.738 -1406.886)">
    <path id="Path_3" data-name="Path 3" d="M161.637,1419.278a30.7,30.7,0,0,1-4.066-.033,4.345,4.345,0,0,1-3.661-4.335,30.983,30.983,0,0,1,.115-4.35,4.341,4.341,0,0,1,4.287-3.651,30.864,30.864,0,0,1,4.406.115,4.346,4.346,0,0,1,3.647,4.293c.026,2.266.012,4.532,0,6.8a1.141,1.141,0,0,1-1.276,1.253c-1.152.008-2.3,0-3.455,0Z" transform="translate(-0.135 0)" fill="url(#linear-gradient)"/>
    <path id="Path_4" data-name="Path 4" d="M278.63,1419.38c-1.133,0-2.266.006-3.4,0a1.152,1.152,0,0,1-1.3-1.29c-.006-2.247-.02-4.494,0-6.741a4.508,4.508,0,0,1,4.409-4.432c1.208-.022,2.417-.02,3.625,0a4.315,4.315,0,0,1,4.294,3.637,22.873,22.873,0,0,1,0,5.187,4.318,4.318,0,0,1-4.295,3.638C280.858,1419.4,279.744,1419.38,278.63,1419.38Z" transform="translate(-106.563 -0.012)" fill="url(#linear-gradient)"/>
    <path id="Path_5" data-name="Path 5" d="M161.562,1526.959c1.133,0,2.266-.007,3.4,0a1.14,1.14,0,0,1,1.274,1.255c.008,2.266.022,4.532,0,6.8a4.351,4.351,0,0,1-3.815,4.323,22.088,22.088,0,0,1-4.8.008,4.154,4.154,0,0,1-3.757-3.744,22.474,22.474,0,0,1,.035-4.966,4.336,4.336,0,0,1,4.326-3.671C159.333,1526.946,160.448,1526.959,161.562,1526.959Z" transform="translate(0 -106.458)" fill="url(#linear-gradient)"/>
    <path id="Path_6" data-name="Path 6" d="M273.949,1531.629c0-1.133-.006-2.266,0-3.4a1.152,1.152,0,0,1,1.3-1.288c2.228-.006,4.456-.017,6.684,0a4.512,4.512,0,0,1,4.483,4.476c.016,1.189.019,2.379,0,3.569a4.316,4.316,0,0,1-3.646,4.287,22.927,22.927,0,0,1-5.186,0,4.315,4.315,0,0,1-3.627-4.246c-.023-1.132,0-2.266,0-3.4Z" transform="translate(-106.58 -106.44)" fill="url(#linear-gradient)"/>
  </g>
</svg>
