<svg xmlns="http://www.w3.org/2000/svg" width="12.391" height="21.084" viewBox="0 0 12.391 21.084">
  <path id="Path_87903" data-name="Path 87903" d="M8.219,10.521c-1.087-1.081-2.145-2.132-3.2-3.186Q2.759,5.078.5,2.818A1.193,1.193,0,0,1,.5.882C.649.734.8.586.944.44a1.164,1.164,0,0,1,1.819,0c1,.989,1.988,1.985,2.981,2.978L11.888,9.56a1.2,1.2,0,0,1-.007,1.962L2.827,20.578a1.2,1.2,0,0,1-1.96,0C.711,20.42.554,20.267.4,20.109a1.152,1.152,0,0,1,0-1.748c.972-.983,1.953-1.958,2.93-2.935l4.632-4.632C8.04,10.717,8.111,10.636,8.219,10.521Z" transform="translate(12.391 21.084) rotate(180)"/>
</svg>
