<svg xmlns="http://www.w3.org/2000/svg" width="10.69" height="10.692" viewBox="0 0 10.69 10.692">
  <path id="Path_98618" data-name="Path 98618" d="M9233.877,5171.438a4.19,4.19,0,0,1-3.363.9,4.059,4.059,0,0,1-2.674-1.612,4.223,4.223,0,0,1,5.983-5.869,4.046,4.046,0,0,1,1.577,2.835,4.164,4.164,0,0,1-.908,3.127c.047.051.086.1.129.137q1.4,1.406,2.81,2.81a1.249,1.249,0,0,1,.146.16.442.442,0,0,1-.613.616,1.322,1.322,0,0,1-.161-.145l-2.8-2.8C9233.962,5171.552,9233.927,5171.5,9233.877,5171.438Zm-2.674-6.611a3.336,3.336,0,1,0,3.334,3.329A3.331,3.331,0,0,0,9231.2,5164.826Z" transform="translate(-9226.968 -5163.927)"/>
</svg>
