<svg xmlns="http://www.w3.org/2000/svg" width="19" height="19" viewBox="0 0 19 19">
  <g id="Group_27168" data-name="Group 27168" transform="translate(0 0.137)">
    <circle id="Ellipse_2435" data-name="Ellipse 2435" cx="9.5" cy="9.5" r="9.5" transform="translate(0 -0.137)" fill="#aaa"/>
    <path id="Path_98695" data-name="Path 98695" d="M6.83-14.929H9.406q.342,0,.342.36v.757a.3.3,0,0,1-.342.342H6.83v2.612a.318.318,0,0,1-.36.36H5.659q-.342,0-.342-.36V-13.47H2.722a.3.3,0,0,1-.342-.342v-.757q0-.36.342-.36H5.317v-2.594q0-.36.342-.36H6.47a.318.318,0,0,1,.36.36Z" transform="translate(3.474 24.173)" fill="#fff"/>
  </g>
</svg>
