<svg xmlns="http://www.w3.org/2000/svg" width="23" height="23" viewBox="0 0 23 23">
  <g id="Group_27211" data-name="Group 27211" transform="translate(-1223 -1073.726)">
    <circle id="Ellipse_2437" data-name="Ellipse 2437" cx="11.5" cy="11.5" r="11.5" transform="translate(1223 1073.726)" fill="#34a759"/>
    <path id="Path_98720" data-name="Path 98720" d="M2.344,4.551a.891.891,0,0,0,.8-.392,1.59,1.59,0,0,0,.261-.9V-.321H7.18A1.471,1.471,0,0,0,8.1-.6a.934.934,0,0,0,.368-.79.9.9,0,0,0-.386-.8,1.562,1.562,0,0,0-.9-.261H3.4v-3.6a1.567,1.567,0,0,0-.273-.939.907.907,0,0,0-.784-.38.9.9,0,0,0-.814.4,1.668,1.668,0,0,0-.256.921v3.6H-2.493a1.461,1.461,0,0,0-.915.273.929.929,0,0,0-.357.784.918.918,0,0,0,.374.808,1.527,1.527,0,0,0,.9.261H1.274V3.256a1.479,1.479,0,0,0,.279.939A.946.946,0,0,0,2.344,4.551Z" transform="translate(1232.014 1087.271)" fill="#fff"/>
  </g>
</svg>
