<svg xmlns="http://www.w3.org/2000/svg" width="23" height="23" viewBox="0 0 23 23">
  <g id="Group_27070" data-name="Group 27070" transform="translate(-546.547 -3959.236)">
    <circle id="Ellipse_46" data-name="Ellipse 46" cx="11.5" cy="11.5" r="11.5" transform="translate(546.547 3959.236)" fill="#1ca1f3" opacity="0.15"/>
    <path id="Path_2678" data-name="Path 2678" d="M35.22,119.658a6.428,6.428,0,0,1-1.818.491,3.127,3.127,0,0,0,1.391-1.723,6.381,6.381,0,0,1-2.011.754,3.18,3.18,0,0,0-2.31-.983,3.14,3.14,0,0,0-3.163,3.115,3.014,3.014,0,0,0,.082.709,9.033,9.033,0,0,1-6.523-3.255,3.089,3.089,0,0,0,.98,4.161,3.218,3.218,0,0,1-1.434-.389v.038a3.128,3.128,0,0,0,2.539,3.054,3.122,3.122,0,0,1-.834.11,3.172,3.172,0,0,1-.6-.055,3.159,3.159,0,0,0,2.956,2.162,6.411,6.411,0,0,1-3.93,1.334,6.5,6.5,0,0,1-.755-.043,9.068,9.068,0,0,0,4.85,1.4,8.868,8.868,0,0,0,9-8.863c0-.135,0-.271-.009-.4a6.352,6.352,0,0,0,1.579-1.613Z" transform="translate(530.752 3846.039)" fill="#1ca1f3"/>
  </g>
</svg>
