<svg xmlns="http://www.w3.org/2000/svg" width="23" height="23" viewBox="0 0 23 23">
  <g id="Group_27067" data-name="Group 27067" transform="translate(-447.547 -3959.236)">
    <circle id="Ellipse_44" data-name="Ellipse 44" cx="11.5" cy="11.5" r="11.5" transform="translate(447.547 3959.236)" fill="#1973eb" opacity="0.15"/>
    <path id="Path_2675" data-name="Path 2675" d="M70.17,64a6.186,6.186,0,0,1,1.148,12.262V71.837h1.388l.1-1.357H71.317V69.42c0-.365.326-.5.69-.5a3.161,3.161,0,0,1,.754.113l.234-1.389a5.848,5.848,0,0,0-1.677-.169,1.665,1.665,0,0,0-1.453.683,2.442,2.442,0,0,0-.3,1.406v.912h-.936v1.357h.936v4.5A6.185,6.185,0,0,1,70.17,64Z" transform="translate(388.547 3900.236)" fill="#1973eb"/>
  </g>
</svg>
