<svg xmlns="http://www.w3.org/2000/svg" width="23" height="23" viewBox="0 0 23 23">
  <g id="Group_27066" data-name="Group 27066" transform="translate(-414.547 -3959.236)">
    <circle id="Ellipse_42" data-name="Ellipse 42" cx="11.5" cy="11.5" r="11.5" transform="translate(414.547 3959.236)" fill="#26a7e8" opacity="0.15"/>
    <path id="Path_2674" data-name="Path 2674" d="M18.394,88.326l12.635-5.679a.941.941,0,0,1,1.249.492.976.976,0,0,1,.068.55l-1.7,10.251a1.129,1.129,0,0,1-1.8.738L24.58,91.456a.974.974,0,0,1-.2-1.348.936.936,0,0,1,.121-.136l4.284-4a.1.1,0,0,0,.006-.136.094.094,0,0,0-.12-.016l-6.5,4.1a.935.935,0,0,1-.789.1l-2.951-.969a.388.388,0,0,1-.037-.719Z" transform="translate(400.379 3881.672)" fill="#26a7e8"/>
  </g>
</svg>
