<svg xmlns="http://www.w3.org/2000/svg" width="23" height="23" viewBox="0 0 23 23">
  <g id="Group_27068" data-name="Group 27068" transform="translate(-480.547 -3959.236)">
    <circle id="Ellipse_43" data-name="Ellipse 43" cx="11.5" cy="11.5" r="11.5" transform="translate(480.547 3959.236)" fill="#7086d7" opacity="0.15"/>
    <path id="Path_2676" data-name="Path 2676" d="M79.3,207.263a1.611,1.611,0,1,1,1.611-1.611A1.61,1.61,0,0,1,79.3,207.263Zm-5.155,0a1.611,1.611,0,1,1,1.611-1.611A1.61,1.61,0,0,1,74.15,207.263Zm11.24,1.5a.478.478,0,0,1,.009-.13,60.2,60.2,0,0,0-1.572-6.343,2.976,2.976,0,0,0-1.316-1.716,10.408,10.408,0,0,0-.958-.483,7.412,7.412,0,0,0-2.171-.547c-.144-.012-.35-.055-.372.154-.018.166.179.147.295.191.3.115,2.252.651,2.635,1.287a.718.718,0,0,1-.562-.086,10.791,10.791,0,0,0-4.077-.923,14.476,14.476,0,0,0-2.706.146,13.81,13.81,0,0,0-2.32.582s-1.352.568-1.363.578a.938.938,0,0,1,.172-.279s0-.13.769-.444c.037-.027,1.679-.707,2.306-.958.087-.034.228-.023.2-.16s-.156-.094-.251-.091a1.95,1.95,0,0,0-.2.017,7.8,7.8,0,0,0-3.447,1.3,1.117,1.117,0,0,0-.4.453,21.537,21.537,0,0,0-2.028,7.929.837.837,0,0,0,.213.621,5.67,5.67,0,0,0,3.617,1.894,1.148,1.148,0,0,0,1.155-.478c.288-.321.236-.312.369-.455s.1-.233-.08-.3a10.372,10.372,0,0,1-1.7-1,.988.988,0,0,1-.445-.488c.178.047.841.427,1.057.535a12.877,12.877,0,0,0,6.558.781,11.348,11.348,0,0,0,3.29-1.189c.07-.039.143-.113.28-.018a8.733,8.733,0,0,1-2.128,1.39c-.3.088-.233.2-.089.37s.513.7.607.77c.018.02.038.04.058.058a5.531,5.531,0,0,0,3.512-1.042c.621-.5,1.287-.97,1.086-1.93Z" transform="translate(415.518 3764.705)" fill="#7086d7"/>
  </g>
</svg>
