<svg xmlns="http://www.w3.org/2000/svg" width="26.137" height="21.829" viewBox="0 0 26.137 21.829">
  <path id="Path_97957" data-name="Path 97957" d="M-339.022,1727.734c.118-1.645.226-3.29.365-4.933a.935.935,0,0,1,.308-.532q5.071-4.69,10.153-9.369a2.607,2.607,0,0,0,.362-.576,2.7,2.7,0,0,0-.647.2q-6.735,4.1-13.455,8.225a.908.908,0,0,1-.863.107q-2.663-.931-5.339-1.825c-.431-.145-.778-.346-.8-.846-.025-.528.326-.758.766-.926q11.564-4.423,23.123-8.856a1.651,1.651,0,0,1,1.6.012,1.406,1.406,0,0,1,.6,1.546q-1.294,5.9-2.6,11.8-.782,3.552-1.562,7.1c-.259,1.187-1.089,1.509-2.053.782-1.826-1.377-3.657-2.747-5.464-4.148-.345-.267-.523-.214-.8.066-.884.9-1.792,1.772-2.692,2.654-.208.2-.437.525-.738.314-.2-.143-.268-.485-.394-.738Z" transform="translate(348.94 -1708.198)" fill="#fff"/>
</svg>
