<svg id="Group_26409" data-name="Group 26409" xmlns="http://www.w3.org/2000/svg" width="24.1" height="24.1" viewBox="0 0 24.1 24.1">
  <path id="Path_2525" data-name="Path 2525" d="M2317.017,567.015a12.05,12.05,0,1,1-12.05,12.049A12.069,12.069,0,0,1,2317.017,567.015Zm-10.32,12.042a10.32,10.32,0,1,0,10.338-10.312A10.339,10.339,0,0,0,2306.7,579.057Z" transform="translate(-2304.967 -567.015)" fill="#ee4545"/>
  <path id="Path_2526" data-name="Path 2526" d="M2449.005,635.179c0-1.154-.009-2.308,0-3.462a.869.869,0,1,1,1.733,0c0,.113,0,.226,0,.339v4.929c0,.843,0,.843.856.843h4.478a3.621,3.621,0,0,1,.413.011.864.864,0,0,1,.774.871.85.85,0,0,1-.812.829c-.414.018-.828.008-1.241.008q-2.578,0-5.156,0c-.743,0-1.046-.306-1.049-1.057C2449,637.387,2449,636.283,2449.005,635.179Z" transform="translate(-2438.155 -625.979)" fill="#ee4545"/>
</svg>
